<svg xmlns="http://www.w3.org/2000/svg" width="72" height="119" viewBox="0 0 72 119">
  <metadata><?xpacket begin="﻿" id="W5M0MpCehiHzreSzNTczkc9d"?>
<x:xmpmeta xmlns:x="adobe:ns:meta/" x:xmptk="Adobe XMP Core 5.6-c138 79.159824, 2016/09/14-01:09:01        ">
   <rdf:RDF xmlns:rdf="http://www.w3.org/1999/02/22-rdf-syntax-ns#">
      <rdf:Description rdf:about=""/>
   </rdf:RDF>
</x:xmpmeta>
                                                                                                    
                                                                                                    
                                                                                                    
                                                                                                    
                                                                                                    
                                                                                                    
                                                                                                    
                                                                                                    
                                                                                                    
                                                                                                    
                                                                                                    
                                                                                                    
                                                                                                    
                                                                                                    
                                                                                                    
                                                                                                    
                                                                                                    
                                                                                                    
                                                                                                    
                                                                                                    
                           
<?xpacket end="w"?></metadata>
<defs>
    <style>
      .cls-1, .cls-4 {
        fill: #226d4f;
      }

      .cls-2 {
        fill: #16d488;
      }

      .cls-3 {
        fill: #c1ecdb;
      }

      .cls-4 {
        fill-rule: evenodd;
      }
    </style>
  </defs>
  <path class="cls-1" d="M24,23H50A22,22,0,0,1,72,45V84a35,35,0,0,1-35,35h0A35,35,0,0,1,2,84V45A22,22,0,0,1,24,23Z"/>
  <path class="cls-2" d="M24,25H50A20,20,0,0,1,70,45V84a33,33,0,0,1-33,33h0A33,33,0,0,1,4,84V45A20,20,0,0,1,24,25Z"/>
  <path class="cls-3" d="M24,29H50A16,16,0,0,1,66,45V84a29,29,0,0,1-29,29h0A29,29,0,0,1,8,84V45A16,16,0,0,1,24,29Z"/>
  <path class="cls-4" d="M36,23V12a10,10,0,0,0-20,0A8,8,0,1,1,0,12V3H0V1A1,1,0,0,1,2,1V5H2v7a6,6,0,1,0,12,0,12,12,0,0,1,24,0V23H36Z"/>
  <path class="cls-4" d="M71,51H4V49H36V24h2V49H71v2Z"/>
  <rect class="cls-1" x="33" y="41" width="8" height="16" rx="4" ry="4"/>
  <rect class="cls-2" x="35" y="43" width="4" height="12" rx="2" ry="2"/>
</svg>
