<svg 
 xmlns="http://www.w3.org/2000/svg"
 xmlns:xlink="http://www.w3.org/1999/xlink"
 viewBox="0 0 180 110">
<path fill-rule="evenodd"  fill="rgb(224, 236, 231)"
 d="M156.000,89.995 L132.000,89.995 C129.191,89.995 127.000,92.234 127.000,94.997 C127.000,97.757 129.191,99.995 132.000,99.995 L151.000,99.995 C153.789,99.995 156.000,102.235 156.000,104.996 C156.000,107.757 153.789,109.995 151.000,109.995 L19.000,109.995 C16.210,109.995 14.000,107.757 14.000,104.996 C14.000,102.235 16.210,99.995 19.000,99.995 L81.000,99.995 C83.808,99.995 86.000,97.757 86.000,94.997 C86.000,92.234 83.808,89.995 81.000,89.995 L31.000,89.995 C28.210,89.995 26.000,87.758 26.000,84.996 C26.000,82.234 28.210,79.995 31.000,79.995 L48.000,79.995 C50.808,79.995 53.000,77.757 53.000,74.996 C53.000,72.234 50.808,69.996 48.000,69.996 L46.000,69.996 C43.210,69.996 41.000,67.757 41.000,64.995 C41.000,62.234 43.210,59.995 46.000,59.995 L64.000,59.995 C66.808,59.995 69.000,57.757 69.000,54.996 C69.000,52.234 66.808,49.995 64.000,49.995 L20.000,49.995 C17.210,49.995 15.000,47.757 15.000,44.995 C15.000,42.234 17.210,39.996 20.000,39.996 L36.000,39.996 C38.808,39.996 41.000,37.757 41.000,34.996 C41.000,32.234 38.808,29.995 36.000,29.995 L11.000,29.995 C8.210,29.995 6.000,27.756 6.000,24.995 C6.000,22.234 8.210,19.996 11.000,19.996 L76.000,19.996 C78.808,19.996 81.000,17.757 81.000,14.995 C81.000,12.234 78.808,9.996 76.000,9.996 L40.000,9.996 C37.210,9.996 35.000,7.757 35.000,4.995 C35.000,2.234 37.210,-0.004 40.000,-0.004 L137.000,-0.004 C139.789,-0.004 142.000,2.234 142.000,4.995 C142.000,7.757 139.789,9.996 137.000,9.996 L106.000,9.996 C103.191,9.996 101.000,12.234 101.000,14.995 C101.000,17.757 103.191,19.996 106.000,19.996 L175.000,19.996 C177.789,19.996 180.000,22.234 180.000,24.995 C180.000,27.756 177.789,29.995 175.000,29.995 L139.000,29.995 C136.191,29.995 134.000,32.234 134.000,34.996 C134.000,37.757 136.191,39.996 139.000,39.996 L146.000,39.996 L146.000,39.998 C148.761,39.998 151.000,42.236 151.000,44.998 C151.000,47.758 148.761,49.997 146.000,49.997 L129.000,49.997 C126.238,49.997 124.000,52.236 124.000,54.997 C124.000,57.759 126.238,59.998 129.000,59.998 L139.000,59.998 L150.000,59.995 L159.000,59.995 C161.789,59.995 164.000,62.234 164.000,64.995 C164.000,67.757 161.789,69.996 159.000,69.996 L97.000,69.996 C94.191,69.996 92.000,72.234 92.000,74.996 C92.000,77.757 94.191,79.995 97.000,79.995 L156.000,79.995 C158.789,79.995 161.000,82.234 161.000,84.996 C161.000,87.758 158.789,89.995 156.000,89.995 ZM5.000,59.995 L26.000,59.995 C28.761,59.995 31.000,62.234 31.000,64.995 C31.000,67.757 28.761,69.996 26.000,69.996 L5.000,69.996 C2.238,69.996 -0.000,67.757 -0.000,64.995 C-0.000,62.234 2.238,59.995 5.000,59.995 Z"/>
</svg>