<svg 
 xmlns="http://www.w3.org/2000/svg"
 xmlns:xlink="http://www.w3.org/1999/xlink"
 viewBox="0 0 180 110">
<path fill-rule="evenodd"  fill="rgb(224, 236, 231)"
 d="M175.000,109.996 L126.000,109.996 C123.239,109.996 121.000,107.756 121.000,104.995 C121.000,102.234 123.239,99.996 126.000,99.996 L175.000,99.996 C177.762,99.996 180.000,102.234 180.000,104.995 C180.000,107.756 177.762,109.996 175.000,109.996 ZM46.000,19.995 C48.762,19.995 51.000,22.234 51.000,24.995 C51.000,27.756 48.762,29.996 46.000,29.996 L27.000,29.996 C24.239,29.996 22.000,27.756 22.000,24.995 C22.000,22.234 24.239,19.995 27.000,19.995 L46.000,19.995 ZM172.000,49.995 L157.000,49.995 C154.192,49.995 152.000,52.234 152.000,54.995 C152.000,57.757 154.192,59.995 157.000,59.995 L165.000,59.995 C167.790,59.995 170.000,62.234 170.000,64.995 C170.000,67.757 167.790,69.995 165.000,69.995 L118.000,69.995 C115.192,69.995 113.000,72.234 113.000,74.996 C113.000,77.757 115.192,79.995 118.000,79.995 L162.000,79.995 C164.790,79.995 167.000,82.234 167.000,84.996 C167.000,87.757 164.790,89.995 162.000,89.995 L100.000,89.995 C97.192,89.995 95.000,92.234 95.000,94.996 C95.000,97.757 97.192,99.995 100.000,99.995 L106.000,99.995 C108.790,99.995 111.000,102.235 111.000,104.996 C111.000,107.757 108.790,109.996 106.000,109.996 L40.000,109.996 C37.211,109.996 35.000,107.757 35.000,104.996 C35.000,102.235 37.211,99.995 40.000,99.995 L80.000,99.995 C82.808,99.995 85.000,97.757 85.000,94.996 C85.000,92.234 82.808,89.995 80.000,89.995 L5.000,89.995 C2.211,89.995 0.000,87.757 0.000,84.996 C0.000,82.234 2.211,79.995 5.000,79.995 L98.000,79.995 C100.809,79.995 103.000,77.757 103.000,74.996 C103.000,72.234 100.809,69.995 98.000,69.995 L12.000,69.995 C9.211,69.995 7.000,67.757 7.000,64.995 C7.000,62.234 9.211,59.995 12.000,59.995 L50.000,59.995 C52.808,59.995 55.000,57.757 55.000,54.995 C55.000,52.234 52.808,49.995 50.000,49.995 L6.000,49.995 C3.211,49.995 1.000,47.757 1.000,44.995 C1.000,42.234 3.211,39.995 6.000,39.995 L74.000,39.995 L74.000,39.998 C76.762,39.998 79.000,42.236 79.000,44.997 C79.000,47.759 76.762,49.997 74.000,49.997 L70.000,49.997 C67.239,49.997 65.000,52.236 65.000,54.997 C65.000,57.759 67.239,59.998 70.000,59.998 L107.000,59.998 C109.762,59.998 112.000,57.759 112.000,54.997 C112.000,52.236 109.762,49.997 107.000,49.997 L94.000,49.997 C91.239,49.997 89.000,47.759 89.000,44.997 C89.000,42.236 91.239,39.998 94.000,39.998 L94.000,39.995 L132.000,39.995 C134.809,39.995 137.000,37.756 137.000,34.996 C137.000,32.234 134.809,29.995 132.000,29.995 L66.000,29.995 C63.211,29.995 61.000,27.757 61.000,24.995 C61.000,22.234 63.211,19.996 66.000,19.996 L87.000,19.996 C89.809,19.996 92.000,17.757 92.000,14.995 C92.000,12.234 89.809,9.996 87.000,9.996 L14.000,9.996 C11.211,9.996 9.000,7.757 9.000,4.996 C9.000,2.234 11.211,-0.004 14.000,-0.004 L151.000,-0.004 C153.790,-0.004 156.000,2.234 156.000,4.996 C156.000,7.757 153.790,9.996 151.000,9.996 L107.000,9.996 C104.192,9.996 102.000,12.234 102.000,14.995 C102.000,17.757 104.192,19.996 107.000,19.996 L160.000,19.996 C162.790,19.996 165.000,22.234 165.000,24.995 C165.000,27.757 162.790,29.995 160.000,29.995 L152.000,29.995 C149.192,29.995 147.000,32.234 147.000,34.996 C147.000,37.756 149.192,39.995 152.000,39.995 L172.000,39.995 C174.790,39.995 177.000,42.234 177.000,44.995 C177.000,47.757 174.790,49.995 172.000,49.995 Z"/>
</svg>