<svg 
 xmlns="http://www.w3.org/2000/svg"
 xmlns:xlink="http://www.w3.org/1999/xlink"
 viewBox="0 0 180 110">
<path fill-rule="evenodd"  fill="rgb(224, 236, 231)"
 d="M175.000,50.003 L147.000,50.003 C144.192,50.003 142.000,52.242 142.000,55.003 C142.000,57.765 144.192,60.003 147.000,60.003 L161.000,60.003 C163.790,60.003 166.000,62.242 166.000,65.003 C166.000,67.765 163.790,70.003 161.000,70.003 L111.000,70.003 C108.192,70.003 106.000,72.242 106.000,75.003 C106.000,77.764 108.192,80.003 111.000,80.003 L140.000,80.003 C142.790,80.003 145.000,82.242 145.000,85.003 C145.000,87.765 142.790,90.003 140.000,90.003 L117.000,90.003 C114.192,90.003 112.000,92.242 112.000,95.004 C112.000,97.765 114.192,100.003 117.000,100.003 L142.000,100.003 C144.790,100.003 147.000,102.241 147.000,105.003 C147.000,107.764 144.790,110.003 142.000,110.003 L24.000,110.003 C21.211,110.003 19.000,107.764 19.000,105.003 C19.000,102.241 21.211,100.003 24.000,100.003 L75.000,100.003 C77.809,100.003 80.000,97.765 80.000,95.004 C80.000,92.242 77.809,90.003 75.000,90.003 L46.000,90.003 C43.211,90.003 41.000,87.765 41.000,85.003 C41.000,82.242 43.211,80.003 46.000,80.003 L82.000,80.003 C84.808,80.003 87.000,77.764 87.000,75.003 C87.000,72.242 84.808,70.003 82.000,70.003 L30.000,70.003 L30.000,70.001 C27.239,70.001 25.000,67.763 25.000,65.001 C25.000,62.240 27.239,60.001 30.000,60.001 L36.000,60.001 C38.761,60.001 41.000,57.763 41.000,55.002 C41.000,52.240 38.761,50.001 36.000,50.001 L36.000,50.001 L36.000,50.001 L36.000,50.001 L14.000,50.003 L5.000,50.003 C2.211,50.003 0.000,47.764 0.000,45.003 C0.000,42.242 2.211,40.003 5.000,40.003 L47.000,40.003 C49.808,40.003 52.000,37.764 52.000,35.003 C52.000,32.241 49.808,30.003 47.000,30.003 L33.000,30.003 C30.211,30.003 28.000,27.764 28.000,25.002 C28.000,22.242 30.211,20.003 33.000,20.003 L80.000,20.003 C82.808,20.003 85.000,17.765 85.000,15.003 C85.000,12.241 82.808,10.004 80.000,10.004 L60.000,10.004 C57.211,10.004 55.000,7.764 55.000,5.003 C55.000,2.242 57.211,0.003 60.000,0.003 L149.000,0.003 C151.790,0.003 154.000,2.242 154.000,5.003 C154.000,7.764 151.790,10.004 149.000,10.004 L104.000,10.004 C101.192,10.004 99.000,12.241 99.000,15.003 C99.000,17.765 101.192,20.003 104.000,20.003 L160.000,20.003 C162.790,20.003 165.000,22.242 165.000,25.002 C165.000,27.764 162.790,30.003 160.000,30.003 L118.000,30.003 C115.192,30.003 113.000,32.241 113.000,35.003 C113.000,37.764 115.192,40.003 118.000,40.003 L175.000,40.003 C177.790,40.003 180.000,42.242 180.000,45.003 C180.000,47.764 177.790,50.003 175.000,50.003 ZM40.000,10.003 L15.000,10.003 C12.239,10.003 10.000,7.765 10.000,5.004 C10.000,2.242 12.239,0.002 15.000,0.002 L40.000,0.002 C42.762,0.002 45.000,2.242 45.000,5.004 C45.000,7.765 42.762,10.003 40.000,10.003 ZM160.000,80.003 L170.000,80.003 C172.762,80.003 175.000,82.242 175.000,85.004 C175.000,87.765 172.762,90.003 170.000,90.003 L160.000,90.003 C157.239,90.003 155.000,87.765 155.000,85.004 C155.000,82.242 157.239,80.003 160.000,80.003 Z"/>
</svg>