<svg 
 xmlns="http://www.w3.org/2000/svg"
 xmlns:xlink="http://www.w3.org/1999/xlink"
 viewBox="0 0 52 62">
<path fill-rule="evenodd"  fill="rgb(22, 212, 136)"
 d="M50.000,61.999 L2.000,61.999 C0.895,61.999 -0.000,61.103 -0.000,59.999 L-0.000,56.999 L-0.000,55.999 L-0.000,53.999 L-0.000,1.999 C-0.000,0.894 0.895,-0.001 2.000,-0.001 L50.000,-0.001 C51.105,-0.001 52.000,0.894 52.000,1.999 L52.000,59.999 C52.000,61.103 51.105,61.999 50.000,61.999 ZM36.000,1.999 L2.000,1.999 L2.000,5.999 L36.000,5.999 L36.000,1.999 ZM50.000,1.999 L38.000,1.999 L38.000,5.999 L50.000,5.999 L50.000,1.999 ZM50.000,7.999 L2.000,7.999 L2.000,56.999 L2.000,59.999 L50.000,59.999 L50.000,7.999 ZM16.323,24.274 C16.708,23.885 17.333,23.885 17.718,24.274 C18.103,24.663 18.103,25.293 17.718,25.682 L10.962,32.512 L17.669,39.306 C18.054,39.695 18.054,40.326 17.669,40.715 C17.284,41.104 16.659,41.104 16.274,40.715 L9.567,33.921 C9.194,33.544 8.989,33.043 8.989,32.512 C8.989,31.979 9.194,31.478 9.568,31.102 L16.323,24.274 ZM28.686,25.371 C28.959,24.898 29.564,24.737 30.037,25.009 C30.510,25.281 30.672,25.884 30.398,26.357 L23.296,38.621 C23.022,39.093 22.417,39.255 21.945,38.983 C21.472,38.711 21.310,38.107 21.583,37.635 L28.686,25.371 ZM34.282,24.274 C34.667,23.885 35.292,23.885 35.677,24.274 L42.432,31.102 C42.806,31.478 43.011,31.979 43.011,32.512 C43.011,33.043 42.806,33.544 42.433,33.921 L35.726,40.715 C35.341,41.104 34.716,41.104 34.331,40.715 C33.945,40.326 33.945,39.695 34.331,39.306 L41.038,32.512 L34.282,25.682 C33.897,25.293 33.897,24.663 34.282,24.274 Z"/>
</svg>