<svg 
 xmlns="http://www.w3.org/2000/svg"
 xmlns:xlink="http://www.w3.org/1999/xlink"
 viewBox="0 0 130 90">
<path fill-rule="evenodd"  opacity="0.051" fill="rgb(255, 255, 255)"
 d="M114.000,30.000 L74.000,30.000 C71.192,30.000 69.000,32.239 69.000,35.000 C69.000,37.762 71.192,40.000 74.000,40.000 L104.000,40.000 C106.789,40.000 109.000,42.240 109.000,45.001 C109.000,47.762 106.789,50.000 104.000,50.000 L91.000,50.000 C88.192,50.000 86.000,52.240 86.000,55.000 C86.000,57.762 88.192,60.000 91.000,60.000 L109.000,60.000 C111.789,60.000 114.000,62.239 114.000,65.001 C114.000,67.762 111.789,70.001 109.000,70.001 L57.000,70.001 C54.192,70.001 52.000,72.238 52.000,75.000 C52.000,77.762 54.192,80.001 57.000,80.001 L60.000,80.001 C62.789,80.001 65.000,82.240 65.000,85.001 C65.000,87.762 62.789,90.001 60.000,90.001 L34.000,90.001 C31.210,90.001 29.000,87.762 29.000,85.001 C29.000,82.240 31.210,80.001 34.000,80.001 L37.000,80.001 C39.808,80.001 42.000,77.762 42.000,75.000 C42.000,72.238 39.808,70.001 37.000,70.001 L5.000,70.001 C2.211,70.001 -0.000,67.762 -0.000,65.001 C-0.000,62.239 2.211,60.000 5.000,60.000 L71.000,60.000 C73.808,60.000 76.000,57.762 76.000,55.000 C76.000,52.240 73.808,50.000 71.000,50.000 L8.000,50.000 C5.211,50.000 3.000,47.762 3.000,45.001 C3.000,42.240 5.211,40.000 8.000,40.000 L34.000,40.000 C36.808,40.000 39.000,37.762 39.000,35.000 C39.000,32.239 36.808,30.000 34.000,30.000 L11.000,30.000 C8.211,30.000 6.000,27.761 6.000,25.000 C6.000,22.239 8.211,20.000 11.000,20.000 L18.000,20.000 C20.808,20.000 23.000,17.763 23.000,15.001 C23.000,12.240 20.808,10.000 18.000,10.000 L14.000,10.000 C11.210,10.000 9.000,7.762 9.000,5.001 C9.000,2.239 11.210,0.000 14.000,0.000 L62.000,0.000 C64.789,0.000 67.000,2.239 67.000,5.001 C67.000,7.762 64.789,10.000 62.000,10.000 L38.000,10.000 C35.192,10.000 33.000,12.240 33.000,15.001 C33.000,17.763 35.192,20.000 38.000,20.000 L84.000,20.000 C86.808,20.000 89.000,17.763 89.000,15.001 C89.000,12.240 86.808,10.000 84.000,10.000 L82.000,10.000 C79.210,10.000 77.000,7.762 77.000,5.001 C77.000,2.239 79.210,0.000 82.000,0.000 L106.000,0.000 C108.789,0.000 111.000,2.239 111.000,5.001 C111.000,7.762 108.789,10.000 106.000,10.000 L104.000,10.000 C101.192,10.000 99.000,12.240 99.000,15.001 C99.000,17.763 101.192,20.000 104.000,20.000 L114.000,20.000 C116.789,20.000 119.000,22.239 119.000,25.000 C119.000,27.761 116.789,30.000 114.000,30.000 ZM80.000,79.997 L102.000,79.997 C104.761,79.997 107.000,82.236 107.000,84.998 C107.000,87.759 104.761,89.998 102.000,89.998 L80.000,89.998 C77.238,89.998 75.000,87.759 75.000,84.998 C75.000,82.236 77.238,79.997 80.000,79.997 Z"/>
</svg>