<svg 
 xmlns="http://www.w3.org/2000/svg"
 xmlns:xlink="http://www.w3.org/1999/xlink"
 viewBox="0 0 54 64">
<path fill-rule="evenodd"  fill="rgb(22, 212, 136)"
 d="M45.244,53.583 C41.728,56.922 37.448,60.065 33.347,62.964 C31.449,64.305 29.225,64.977 27.000,64.977 C24.776,64.977 22.552,64.305 20.654,62.964 C16.552,60.064 12.272,56.921 8.757,53.583 C2.783,47.909 -0.000,42.671 -0.000,37.097 L-0.000,3.992 C-0.000,2.332 1.346,0.983 3.000,0.983 L51.000,0.983 C52.654,0.983 54.000,2.332 54.000,3.992 L54.000,37.097 C54.000,42.671 51.218,47.910 45.244,53.583 ZM52.000,3.992 C52.000,3.439 51.551,2.989 51.000,2.989 L3.000,2.989 C2.449,2.989 2.000,3.439 2.000,3.992 L2.000,37.097 C2.000,42.082 4.584,46.857 10.132,52.126 C13.555,55.377 17.765,58.468 21.806,61.324 C24.913,63.519 29.088,63.520 32.194,61.324 C36.234,58.468 40.445,55.378 43.869,52.126 C49.416,46.857 52.000,42.082 52.000,37.097 L52.000,3.992 ZM25.781,39.902 C25.408,40.274 24.914,40.478 24.387,40.478 C23.861,40.478 23.365,40.274 22.994,39.902 L16.240,33.170 C15.856,32.786 15.856,32.164 16.240,31.780 C16.625,31.396 17.249,31.396 17.634,31.780 L24.387,38.512 L38.107,24.829 C38.492,24.444 39.116,24.444 39.501,24.829 C39.885,25.212 39.885,25.835 39.501,26.219 L25.781,39.902 Z"/>
</svg>