<svg 
 xmlns="http://www.w3.org/2000/svg"
 xmlns:xlink="http://www.w3.org/1999/xlink"
 viewBox="0 0 130 90">
<path fill-rule="evenodd"  opacity="0.051" fill="rgb(255, 255, 255)"
 d="M119.000,60.000 L51.000,60.000 C48.192,60.000 46.000,57.762 46.000,55.000 C46.000,52.240 48.192,50.000 51.000,50.000 L104.000,50.000 C106.789,50.000 109.000,47.762 109.000,45.001 C109.000,42.240 106.789,40.000 104.000,40.000 L104.000,40.000 C101.192,40.000 99.000,37.762 99.000,35.000 C99.000,32.239 101.192,30.000 104.000,30.000 L114.000,30.000 C116.789,30.000 119.000,27.761 119.000,25.000 C119.000,22.239 116.789,20.000 114.000,20.000 L48.000,20.000 C45.192,20.000 43.000,17.763 43.000,15.001 C43.000,12.240 45.192,10.000 48.000,10.000 L72.000,10.000 C74.789,10.000 77.000,7.762 77.000,5.001 C77.000,2.239 74.789,0.000 72.000,0.000 L14.000,0.000 C11.210,0.000 9.000,2.239 9.000,5.001 C9.000,7.762 11.210,10.000 14.000,10.000 L28.000,10.000 C30.808,10.000 33.000,12.240 33.000,15.001 C33.000,17.763 30.808,20.000 28.000,20.000 L11.000,20.000 C8.211,20.000 6.000,22.239 6.000,25.000 C6.000,27.761 8.211,30.000 11.000,30.000 L84.000,30.000 C86.808,30.000 89.000,32.239 89.000,35.000 C89.000,37.762 86.808,40.000 84.000,40.000 L8.000,40.000 C5.211,40.000 3.000,42.240 3.000,45.001 C3.000,47.762 5.211,50.000 8.000,50.000 L31.000,50.000 C33.808,50.000 36.000,52.240 36.000,55.000 C36.000,57.762 33.808,60.000 31.000,60.000 L5.000,60.000 C2.211,60.000 -0.000,62.239 -0.000,65.001 C-0.000,67.762 2.211,70.001 5.000,70.001 L52.000,70.001 C54.808,70.001 57.000,72.238 57.000,75.000 C57.000,77.762 54.808,80.001 52.000,80.001 L24.000,80.001 C21.210,80.001 19.000,82.240 19.000,85.001 C19.000,87.762 21.210,90.001 24.000,90.001 L89.000,90.001 C91.789,90.001 94.000,87.762 94.000,85.001 C94.000,82.240 91.789,80.001 89.000,80.001 L72.000,80.001 C69.192,80.001 67.000,77.762 67.000,75.000 C67.000,72.238 69.192,70.001 72.000,70.001 L119.000,70.001 C121.789,70.001 124.000,67.762 124.000,65.001 C124.000,62.239 121.789,60.000 119.000,60.000 ZM109.000,5.000 C109.000,2.239 106.761,0.000 104.000,0.000 L94.000,0.000 C91.238,0.000 89.000,2.239 89.000,5.000 C89.000,7.761 91.238,10.001 94.000,10.001 L104.000,10.001 C106.761,10.001 109.000,7.761 109.000,5.000 Z"/>
</svg>