<svg 
 xmlns="http://www.w3.org/2000/svg"
 xmlns:xlink="http://www.w3.org/1999/xlink"
 viewBox="0 0 130 90">
<path fill-rule="evenodd"  opacity="0.051" fill="rgb(255, 255, 255)"
 d="M91.000,49.997 C88.238,49.997 86.000,47.758 86.000,44.997 C86.000,42.236 88.238,39.998 91.000,39.998 L113.000,39.998 C115.761,39.998 118.000,42.236 118.000,44.997 C118.000,47.758 115.761,49.997 113.000,49.997 L91.000,49.997 ZM124.000,70.001 L102.000,70.001 C99.192,70.001 97.000,72.238 97.000,75.000 C97.000,77.762 99.192,80.001 102.000,80.001 L105.000,80.001 C107.789,80.001 110.000,82.240 110.000,85.001 C110.000,87.762 107.789,90.001 105.000,90.001 L79.000,90.001 C76.210,90.001 74.000,87.762 74.000,85.001 C74.000,82.240 76.210,80.001 79.000,80.001 L82.000,80.001 C84.808,80.001 87.000,77.762 87.000,75.000 C87.000,72.238 84.808,70.001 82.000,70.001 L20.000,70.001 C17.210,70.001 15.000,67.762 15.000,65.001 C15.000,62.239 17.210,60.000 20.000,60.000 L46.000,60.000 C48.808,60.000 51.000,57.762 51.000,55.000 C51.000,52.240 48.808,50.000 46.000,50.000 L37.000,50.000 C34.211,50.000 32.000,47.762 32.000,45.001 C32.000,42.240 34.211,40.000 37.000,40.000 L39.000,40.000 C41.808,40.000 44.000,37.762 44.000,35.000 C44.000,32.239 41.808,30.000 39.000,30.000 L26.000,30.000 C23.211,30.000 21.000,27.761 21.000,25.000 C21.000,22.239 23.211,20.000 26.000,20.000 L73.000,20.000 C75.808,20.000 78.000,17.763 78.000,15.001 C78.000,12.240 75.808,10.000 73.000,10.000 L19.000,10.000 C16.210,10.000 14.000,7.762 14.000,5.001 C14.000,2.239 16.210,0.000 19.000,0.000 L107.000,0.000 C109.789,0.000 112.000,2.239 112.000,5.001 C112.000,7.762 109.789,10.000 107.000,10.000 L93.000,10.000 C90.192,10.000 88.000,12.240 88.000,15.001 C88.000,17.763 90.192,20.000 93.000,20.000 L99.000,20.000 L105.000,20.000 L115.000,20.000 C117.789,20.000 120.000,22.239 120.000,25.000 C120.000,27.761 117.789,30.000 115.000,30.000 L59.000,30.000 C56.192,30.000 54.000,32.239 54.000,35.000 C54.000,37.762 56.192,40.000 59.000,40.000 L71.000,40.000 C73.789,40.000 76.000,42.240 76.000,45.001 C76.000,47.762 73.789,50.000 71.000,50.000 L66.000,50.000 C63.192,50.000 61.000,52.240 61.000,55.000 C61.000,57.762 63.192,60.000 66.000,60.000 L124.000,60.000 C126.789,60.000 129.000,62.239 129.000,65.001 C129.000,67.762 126.789,70.001 124.000,70.001 ZM22.000,44.997 C22.000,47.758 19.761,49.997 17.000,49.997 L5.000,49.997 C2.238,49.997 -0.000,47.758 -0.000,44.997 C-0.000,42.236 2.238,39.998 5.000,39.998 L17.000,39.998 C19.761,39.998 22.000,42.236 22.000,44.997 ZM17.000,79.997 L59.000,79.997 C61.761,79.997 64.000,82.236 64.000,84.998 C64.000,87.759 61.761,89.998 59.000,89.998 L17.000,89.998 C14.238,89.998 12.000,87.759 12.000,84.998 C12.000,82.236 14.238,79.997 17.000,79.997 Z"/>
</svg>