<svg 
 xmlns="http://www.w3.org/2000/svg"
 xmlns:xlink="http://www.w3.org/1999/xlink"
 viewBox="0 0 130 90">
<path fill-rule="evenodd"  opacity="0.051" fill="rgb(255, 255, 255)"
 d="M125.000,49.997 L114.000,49.997 C111.238,49.997 109.000,47.758 109.000,44.997 C109.000,42.236 111.238,39.998 114.000,39.998 L125.000,39.998 C127.761,39.998 130.000,42.236 130.000,44.997 C130.000,47.758 127.761,49.997 125.000,49.997 ZM109.000,29.997 L83.000,29.997 C80.191,29.997 78.000,32.235 78.000,34.998 C78.000,37.758 80.191,39.998 83.000,39.998 L94.000,39.998 C96.789,39.998 99.000,42.236 99.000,44.996 C99.000,47.758 96.789,49.998 94.000,49.998 L56.000,49.998 C53.192,49.998 51.000,52.236 51.000,54.997 C51.000,57.759 53.192,59.998 56.000,59.998 L104.000,59.998 C106.789,59.998 109.000,62.237 109.000,64.998 C109.000,67.758 106.789,69.997 104.000,69.997 L70.000,69.997 C67.192,69.997 65.000,72.235 65.000,74.997 C65.000,77.759 67.192,79.998 70.000,79.998 L112.000,79.998 C114.789,79.998 117.000,82.236 117.000,84.998 C117.000,87.758 114.789,89.998 112.000,89.998 L28.000,89.998 C25.210,89.998 23.000,87.758 23.000,84.998 C23.000,82.236 25.210,79.998 28.000,79.998 L50.000,79.998 C52.808,79.998 55.000,77.759 55.000,74.997 C55.000,72.235 52.808,69.997 50.000,69.997 L5.000,69.997 C2.210,69.997 -0.000,67.758 -0.000,64.998 C-0.000,62.237 2.210,59.998 5.000,59.998 L36.000,59.998 C38.808,59.998 41.000,57.759 41.000,54.997 C41.000,52.236 38.808,49.998 36.000,49.998 L22.000,49.998 C19.211,49.998 17.000,47.758 17.000,44.996 C17.000,42.236 19.211,39.998 22.000,39.998 L63.000,39.998 C65.808,39.998 68.000,37.758 68.000,34.998 C68.000,32.235 65.808,29.997 63.000,29.997 L9.000,29.997 C6.211,29.997 4.000,27.759 4.000,24.997 C4.000,22.235 6.211,19.997 9.000,19.997 L39.000,19.997 C41.808,19.997 44.000,17.759 44.000,14.998 C44.000,12.236 41.808,9.997 39.000,9.997 L26.000,9.997 C23.210,9.997 21.000,7.759 21.000,4.997 C21.000,2.236 23.210,-0.003 26.000,-0.003 L61.000,-0.003 C63.789,-0.003 66.000,2.236 66.000,4.997 C66.000,7.759 63.789,9.997 61.000,9.997 L59.000,9.997 C56.192,9.997 54.000,12.236 54.000,14.998 C54.000,17.759 56.192,19.997 59.000,19.997 L109.000,19.997 C111.789,19.997 114.000,22.235 114.000,24.997 C114.000,27.759 111.789,29.997 109.000,29.997 ZM108.000,9.998 L81.000,9.998 C78.238,9.998 76.000,7.759 76.000,4.997 C76.000,2.237 78.238,-0.002 81.000,-0.002 L108.000,-0.002 C110.761,-0.002 113.000,2.237 113.000,4.997 C113.000,7.759 110.761,9.998 108.000,9.998 Z"/>
</svg>