<svg 
 xmlns="http://www.w3.org/2000/svg"
 xmlns:xlink="http://www.w3.org/1999/xlink"
 viewBox="0 0 130 90">
<path fill-rule="evenodd"  opacity="0.051" fill="rgb(255, 255, 255)"
 d="M125.000,70.001 L67.000,70.001 C64.192,70.001 62.000,72.238 62.000,75.000 C62.000,77.762 64.192,80.001 67.000,80.001 L109.000,80.001 C111.789,80.001 114.000,82.240 114.000,85.001 C114.000,87.762 111.789,90.001 109.000,90.001 L14.000,90.001 C11.210,90.001 9.000,87.762 9.000,85.001 C9.000,82.240 11.210,80.001 14.000,80.001 L47.000,80.001 C49.808,80.001 52.000,77.762 52.000,75.000 C52.000,72.238 49.808,70.001 47.000,70.001 L25.000,70.001 C22.211,70.001 20.000,67.762 20.000,65.001 C20.000,62.239 22.211,60.000 25.000,60.000 L91.000,60.000 C93.808,60.000 96.000,57.762 96.000,55.000 C96.000,52.240 93.808,50.000 91.000,50.000 L18.000,50.000 C15.211,50.000 13.000,47.762 13.000,45.001 C13.000,42.240 15.211,40.000 18.000,40.000 L54.000,40.000 C56.808,40.000 59.000,37.762 59.000,35.000 C59.000,32.239 56.808,30.000 54.000,30.000 L41.000,30.000 C38.211,30.000 36.000,27.761 36.000,25.000 C36.000,22.239 38.211,20.000 41.000,20.000 L78.000,20.000 C80.808,20.000 83.000,17.763 83.000,15.001 C83.000,12.240 80.808,10.000 78.000,10.000 L14.000,10.000 C11.210,10.000 9.000,7.762 9.000,5.001 C9.000,2.239 11.210,0.000 14.000,0.000 L102.000,0.000 C104.789,0.000 107.000,2.239 107.000,5.001 C107.000,7.762 104.789,10.000 102.000,10.000 L98.000,10.000 C95.192,10.000 93.000,12.240 93.000,15.001 C93.000,17.763 95.192,20.000 98.000,20.000 L114.000,20.000 C116.789,20.000 119.000,22.239 119.000,25.000 C119.000,27.761 116.789,30.000 114.000,30.000 L74.000,30.000 C71.192,30.000 69.000,32.239 69.000,35.000 C69.000,37.762 71.192,40.000 74.000,40.000 L115.000,40.000 C117.789,40.000 120.000,42.240 120.000,45.001 C120.000,47.762 117.789,50.000 115.000,50.000 L111.000,50.000 C108.192,50.000 106.000,52.240 106.000,55.000 C106.000,57.762 108.192,60.000 111.000,60.000 L125.000,60.000 C127.789,60.000 130.000,62.239 130.000,65.001 C130.000,67.762 127.789,70.001 125.000,70.001 ZM26.000,24.997 C26.000,27.758 23.761,29.997 21.000,29.997 L5.000,29.997 C2.238,29.997 -0.000,27.758 -0.000,24.997 C-0.000,22.236 2.238,19.997 5.000,19.997 L21.000,19.997 C23.761,19.997 26.000,22.236 26.000,24.997 Z"/>
</svg>