<svg 
 xmlns="http://www.w3.org/2000/svg"
 xmlns:xlink="http://www.w3.org/1999/xlink"
 viewBox="0 0 70 62">
<path fill-rule="evenodd"  fill="rgb(22, 212, 136)"
 d="M69.122,21.321 L38.646,60.291 C37.794,61.380 36.489,62.005 35.067,62.005 C33.644,62.005 32.340,61.380 31.488,60.291 L1.010,21.320 C-0.016,20.007 -0.172,18.284 0.603,16.821 L8.279,2.340 C9.044,0.895 10.572,-0.003 12.266,-0.003 L13.524,-0.003 L56.609,-0.003 L57.868,-0.003 C59.561,-0.003 61.088,0.895 61.854,2.340 L61.854,2.340 L69.530,16.822 C70.305,18.284 70.149,20.008 69.122,21.321 ZM67.455,20.127 C67.486,20.087 67.501,20.041 67.529,20.000 L50.137,20.000 L37.843,57.992 L67.455,20.127 ZM35.102,59.727 L47.958,20.000 L22.176,20.000 L35.031,59.727 L35.102,59.727 ZM2.677,20.127 L32.291,57.993 L19.997,20.000 L2.604,20.000 C2.632,20.041 2.646,20.087 2.677,20.127 ZM12.266,1.989 C11.361,1.989 10.544,2.469 10.136,3.241 L2.459,17.722 C2.412,17.812 2.394,17.907 2.360,18.000 L19.349,18.000 L14.169,1.989 L12.266,1.989 ZM16.348,1.989 L21.328,17.381 L33.391,1.989 L16.348,1.989 ZM23.446,18.000 L47.500,18.000 L35.473,2.653 L23.446,18.000 ZM37.555,1.989 L49.042,16.647 L53.786,1.989 L37.555,1.989 ZM67.673,17.722 L59.998,3.241 L59.998,3.241 C59.589,2.469 58.772,1.989 57.868,1.989 L55.965,1.989 L50.784,18.000 L67.773,18.000 C67.739,17.907 67.721,17.812 67.673,17.722 Z"/>
</svg>