<svg 
 xmlns="http://www.w3.org/2000/svg"
 xmlns:xlink="http://www.w3.org/1999/xlink"
 viewBox="0 0 62 62">
<path fill-rule="evenodd"  fill="rgb(22, 212, 136)"
 d="M60.000,51.999 C61.105,51.999 62.000,52.894 62.000,53.999 L62.000,59.999 C62.000,61.103 61.105,62.000 60.000,62.000 L54.000,62.000 C52.895,62.000 52.000,61.103 52.000,59.999 L52.000,58.000 L34.000,58.000 C34.000,59.104 33.104,59.999 32.000,59.999 L30.000,59.999 C28.896,59.999 28.000,59.104 28.000,58.000 L10.000,58.000 L10.000,59.999 C10.000,61.103 9.105,62.000 8.000,62.000 L2.000,62.000 C0.895,62.000 -0.000,61.103 -0.000,59.999 L-0.000,53.999 C-0.000,52.894 0.895,51.999 2.000,51.999 L4.000,51.999 L4.000,33.999 C2.895,33.999 2.000,33.104 2.000,31.999 L2.000,29.999 C2.000,28.895 2.895,27.999 4.000,27.999 L4.000,9.999 L2.000,9.999 C0.895,9.999 -0.000,9.103 -0.000,7.999 L-0.000,1.999 C-0.000,0.895 0.895,-0.001 2.000,-0.001 L8.000,-0.001 C9.105,-0.001 10.000,0.895 10.000,1.999 L10.000,4.000 L28.000,4.000 L28.000,3.999 C28.000,2.894 28.895,1.999 30.000,1.999 L32.000,1.999 C33.105,1.999 34.000,2.894 34.000,3.999 L34.000,4.000 L52.000,4.000 L52.000,1.999 C52.000,0.895 52.895,-0.001 54.000,-0.001 L60.000,-0.001 C61.105,-0.001 62.000,0.895 62.000,1.999 L62.000,7.999 C62.000,9.103 61.105,9.999 60.000,9.999 L58.000,9.999 L58.000,27.999 C59.105,27.999 60.000,28.895 60.000,29.999 L60.000,31.999 C60.000,33.104 59.105,33.999 58.000,33.999 L58.000,51.999 L60.000,51.999 ZM30.000,57.999 L32.000,57.999 L32.000,55.999 L30.000,55.999 L30.000,57.999 ZM2.000,53.999 L2.000,59.999 L8.000,59.999 L8.000,58.000 L8.000,56.000 L8.000,53.999 L6.000,53.999 L6.000,54.000 L4.000,54.000 L4.000,53.999 L2.000,53.999 ZM4.000,31.999 L6.000,31.999 L6.000,29.999 L4.000,29.999 L4.000,31.999 ZM8.000,6.000 L8.000,4.000 L8.000,1.999 L2.000,1.999 L2.000,7.999 L8.000,7.999 L8.000,6.000 ZM32.000,3.999 L30.000,3.999 L30.000,5.999 L32.000,5.999 L32.000,3.999 ZM52.000,7.999 L52.000,6.000 L34.000,6.000 C33.999,7.104 33.104,7.999 32.000,7.999 L30.000,7.999 C28.896,7.999 28.001,7.104 28.000,6.000 L10.000,6.000 L10.000,7.999 C10.000,9.103 9.105,9.999 8.000,9.999 L6.000,9.999 L6.000,27.999 C7.105,27.999 8.000,28.895 8.000,29.999 L8.000,31.999 C8.000,33.104 7.105,33.999 6.000,33.999 L6.000,51.999 L8.000,51.999 C9.105,51.999 10.000,52.894 10.000,53.999 L10.000,56.000 L28.000,56.000 L28.000,55.999 C28.000,54.894 28.895,53.999 30.000,53.999 L32.000,53.999 C33.105,53.999 34.000,54.894 34.000,55.999 L34.000,56.000 L52.000,56.000 L52.000,53.999 C52.000,52.894 52.895,51.999 54.000,51.999 L56.000,51.999 L56.000,33.999 C54.895,33.999 54.000,33.104 54.000,31.999 L54.000,29.999 C54.000,28.895 54.895,27.999 56.000,27.999 L56.000,9.999 L54.000,9.999 C52.895,9.999 52.000,9.103 52.000,7.999 ZM60.000,7.999 L60.000,1.999 L54.000,1.999 L54.000,4.000 L54.000,6.000 L54.000,7.999 L60.000,7.999 ZM58.000,29.999 L56.000,29.999 L56.000,31.999 L58.000,31.999 L58.000,29.999 ZM56.000,54.000 L56.000,53.999 L54.000,53.999 L54.000,56.000 L54.000,58.000 L54.000,59.999 L60.000,59.999 L60.000,53.999 L58.000,53.999 L58.000,54.000 L56.000,54.000 ZM34.000,31.999 L32.000,31.999 L32.000,33.999 C32.000,34.551 31.552,34.999 31.000,34.999 C30.448,34.999 30.000,34.551 30.000,33.999 L30.000,31.999 L28.000,31.999 C27.448,31.999 27.000,31.552 27.000,30.999 C27.000,30.447 27.448,29.999 28.000,29.999 L30.000,29.999 L30.000,27.999 C30.000,27.447 30.448,26.999 31.000,26.999 C31.552,26.999 32.000,27.447 32.000,27.999 L32.000,29.999 L34.000,29.999 C34.552,29.999 35.000,30.447 35.000,30.999 C35.000,31.552 34.552,31.999 34.000,31.999 Z"/>
</svg>