<svg 
 xmlns="http://www.w3.org/2000/svg"
 xmlns:xlink="http://www.w3.org/1999/xlink"
 viewBox="0 0 60 55">
<path fill-rule="evenodd"  fill="rgb(22, 212, 136)"
 d="M52.979,2.943 C52.534,27.726 34.676,48.328 11.141,53.000 L52.000,53.000 L57.000,53.000 L59.000,53.000 C59.552,53.000 60.000,53.447 60.000,54.000 C60.000,54.552 59.552,55.000 59.000,55.000 L52.000,55.000 C51.999,55.000 51.998,54.999 51.997,54.999 L2.000,54.999 C0.895,54.999 -0.000,54.103 -0.000,52.999 L-0.000,49.999 L-0.000,48.999 L-0.000,46.999 L-0.000,4.999 L-0.000,4.999 L-0.000,1.999 C-0.000,1.447 0.448,1.000 1.000,1.000 C1.552,1.000 2.000,1.447 2.000,1.999 L2.000,8.000 C2.000,8.000 2.000,8.000 2.000,8.000 L2.000,49.999 L2.000,51.974 C28.686,51.446 50.299,29.918 50.968,3.267 L45.418,9.058 L44.000,7.596 L50.022,1.312 C51.184,0.121 53.074,0.121 54.235,1.312 L54.235,1.312 L59.998,7.330 L58.580,8.791 L52.979,2.943 Z"/>
</svg>