<svg 
 xmlns="http://www.w3.org/2000/svg"
 xmlns:xlink="http://www.w3.org/1999/xlink"
viewBox="0 0 469 340">
<path fill-rule="evenodd"  fill="rgb(240, 247, 245)"
 d="M85.000,79.997 C90.522,79.997 95.000,84.474 95.000,89.997 C95.000,95.520 90.522,99.997 85.000,99.997 L51.000,99.997 C45.477,99.997 41.000,95.520 41.000,89.997 C41.000,84.474 45.477,79.997 51.000,79.997 L85.000,79.997 ZM459.000,219.997 L287.000,219.997 C281.608,219.997 277.000,224.474 277.000,229.997 C277.000,235.519 281.608,239.997 287.000,239.997 L429.000,239.997 C434.614,239.997 439.000,244.474 439.000,249.997 C439.000,255.519 434.614,259.996 429.000,259.996 L312.000,259.996 C306.608,259.996 302.000,264.474 302.000,269.997 C302.000,275.519 306.608,279.996 312.000,279.996 L349.000,279.996 C354.614,279.996 359.000,284.474 359.000,289.996 C359.000,295.520 354.614,299.998 349.000,299.998 L201.981,299.998 C196.598,300.008 192.000,304.481 192.000,309.997 C192.000,315.520 196.608,319.997 202.000,319.997 L378.000,319.998 C383.523,319.998 388.000,324.474 388.000,329.997 C388.000,335.520 383.523,339.997 378.000,339.997 L101.000,339.997 C95.477,339.997 91.000,335.520 91.000,329.997 C91.000,324.474 95.477,319.998 101.000,319.998 L162.000,319.997 C167.391,319.997 172.000,315.520 172.000,309.997 C172.000,304.481 167.401,300.008 162.018,299.998 L33.166,299.998 C27.551,299.998 23.000,295.520 23.000,289.996 C23.000,284.474 27.551,279.996 33.166,279.996 L252.000,279.996 C257.391,279.996 262.000,275.519 262.000,269.997 C262.000,264.474 257.391,259.996 252.000,259.996 L63.166,259.996 C57.551,259.996 53.000,255.519 53.000,249.997 C53.000,244.474 57.551,239.997 63.166,239.997 L182.000,239.997 C187.391,239.997 192.000,235.519 192.000,229.997 C192.000,224.474 187.391,219.997 182.000,219.997 L123.165,219.997 C117.551,219.997 113.000,215.519 113.000,209.997 C113.000,204.475 117.551,199.997 123.165,199.997 L152.000,199.997 C157.391,199.997 162.000,195.519 162.000,189.997 C162.000,184.474 157.391,179.997 152.000,179.997 L78.165,179.997 C72.551,179.997 68.000,175.520 68.000,169.997 C68.000,164.474 72.551,159.997 78.165,159.997 L112.000,159.997 C117.391,159.997 122.000,155.520 122.000,149.997 C122.000,144.474 117.391,139.997 112.000,139.997 L10.166,139.997 C4.551,139.997 -0.000,135.520 -0.000,129.997 C-0.000,124.474 4.551,119.996 10.166,119.996 L30.000,119.996 L236.000,119.996 C241.391,119.996 246.000,115.520 246.000,109.996 C246.000,104.475 241.391,99.996 236.000,99.996 L125.166,99.996 C119.551,99.996 115.000,95.519 115.000,89.997 C115.000,84.474 119.551,79.997 125.166,79.997 L295.000,79.997 C300.391,79.997 305.000,75.519 305.000,69.997 C305.000,64.475 300.391,59.997 295.000,59.997 L25.166,59.997 C19.551,59.997 15.000,55.520 15.000,49.997 C15.000,44.473 19.551,39.997 25.166,39.997 L152.000,39.997 C157.391,39.997 162.000,35.519 162.000,29.997 C162.000,24.480 157.401,20.008 152.018,19.998 L113.166,19.997 C113.146,19.997 113.128,19.993 113.108,19.993 C113.072,19.993 73.036,19.999 73.000,19.999 C67.477,19.999 63.000,15.521 63.000,9.998 C63.000,4.476 67.477,-0.002 73.000,-0.002 C73.024,-0.002 73.047,0.002 73.071,0.002 C73.087,0.002 113.102,-0.002 113.118,-0.002 L389.047,-0.002 C394.638,0.024 399.000,4.490 399.000,9.996 C399.000,15.520 394.614,19.997 389.000,19.997 L211.981,19.998 C206.598,20.008 202.000,24.480 202.000,29.997 C202.000,35.519 206.608,39.997 212.000,39.997 L349.000,39.997 C354.614,39.997 359.000,44.473 359.000,49.997 C359.000,55.520 354.614,59.997 349.000,59.997 L335.000,59.997 C329.608,59.997 325.000,64.475 325.000,69.997 C325.000,75.519 329.608,79.997 335.000,79.997 L394.000,79.997 C399.614,79.997 404.000,84.474 404.000,89.997 C404.000,95.519 399.614,99.996 394.000,99.996 L276.000,99.996 C270.608,99.996 266.000,104.475 266.000,109.996 C266.000,115.520 270.608,119.996 276.000,119.996 L439.000,119.996 C444.614,119.996 449.000,124.474 449.000,129.997 C449.000,135.520 444.614,139.997 439.000,139.997 L341.000,139.997 C335.608,139.997 331.000,144.474 331.000,149.997 C331.000,155.520 335.608,159.997 341.000,159.997 L399.000,159.997 C404.614,159.997 409.000,164.474 409.000,169.997 C409.000,175.520 404.614,179.997 399.000,179.997 L257.000,179.997 C251.608,179.997 247.000,184.474 247.000,189.997 C247.000,195.519 251.608,199.997 257.000,199.997 L459.000,199.997 C464.614,199.997 469.000,204.475 469.000,209.997 C469.000,215.519 464.614,219.997 459.000,219.997 ZM443.000,59.997 L389.000,59.997 C383.477,59.997 379.000,55.520 379.000,49.997 C379.000,44.473 383.477,39.997 389.000,39.997 L443.000,39.997 C448.523,39.997 453.000,44.473 453.000,49.997 C453.000,55.520 448.523,59.997 443.000,59.997 ZM19.000,199.997 L83.000,199.997 C88.522,199.997 93.000,204.474 93.000,209.997 C93.000,215.520 88.522,219.998 83.000,219.998 L19.000,219.998 C13.477,219.998 9.000,215.520 9.000,209.997 C9.000,204.474 13.477,199.997 19.000,199.997 Z"/>
</svg>