<svg xmlns="http://www.w3.org/2000/svg" width="321" height="406" viewBox="0 0 321 406">
  <metadata><?xpacket begin="﻿" id="W5M0MpCehiHzreSzNTczkc9d"?>
<x:xmpmeta xmlns:x="adobe:ns:meta/" x:xmptk="Adobe XMP Core 5.6-c138 79.159824, 2016/09/14-01:09:01        ">
   <rdf:RDF xmlns:rdf="http://www.w3.org/1999/02/22-rdf-syntax-ns#">
      <rdf:Description rdf:about=""/>
   </rdf:RDF>
</x:xmpmeta>
                                                                                                    
                                                                                                    
                                                                                                    
                                                                                                    
                                                                                                    
                                                                                                    
                                                                                                    
                                                                                                    
                                                                                                    
                                                                                                    
                                                                                                    
                                                                                                    
                                                                                                    
                                                                                                    
                                                                                                    
                                                                                                    
                                                                                                    
                                                                                                    
                                                                                                    
                                                                                                    
                           
<?xpacket end="w"?></metadata>
<defs>
    <style>
      .cls-1, .cls-5 {
        fill: #226d4f;
      }

      .cls-1, .cls-2, .cls-3, .cls-4, .cls-8 {
        fill-rule: evenodd;
      }

      .cls-2, .cls-7 {
        fill: #16d488;
      }

      .cls-3, .cls-6 {
        fill: #c1ecdb;
      }

      .cls-4 {
        fill: #217453;
      }

      .cls-8 {
        fill: #377e62;
      }
    </style>
  </defs>
  <path id="Rounded_Rectangle_18" data-name="Rounded Rectangle 18" class="cls-1" d="M99,330h72v64H99V330h0Z"/>
  <path id="Rounded_Rectangle_18-2" data-name="Rounded Rectangle 18" class="cls-2" d="M101,330h68v64H101V330h0Z"/>
  <path id="Rounded_Rectangle_18-3" data-name="Rounded Rectangle 18" class="cls-3" d="M105,330h60v64H105V330h0Z"/>
  <path class="cls-4" d="M179.5,367c1.933,0,3.5-.417,3.5,1.535v33.125a1,1,0,0,1-1.008,1.011,0.974,0.974,0,0,1-.71-0.308l-5.347-5.567a0.994,0.994,0,0,0-1.4-.032l-6.826,6.487a0.994,0.994,0,0,1-1.392-.021l-6.606-6.659a0.991,0.991,0,0,0-1.414,0l-6.584,6.675a0.994,0.994,0,0,1-1.419,0l-6.312-6.426a0.991,0.991,0,0,0-1.438.02l-6.337,6.81a0.992,0.992,0,0,1-1.436.023l-6.566-6.629a0.992,0.992,0,0,0-1.413,0l-6.591,6.646a0.991,0.991,0,0,1-1.421-.008l-6.611-6.821a0.994,0.994,0,0,0-1.412-.017l-6.618,6.5a0.994,0.994,0,0,1-1.4,0l-6.663-6.573a0.992,0.992,0,0,0-1.4,0L88.7,402.72a0.974,0.974,0,0,1-.695.292A1,1,0,0,1,87,402V369.547c0-2.5,2.025-2.545,4.5-2.545h88m0-2h-88c-3.584,0-6.5.939-6.5,4.55V402a3.015,3.015,0,0,0,3.007,3.017,2.966,2.966,0,0,0,2.1-.874l5.27-5.244,5.956,5.876a2.989,2.989,0,0,0,4.2,0l5.9-5.794,5.909,6.1a3.009,3.009,0,0,0,2.149.912,2.977,2.977,0,0,0,2.125-.887l5.878-5.928,5.854,5.911a2.97,2.97,0,0,0,2.126.888,3,3,0,0,0,2.191-.956l5.623-6.043,5.577,5.678a2.989,2.989,0,0,0,4.266,0L159,398.707l5.892,5.939a2.989,2.989,0,0,0,4.185.062l6.1-5.8,4.656,4.848a2.961,2.961,0,0,0,2.151.922A3.015,3.015,0,0,0,185,401.662V368.537c0-3.055-2.467-3.54-5.5-3.54h0ZM85,365H185v22H85V365Z"/>
  <path class="cls-2" d="M179.5,366.958h-88c-2.475,0-4.5.04-4.5,2.533v32.368a1,1,0,0,0,1.7.718l5.974-5.93a1,1,0,0,1,1.4,0l6.663,6.557a0.994,0.994,0,0,0,1.4,0l6.618-6.486a1,1,0,0,1,1.412.017l6.611,6.805a1,1,0,0,0,1.421.008l6.591-6.63a0.994,0.994,0,0,1,1.413,0l6.566,6.614a1,1,0,0,0,1.436-.023l6.337-6.794a1,1,0,0,1,1.438-.02l6.312,6.411a1,1,0,0,0,1.419,0l6.584-6.659a0.994,0.994,0,0,1,1.414,0l6.606,6.642a1,1,0,0,0,1.392.02l6.826-6.47a0.994,0.994,0,0,1,1.4.032l5.347,5.553a1,1,0,0,0,1.718-.7V368.483C183,366.536,181.433,366.958,179.5,366.958ZM87,367h96v19H87V367Z"/>
  <circle class="cls-5" cx="103" cy="381" r="11"/>
  <circle class="cls-6" cx="103" cy="381" r="9"/>
  <circle class="cls-5" cx="100" cy="378" r="2"/>
  <circle class="cls-5" cx="106" cy="384" r="2"/>
  <circle class="cls-5" cx="106" cy="378" r="2"/>
  <circle class="cls-5" cx="100" cy="384" r="2"/>
  <path class="cls-1" d="M306.753,283.163L208.8,339.579a92.3,92.3,0,0,1-46.68,12.312H108.07C30,351.891,30,274.2,30,274.2V170.323h0V167s0,0,0,0V125a27,27,0,1,1,54,0v9.934c0.012,0.334.049,0.662,0.049,1v48.174a27.042,27.042,0,0,1,51.046,2.922,27.035,27.035,0,0,1,51.046-2.9l-0.123-30.773c0-.121-0.018-0.239-0.018-0.36V125a27,27,0,1,1,54,0V259l39.2-22.219c13.13-7.565,30.386-3.21,37.708,10.04A26.909,26.909,0,0,1,306.753,283.163Z"/>
  <rect id="Rounded_Rectangle_26" data-name="Rounded Rectangle 26" class="cls-7" x="84" y="169" width="50" height="96" rx="25" ry="25"/>
  <rect id="Rounded_Rectangle_26-2" data-name="Rounded Rectangle 26" class="cls-7" x="136" y="169" width="50" height="96" rx="25" ry="25"/>
  <path class="cls-2" d="M317.238,266.772a24.788,24.788,0,0,1-11.592,14.9l-97.915,56.307a91.576,91.576,0,0,1-10.07,4.994,78.822,78.822,0,0,1-25.637,6.572A89.3,89.3,0,0,1,163,350H108c-76,0-76-76-76-76V125a25,25,0,1,1,50,0V238c0,16.017,10.984,29,27,29,11.421,0,21.271-8.619,26-18.214C139.728,258.38,149.579,267,161,267c16.016,0,27-12.983,27-29V201h0V170h0V141c0-.676.048-1.339,0.1-2-0.053-.661-0.1-2.324-0.1-3V125a25,25,0,1,1,50,0v11c0,0.675-.049,2.338-0.1,3,0.052,0.661.1,1.324,0.1,2l0.108,118.54v3.454l3-1.725,39-22.435A25.887,25.887,0,0,1,293,235.4a25.065,25.065,0,0,1,22.053,12.687A24.66,24.66,0,0,1,317.238,266.772Z"/>
  <path class="cls-3" d="M313.526,264.936a20.77,20.77,0,0,1-9.722,12.472l-97.79,56.21a83.145,83.145,0,0,1-15.338,6.821,81.343,81.343,0,0,1-23.786,4.436c-0.484.025-.968,0.051-1.451,0.068-0.156,0-.315.006-0.472,0.011-0.656.019-1.312,0.041-1.968,0.045v-0.016c-0.335,0-.661.016-1,0.016H108c-72,0-72-71.881-72-71.881V125a21,21,0,1,1,42,0V236.179h0v2.377c0,17.108,14.017,31.648,31.152,31.566a30.961,30.961,0,0,0,25.838-14.118,30.979,30.979,0,0,0,25.879,14.118C177.992,270.194,192,255.655,192,238.56V125a21,21,0,0,1,42,0V264.416A3,3,0,0,0,238.508,267l43.771-25.429a21.845,21.845,0,0,1,10.881-2.895A21.036,21.036,0,0,1,311.69,249.3,20.653,20.653,0,0,1,313.526,264.936Z"/>
  <path class="cls-1" d="M225.348,262A57.324,57.324,0,0,0,243,259v2.108A58.862,58.862,0,0,1,225.348,264c-1.123,0-4.263-.038-5.415-0.122a1.013,1.013,0,0,1-.933-1.011h0a1.007,1.007,0,0,1,1.093-1C221.164,261.951,224.247,262,225.348,262ZM238,255h6v15h-6V255Z"/>
  <rect class="cls-7" x="105" y="63" width="5" height="5"/>
  <path class="cls-2" d="M273.8,49.615l-2.6,1.5-1.732,1-1-1.731-1.5-2.6-4.33,2.5-1-1.732,4.33-2.5,1.732-1,2.5,4.33,2.6-1.5,1.732-1,2.5,4.33,4.33-2.5,1,1.732-4.33,2.5-1.732,1Z"/>
  <path class="cls-1" d="M15.657,17.07L9,10.413,2.343,17.07,0.929,15.656,7.586,9,0.929,2.342,2.343,0.928,9,7.585l6.657-6.657,1.414,1.414L10.414,9l6.657,6.657Z"/>
  <path class="cls-2" d="M221.657,70.07L219,67.413l-2.657,2.657-1.414-1.414L217.586,66l-2.657-2.657,1.414-1.415L219,64.585l2.657-2.657,1.414,1.415L220.414,66l2.657,2.657Z"/>
  <path class="cls-2" d="M149.334,105.766a0.487,0.487,0,0,1,.462.318l1.835,4.84,4.841,1.836a0.494,0.494,0,0,1,0,.924l-4.841,1.836-1.835,4.84a0.494,0.494,0,0,1-.924,0l-1.836-4.84-4.84-1.836a0.494,0.494,0,0,1,0-.924l4.84-1.836,1.836-4.84a0.486,0.486,0,0,1,.462-0.318m0-2.03a2.5,2.5,0,0,0-2.359,1.629l-1.512,3.986-3.987,1.512a2.523,2.523,0,0,0,0,4.718l3.987,1.512,1.512,3.987a2.523,2.523,0,0,0,4.718,0l1.512-3.987,3.986-1.512a2.523,2.523,0,0,0,0-4.718l-3.986-1.512-1.512-3.986a2.5,2.5,0,0,0-2.359-1.629h0Z"/>
  <path class="cls-1" d="M167,39a6,6,0,1,1-6,6A6,6,0,0,1,167,39Zm0,2a4,4,0,1,1-4,4A4,4,0,0,1,167,41Z"/>
  <path class="cls-2" d="M92.261,33.556l-11.406.2,5.876-9.778Zm-7.9-1.822,4.47-.079L86.662,27.9Z"/>
  <path class="cls-1" d="M270.055,110.755L256.9,97.6l17.972-4.816Zm-9.241-12.107,8.192,8.191,3-11.189Z"/>
  <path class="cls-8" d="M27,76a4,4,0,1,1-4,4A4,4,0,0,1,27,76Zm0,2a2,2,0,1,1-2,2A2,2,0,0,1,27,78Z"/>
</svg>
