<svg xmlns="http://www.w3.org/2000/svg" viewBox="0 0 128.73 277.58" width="128.73" height="277.58"><defs><style>.cls-1{fill:#1ad58a;}.cls-2{fill:#f7f7f7;}</style></defs><title>125125</title><g id="Layer_2" data-name="Layer 2"><g id="Layer_1-2" data-name="Layer 1"><g id="Layer_2-2" data-name="Layer 2"><g id="Layer_1-2-2" data-name="Layer 1-2"><circle class="cls-1" cx="119.94" cy="120.28" r="1.04" transform="translate(-49.92 120.04) rotate(-45)"/><circle class="cls-1" cx="123.81" cy="125.16" r="1.04" transform="translate(-52.24 124.21) rotate(-45)"/><circle class="cls-1" cx="126.39" cy="130.61" r="1.04" transform="translate(-55.33 127.63) rotate(-45)"/><circle class="cls-1" cx="127.69" cy="136.41" r="1.04" transform="translate(-59.05 130.24) rotate(-45)"/><circle class="cls-1" cx="127.69" cy="142.31" r="1.04" transform="translate(-63.23 131.97) rotate(-45)"/><circle class="cls-1" cx="126.39" cy="148.12" r="1.04" transform="translate(-67.72 132.76) rotate(-45)"/><circle class="cls-1" cx="123.81" cy="153.58" r="1.04" transform="translate(-72.33 132.53) rotate(-45)"/><circle class="cls-1" cx="119.94" cy="158.46" r="1.04" transform="translate(-76.92 131.22) rotate(-45)"/><circle class="cls-1" cx="115.05" cy="162.33" r="1.04" transform="translate(-81.09 128.9) rotate(-45)"/><circle class="cls-1" cx="109.6" cy="164.91" r="1.04" transform="translate(-84.51 125.8) rotate(-45)"/><circle class="cls-1" cx="103.81" cy="166.2" r="1.04" transform="translate(-87.12 122.09) rotate(-45)"/><circle class="cls-1" cx="97.9" cy="166.21" r="1.04" transform="translate(-88.85 117.91) rotate(-45)"/><circle class="cls-1" cx="92.09" cy="164.91" r="1.04" transform="translate(-89.64 113.42) rotate(-45)"/><circle class="cls-1" cx="86.64" cy="162.33" r="1.04" transform="translate(-89.41 108.81) rotate(-45)"/><circle class="cls-1" cx="81.76" cy="158.46" r="1.04" transform="translate(-88.1 104.22) rotate(-45)"/><circle class="cls-1" cx="77.89" cy="153.58" r="1.04" transform="translate(-85.78 100.06) rotate(-45)"/><circle class="cls-1" cx="75.3" cy="148.12" r="1.04" transform="translate(-82.68 96.63) rotate(-45)"/><circle class="cls-1" cx="74.01" cy="142.32" r="1.04" transform="translate(-78.96 94.02) rotate(-45)"/><circle class="cls-1" cx="74.01" cy="136.41" r="1.04" transform="translate(-74.78 92.29) rotate(-45)"/><circle class="cls-1" cx="75.3" cy="130.61" r="1.04" transform="translate(-70.3 91.5) rotate(-45)"/><circle class="cls-1" cx="77.88" cy="125.16" r="1.04" transform="translate(-65.69 91.73) rotate(-45)"/><circle class="cls-1" cx="81.76" cy="120.28" r="1.04" transform="translate(-61.1 93.04) rotate(-45)"/><circle class="cls-1" cx="86.64" cy="116.4" r="1.04" transform="translate(-56.93 95.36) rotate(-45)"/><circle class="cls-1" cx="92.09" cy="113.83" r="1.04" transform="translate(-53.51 98.46) rotate(-45)"/><circle class="cls-1" cx="97.89" cy="112.53" r="1.04" transform="translate(-50.9 102.18) rotate(-45)"/><circle class="cls-1" cx="103.81" cy="112.53" r="1.04" transform="translate(-49.16 106.36) rotate(-45)"/><circle class="cls-1" cx="109.6" cy="113.82" r="1.04" transform="translate(-48.38 110.84) rotate(-45)"/><circle class="cls-1" cx="115.06" cy="116.4" r="1.04" transform="translate(-48.61 115.45) rotate(-45)"/><circle class="cls-1" cx="119.94" cy="120.28" r="1.04" transform="translate(-49.92 120.04) rotate(-45)"/><circle class="cls-1" cx="35.26" cy="80.47" r="1.04" transform="translate(-46.57 48.5) rotate(-45)"/><circle class="cls-1" cx="35.36" cy="86.24" r="1.04" transform="translate(-50.62 50.26) rotate(-45)"/><circle class="cls-1" cx="35.6" cy="92.16" r="1.04" transform="translate(-54.74 52.17) rotate(-45)"/><circle class="cls-1" cx="36.72" cy="97.91" r="1.04" transform="translate(-58.48 54.65) rotate(-45)"/><circle class="cls-1" cx="38.71" cy="103.3" r="1.04" transform="translate(-61.71 57.63) rotate(-45)"/><circle class="cls-1" cx="41.53" cy="108.24" r="1.04" transform="translate(-64.37 61.07) rotate(-45)"/><circle class="cls-1" cx="45.07" cy="112.63" r="1.04" transform="translate(-66.44 64.86) rotate(-45)"/><circle class="cls-1" cx="49.26" cy="116.41" r="1.04" transform="translate(-67.89 68.93) rotate(-45)"/><circle class="cls-1" cx="54" cy="119.49" r="1.04" transform="translate(-68.68 73.18) rotate(-45)"/><circle class="cls-1" cx="59.24" cy="121.8" r="1.04" transform="translate(-68.77 77.57) rotate(-45)"/><circle class="cls-1" cx="64.88" cy="123.24" r="1.04" transform="translate(-68.14 81.97) rotate(-45)"/><circle class="cls-1" cx="70.82" cy="123.74" r="1.04" transform="translate(-66.75 86.32) rotate(-45)"/><circle class="cls-1" cx="35.4" cy="193.89" r="1.04" transform="translate(-126.73 81.82) rotate(-45)"/><circle class="cls-1" cx="35.97" cy="187.51" r="1.04" transform="translate(-122.06 80.36) rotate(-45)"/><circle class="cls-1" cx="37.61" cy="181.52" r="1.04" transform="translate(-117.34 79.76) rotate(-45)"/><circle class="cls-1" cx="40.23" cy="176" r="1.04" transform="translate(-112.67 80) rotate(-45)"/><circle class="cls-1" cx="43.73" cy="171.06" r="1.04" transform="translate(-108.15 81.02) rotate(-45)"/><circle class="cls-1" cx="48" cy="166.79" r="1.04" transform="translate(-103.88 82.79) rotate(-45)"/><circle class="cls-1" cx="52.94" cy="163.29" r="1.04" transform="translate(-99.96 85.26) rotate(-45)"/><circle class="cls-1" cx="58.47" cy="160.67" r="1.04" transform="translate(-96.48 88.4) rotate(-45)"/><circle class="cls-1" cx="64.45" cy="159.02" r="1.04" transform="translate(-93.57 92.15) rotate(-45)"/><circle class="cls-1" cx="70.83" cy="158.45" r="1.04" transform="translate(-91.29 96.49) rotate(-45)"/><circle class="cls-1" cx="70.83" cy="123.73" r="3"/><circle class="cls-1" cx="35.51" cy="199.76" r="3"/><ellipse class="cls-1" cx="35.5" cy="1.03" rx="1.05" ry="1.03"/><ellipse class="cls-1" cx="42.67" cy="1.76" rx="1.05" ry="1.03"/><ellipse class="cls-1" cx="49.32" cy="3.87" rx="1.05" ry="1.03"/><ellipse class="cls-1" cx="55.32" cy="7.19" rx="1.05" ry="1.03"/><ellipse class="cls-1" cx="60.49" cy="11.59" rx="1.05" ry="1.03"/><ellipse class="cls-1" cx="64.69" cy="16.9" rx="1.05" ry="1.03"/><ellipse class="cls-1" cx="67.77" cy="22.98" rx="1.05" ry="1.03"/><ellipse class="cls-1" cx="69.57" cy="29.68" rx="1.05" ry="1.03"/><ellipse class="cls-1" cx="69.95" cy="36.82" rx="1.05" ry="1.03"/><ellipse class="cls-1" cx="68.84" cy="43.77" rx="1.05" ry="1.03"/><ellipse class="cls-1" cx="66.38" cy="50.18" rx="1.05" ry="1.03"/><ellipse class="cls-1" cx="62.72" cy="55.89" rx="1.05" ry="1.03"/><ellipse class="cls-1" cx="58.01" cy="60.76" rx="1.05" ry="1.03"/><ellipse class="cls-1" cx="52.41" cy="64.64" rx="1.05" ry="1.03"/><ellipse class="cls-1" cx="46.07" cy="67.37" rx="1.05" ry="1.03"/><ellipse class="cls-1" cx="39.14" cy="68.81" rx="1.05" ry="1.03"/><ellipse class="cls-1" cx="31.86" cy="68.81" rx="1.05" ry="1.03"/><ellipse class="cls-1" cx="24.93" cy="67.37" rx="1.05" ry="1.03"/><ellipse class="cls-1" cx="18.58" cy="64.64" rx="1.05" ry="1.03"/><ellipse class="cls-1" cx="12.98" cy="60.76" rx="1.05" ry="1.03"/><ellipse class="cls-1" cx="8.27" cy="55.89" rx="1.05" ry="1.03"/><ellipse class="cls-1" cx="4.61" cy="50.18" rx="1.05" ry="1.03"/><ellipse class="cls-1" cx="2.15" cy="43.77" rx="1.05" ry="1.03"/><ellipse class="cls-1" cx="1.05" cy="36.82" rx="1.05" ry="1.03"/><ellipse class="cls-1" cx="1.42" cy="29.68" rx="1.05" ry="1.03"/><ellipse class="cls-1" cx="3.22" cy="22.98" rx="1.05" ry="1.03"/><ellipse class="cls-1" cx="6.3" cy="16.9" rx="1.05" ry="1.03"/><ellipse class="cls-1" cx="10.51" cy="11.59" rx="1.05" ry="1.03"/><ellipse class="cls-1" cx="15.68" cy="7.19" rx="1.05" ry="1.03"/><ellipse class="cls-1" cx="21.67" cy="3.87" rx="1.05" ry="1.03"/><ellipse class="cls-1" cx="28.33" cy="1.76" rx="1.05" ry="1.03"/><ellipse class="cls-1" cx="35.5" cy="1.03" rx="1.05" ry="1.03"/><ellipse class="cls-1" cx="35.5" cy="208.76" rx="1.05" ry="1.03"/><ellipse class="cls-1" cx="42.67" cy="209.5" rx="1.05" ry="1.03"/><ellipse class="cls-1" cx="49.32" cy="211.6" rx="1.05" ry="1.03"/><ellipse class="cls-1" cx="55.32" cy="214.93" rx="1.05" ry="1.03"/><ellipse class="cls-1" cx="60.49" cy="219.32" rx="1.05" ry="1.03"/><ellipse class="cls-1" cx="64.69" cy="224.63" rx="1.05" ry="1.03"/><ellipse class="cls-1" cx="67.77" cy="230.71" rx="1.05" ry="1.03"/><ellipse class="cls-1" cx="69.57" cy="237.41" rx="1.05" ry="1.03"/><ellipse class="cls-1" cx="69.95" cy="244.55" rx="1.05" ry="1.03"/><ellipse class="cls-1" cx="68.84" cy="251.51" rx="1.05" ry="1.03"/><ellipse class="cls-1" cx="66.38" cy="257.91" rx="1.05" ry="1.03"/><ellipse class="cls-1" cx="62.72" cy="263.63" rx="1.05" ry="1.03"/><ellipse class="cls-1" cx="58.01" cy="268.5" rx="1.05" ry="1.03"/><ellipse class="cls-1" cx="52.41" cy="272.38" rx="1.05" ry="1.03"/><ellipse class="cls-1" cx="46.07" cy="275.11" rx="1.05" ry="1.03"/><ellipse class="cls-1" cx="39.14" cy="276.55" rx="1.05" ry="1.03"/><ellipse class="cls-1" cx="31.86" cy="276.55" rx="1.05" ry="1.03"/><ellipse class="cls-1" cx="24.93" cy="275.11" rx="1.05" ry="1.03"/><ellipse class="cls-1" cx="18.58" cy="272.38" rx="1.05" ry="1.03"/><ellipse class="cls-1" cx="12.98" cy="268.5" rx="1.05" ry="1.03"/><ellipse class="cls-1" cx="8.27" cy="263.63" rx="1.05" ry="1.03"/><ellipse class="cls-1" cx="4.61" cy="257.91" rx="1.05" ry="1.03"/><ellipse class="cls-1" cx="2.15" cy="251.51" rx="1.05" ry="1.03"/><ellipse class="cls-1" cx="1.05" cy="244.55" rx="1.05" ry="1.03"/><ellipse class="cls-1" cx="1.42" cy="237.41" rx="1.05" ry="1.03"/><ellipse class="cls-1" cx="3.22" cy="230.71" rx="1.05" ry="1.03"/><ellipse class="cls-1" cx="6.3" cy="224.63" rx="1.05" ry="1.03"/><ellipse class="cls-1" cx="10.51" cy="219.32" rx="1.05" ry="1.03"/><ellipse class="cls-1" cx="15.68" cy="214.93" rx="1.05" ry="1.03"/><ellipse class="cls-1" cx="21.67" cy="211.6" rx="1.05" ry="1.03"/><ellipse class="cls-1" cx="28.33" cy="209.5" rx="1.05" ry="1.03"/><ellipse class="cls-1" cx="35.5" cy="208.76" rx="1.05" ry="1.03"/></g></g><circle class="cls-2" cx="105.05" cy="143.32" r="15"/><circle class="cls-2" cx="32.51" cy="42.74" r="18"/><circle class="cls-2" cx="27.28" cy="243.52" r="18"/></g></g></svg>