<svg 
 xmlns="http://www.w3.org/2000/svg"
 xmlns:xlink="http://www.w3.org/1999/xlink"
 width="0.494cm" height="0.388cm">
<path fill-rule="evenodd"  fill="rgb(22, 212, 136)"
 d="M13.342,3.132 L6.303,10.194 C6.303,10.194 6.302,10.194 6.302,10.195 L6.277,10.219 C5.680,10.819 4.710,10.819 4.113,10.219 L4.089,10.195 C4.088,10.194 4.087,10.194 4.087,10.194 L3.043,9.145 L3.053,9.136 L0.893,6.969 C0.301,6.374 0.301,5.414 0.893,4.819 C1.489,4.220 2.458,4.220 3.054,4.819 L5.205,6.977 L11.181,0.981 C11.777,0.383 12.746,0.383 13.342,0.981 C13.934,1.576 13.934,2.537 13.342,3.132 Z"/>
</svg>