<svg xmlns="http://www.w3.org/2000/svg" width="88" height="64" viewBox="0 0 88 64">
  <metadata><?xpacket begin="﻿" id="W5M0MpCehiHzreSzNTczkc9d"?>
<x:xmpmeta xmlns:x="adobe:ns:meta/" x:xmptk="Adobe XMP Core 5.6-c138 79.159824, 2016/09/14-01:09:01        ">
   <rdf:RDF xmlns:rdf="http://www.w3.org/1999/02/22-rdf-syntax-ns#">
      <rdf:Description rdf:about=""/>
   </rdf:RDF>
</x:xmpmeta>
                                                                                                    
                                                                                                    
                                                                                                    
                                                                                                    
                                                                                                    
                                                                                                    
                                                                                                    
                                                                                                    
                                                                                                    
                                                                                                    
                                                                                                    
                                                                                                    
                                                                                                    
                                                                                                    
                                                                                                    
                                                                                                    
                                                                                                    
                                                                                                    
                                                                                                    
                                                                                                    
                           
<?xpacket end="w"?></metadata>
<defs>
    <style>
      .cls-1 {
        fill: #226d4f;
      }

      .cls-1, .cls-2, .cls-3 {
        fill-rule: evenodd;
      }

      .cls-2 {
        fill: #16d488;
      }

      .cls-3 {
        fill: #c1ecdb;
      }
    </style>
  </defs>
  <path class="cls-1" d="M0,10H88V57s-0.029,7-7,7H7c-6.983,0-7-7-7-7V10Z"/>
  <path class="cls-2" d="M2,10H86V57s-0.081,5-5,5H7c-4.952,0-5-5-5-5V10H2Z"/>
  <path class="cls-3" d="M6,10H82V56a2,2,0,0,1-2,2H8a2,2,0,0,1-2-2V10H6Z"/>
  <path class="cls-1" d="M47.871,35.958a8.3,8.3,0,0,1-4,1.027,8.539,8.539,0,0,1-4.054-1.024L0,13.615V7A6.9,6.9,0,0,1,7,0H81a6.974,6.974,0,0,1,7,7v6.341Z"/>
  <path class="cls-2" d="M81,2H7A5.014,5.014,0,0,0,2,7v5.327l2.033,1.139L41.05,34.208a6.041,6.041,0,0,0,5.9,0L83.967,13.466,86,12.327V7A5.02,5.02,0,0,0,81,2Z"/>
  <path class="cls-3" d="M44.984,30.752a2.014,2.014,0,0,1-1.967,0L6,10.01V8A1.989,1.989,0,0,1,8,6H80a2,2,0,0,1,2,2v2.01Z"/>
</svg>
