<svg xmlns="http://www.w3.org/2000/svg" width="96" height="93" viewBox="0 0 96 93">
  <metadata><?xpacket begin="﻿" id="W5M0MpCehiHzreSzNTczkc9d"?>
<x:xmpmeta xmlns:x="adobe:ns:meta/" x:xmptk="Adobe XMP Core 5.6-c138 79.159824, 2016/09/14-01:09:01        ">
   <rdf:RDF xmlns:rdf="http://www.w3.org/1999/02/22-rdf-syntax-ns#">
      <rdf:Description rdf:about=""/>
   </rdf:RDF>
</x:xmpmeta>
                                                                                                    
                                                                                                    
                                                                                                    
                                                                                                    
                                                                                                    
                                                                                                    
                                                                                                    
                                                                                                    
                                                                                                    
                                                                                                    
                                                                                                    
                                                                                                    
                                                                                                    
                                                                                                    
                                                                                                    
                                                                                                    
                                                                                                    
                                                                                                    
                                                                                                    
                                                                                                    
                           
<?xpacket end="w"?></metadata>
<defs>
    <style>
      .cls-1, .cls-2 {
        fill: #226d4f;
      }

      .cls-2, .cls-3 {
        fill-rule: evenodd;
      }

      .cls-3, .cls-4 {
        fill: #16d488;
      }

      .cls-5 {
        fill: #c1ecdb;
      }
    </style>
  </defs>
  <path class="cls-1" d="M3,29H77a3,3,0,0,1,3,3V67A26,26,0,0,1,54,93H26A26,26,0,0,1,0,67V32A3,3,0,0,1,3,29Z"/>
  <path class="cls-2" d="M59,18H17a1,1,0,0,0,0,2H39a3,3,0,0,1,3,3v3h0a1,1,0,0,1-2,0h0V23a1,1,0,0,0-1-1H17a3,3,0,0,1,0-6H59a1,1,0,0,0,0-2H25a3,3,0,0,1,0-6H49a1,1,0,0,0,0-2H41a3,3,0,0,1-3-3V1h2V3a1,1,0,0,0,1,1h8a3,3,0,0,1,0,6H25a1,1,0,0,0,0,2H59A3,3,0,0,1,59,18ZM38,1h0Zm1-1a1,1,0,0,1,1,1H38A1,1,0,0,1,39,0Zm1,1h0Z"/>
  <path class="cls-2" d="M76,66V58A12,12,0,0,0,88,46V45H76V37H90a6,6,0,0,1,6,6v3A20,20,0,0,1,76,66ZM73,33h7V71H73V33Z"/>
  <path class="cls-3" d="M76,64V60A14,14,0,0,0,90,46V43H76V39H90a4,4,0,0,1,4,4v3A18,18,0,0,1,76,64ZM72,31h8V67H72V31Z"/>
  <path class="cls-4" d="M3,31H77a1,1,0,0,1,1,1V67A24,24,0,0,1,54,91H26A24,24,0,0,1,2,67V32A1,1,0,0,1,3,31Z"/>
  <path class="cls-5" d="M7,35H73a1,1,0,0,1,1,1V67A20,20,0,0,1,54,87H26A20,20,0,0,1,6,67V36A1,1,0,0,1,7,35Z"/>
  <path class="cls-2" d="M32,65H20a3,3,0,0,1-3-3V46a3,3,0,0,1,3-3h5V29h2V43h5a3,3,0,0,1,3,3V62A3,3,0,0,1,32,65Z"/>
  <rect class="cls-4" x="19" y="45" width="14" height="18" rx="1" ry="1"/>
</svg>
