<svg 
 xmlns="http://www.w3.org/2000/svg"
 xmlns:xlink="http://www.w3.org/1999/xlink"
 viewBox="0 0 501 180">
<path fill-rule="evenodd"  fill="rgb(224, 236, 231)"
 d="M490.834,99.998 L162.000,99.998 C156.609,99.998 152.000,104.475 152.000,109.998 C152.000,115.521 156.609,119.998 162.000,119.998 L455.834,119.998 C461.449,119.998 466.000,124.475 466.000,129.999 C466.000,135.521 461.449,139.998 455.834,139.998 L339.000,139.998 C333.609,139.998 329.000,144.475 329.000,149.999 C329.000,155.521 333.609,159.999 339.000,159.999 L395.834,159.999 C401.449,159.999 406.000,164.476 406.000,169.998 C406.000,175.521 401.449,179.998 395.834,179.998 L257.000,179.998 L202.000,179.998 L180.000,179.998 C174.386,179.998 170.000,175.521 170.000,169.998 C170.000,164.476 174.386,159.999 180.000,159.999 L299.000,159.999 C304.391,159.999 309.000,155.521 309.000,149.999 C309.000,144.475 304.391,139.998 299.000,139.998 L30.000,139.998 C24.386,139.998 20.000,135.521 20.000,129.999 C20.000,124.475 24.386,119.998 30.000,119.998 L122.000,119.998 C127.391,119.998 132.000,115.521 132.000,109.998 C132.000,104.475 127.391,99.998 122.000,99.998 L10.000,99.998 C4.386,99.998 0.000,95.521 0.000,89.998 C0.000,84.476 4.386,79.998 10.000,79.998 L177.000,79.998 C182.391,79.998 187.000,75.521 187.000,69.998 C187.000,64.482 182.402,60.009 177.019,59.999 L60.000,59.999 C54.385,59.999 50.000,55.521 50.000,49.998 C50.000,44.490 54.363,40.024 59.955,40.000 L137.000,39.998 C142.391,39.998 147.000,35.521 147.000,29.998 C147.000,24.482 142.402,20.009 137.019,19.999 L35.000,19.999 C29.385,19.999 25.000,15.521 25.000,9.998 C25.000,4.491 29.363,0.024 34.955,-0.000 L195.879,-0.000 C201.473,0.024 206.000,4.491 206.000,9.998 C206.000,15.521 201.449,19.999 195.834,19.999 L176.982,19.999 C171.598,20.009 167.000,24.482 167.000,29.998 C167.000,35.521 171.609,39.998 177.000,39.998 L256.879,40.000 C262.473,40.024 267.000,44.490 267.000,49.998 C267.000,55.521 262.449,59.999 256.834,59.999 L216.982,59.999 C211.598,60.009 207.000,64.482 207.000,69.998 C207.000,75.521 211.609,79.998 217.000,79.998 L317.000,79.998 C322.391,79.998 327.000,75.521 327.000,69.998 C327.000,64.482 322.402,60.009 317.019,59.999 L297.000,59.999 C291.477,59.999 287.000,55.521 287.000,49.998 C287.000,44.490 291.454,40.024 296.956,40.000 L417.044,40.000 C422.547,40.024 427.000,44.490 427.000,49.998 C427.000,55.521 422.523,59.999 417.000,59.999 L356.982,59.999 C351.598,60.009 347.000,64.482 347.000,69.998 C347.000,75.516 351.601,79.991 356.987,79.998 L490.834,79.998 C496.449,79.998 501.000,84.476 501.000,89.998 C501.000,95.521 496.449,99.998 490.834,99.998 ZM441.000,19.999 L380.982,19.999 C380.979,19.999 380.977,20.000 380.974,20.000 L246.026,20.000 C246.024,20.000 246.021,19.999 246.019,19.999 L236.000,19.999 C230.477,19.999 226.000,15.521 226.000,9.998 C226.000,4.476 230.477,-0.002 236.000,-0.002 L441.000,-0.002 C446.523,-0.002 451.000,4.476 451.000,9.998 C451.000,15.521 446.523,19.999 441.000,19.999 ZM75.000,159.998 L140.000,159.998 C145.523,159.998 150.000,164.476 150.000,169.998 C150.000,175.521 145.523,179.999 140.000,179.999 L89.982,179.999 C89.979,179.999 89.977,180.000 89.974,180.000 L85.026,180.000 C85.024,180.000 85.021,179.999 85.019,179.999 L75.000,179.999 C69.477,179.999 65.000,175.521 65.000,169.998 C65.000,164.476 69.477,159.998 75.000,159.998 Z"/>
</svg>