<svg xmlns="http://www.w3.org/2000/svg" width="88" height="67" viewBox="0 0 88 67">
  <metadata><?xpacket begin="﻿" id="W5M0MpCehiHzreSzNTczkc9d"?>
<x:xmpmeta xmlns:x="adobe:ns:meta/" x:xmptk="Adobe XMP Core 5.6-c138 79.159824, 2016/09/14-01:09:01        ">
   <rdf:RDF xmlns:rdf="http://www.w3.org/1999/02/22-rdf-syntax-ns#">
      <rdf:Description rdf:about=""/>
   </rdf:RDF>
</x:xmpmeta>
                                                                                                    
                                                                                                    
                                                                                                    
                                                                                                    
                                                                                                    
                                                                                                    
                                                                                                    
                                                                                                    
                                                                                                    
                                                                                                    
                                                                                                    
                                                                                                    
                                                                                                    
                                                                                                    
                                                                                                    
                                                                                                    
                                                                                                    
                                                                                                    
                                                                                                    
                                                                                                    
                           
<?xpacket end="w"?></metadata>
<defs>
    <style>
      .cls-1, .cls-4 {
        fill: #226d4f;
      }

      .cls-1, .cls-2, .cls-3 {
        fill-rule: evenodd;
      }

      .cls-2, .cls-5 {
        fill: #16d488;
      }

      .cls-3 {
        fill: #c1ecdb;
      }
    </style>
  </defs>
  <path class="cls-1" d="M68,67H20C0.408,67,0,47.218,0,47V38c0-7.909,6.541-10,10-10a7.982,7.982,0,0,0,7.835-9.6L17.342,16H70.658l-0.493,2.4A7.982,7.982,0,0,0,78,28c3.459,0,10,2.091,10,10v9C88,47.218,87.592,67,68,67Z"/>
  <path class="cls-2" d="M68,65H20C2.163,65,2,47,2,47V38c0-8,8-8,8-8A10,10,0,0,0,20,20V18H68v2A10,10,0,0,0,78,30s8,0,8,8v9S85.837,65,68,65Z"/>
  <path class="cls-3" d="M82,47s0.037,14-14,14H20C5.963,61,6,47,6,47V38s-0.016-4,4-4A14,14,0,0,0,24,20V18H64v2A14,14,0,0,0,78,34c4.016,0,4,4,4,4v9Z"/>
  <path class="cls-1" d="M88,20a10,10,0,0,1-20,0V18H20v2A10,10,0,0,1,0,20H0A20,20,0,0,1,20,0H68A20,20,0,0,1,88,20h0Z"/>
  <path class="cls-2" d="M78,28a8,8,0,0,1-8-8h0V17a1,1,0,0,0-1-1H19a1,1,0,0,0-1,1v3h0A8,8,0,0,1,2,20H2A18,18,0,0,1,20,2H68A18,18,0,0,1,86,20h0A8,8,0,0,1,78,28Z"/>
  <path class="cls-3" d="M82,20a4,4,0,0,1-8,0V16a4,4,0,0,0-4-4H18a4,4,0,0,0-4,4v4a4,4,0,0,1-8,0H6A14,14,0,0,1,20,6H68A14,14,0,0,1,82,20h0Z"/>
  <rect id="Rounded_Rectangle_11" data-name="Rounded Rectangle 11" class="cls-4" x="40" y="35" width="8" height="8" rx="2" ry="2"/>
  <rect class="cls-5" x="42" y="37" width="4" height="4"/>
  <rect id="Rounded_Rectangle_11-2" data-name="Rounded Rectangle 11" class="cls-4" x="51" y="35" width="8" height="8" rx="2" ry="2"/>
  <rect class="cls-5" x="53" y="37" width="4" height="4"/>
  <rect id="Rounded_Rectangle_11-3" data-name="Rounded Rectangle 11" class="cls-4" x="29" y="35" width="8" height="8" rx="2" ry="2"/>
  <rect class="cls-5" x="31" y="37" width="4" height="4"/>
  <rect id="Rounded_Rectangle_11-4" data-name="Rounded Rectangle 11" class="cls-4" x="40" y="46" width="8" height="8" rx="2" ry="2"/>
  <rect class="cls-5" x="42" y="48" width="4" height="4"/>
  <rect id="Rounded_Rectangle_11-5" data-name="Rounded Rectangle 11" class="cls-4" x="51" y="46" width="8" height="8" rx="2" ry="2"/>
  <rect class="cls-5" x="53" y="48" width="4" height="4"/>
  <rect id="Rounded_Rectangle_11-6" data-name="Rounded Rectangle 11" class="cls-4" x="29" y="46" width="8" height="8" rx="2" ry="2"/>
  <rect class="cls-5" x="31" y="48" width="4" height="4"/>
  <rect id="Rounded_Rectangle_11-7" data-name="Rounded Rectangle 11" class="cls-4" x="40" y="24" width="8" height="8" rx="2" ry="2"/>
  <rect class="cls-5" x="42" y="26" width="4" height="4"/>
  <rect id="Rounded_Rectangle_11-8" data-name="Rounded Rectangle 11" class="cls-4" x="51" y="24" width="8" height="8" rx="2" ry="2"/>
  <rect class="cls-5" x="53" y="26" width="4" height="4"/>
  <rect id="Rounded_Rectangle_11-9" data-name="Rounded Rectangle 11" class="cls-4" x="29" y="24" width="8" height="8" rx="2" ry="2"/>
  <rect class="cls-5" x="31" y="26" width="4" height="4"/>
</svg>
