<svg xmlns="http://www.w3.org/2000/svg" width="375" height="185" viewBox="0 0 375 185">
  <defs>
    <style>
      .cls-1, .cls-4 {
        fill: #226d4f;
      }

      .cls-2, .cls-5 {
        fill: #16d488;
      }

      .cls-3 {
        fill: #c1ecdb;
      }

      .cls-4, .cls-5 {
        fill-rule: evenodd;
      }
    </style>
  </defs>
  <rect class="cls-1" x="55" y="107" width="268" height="68" rx="33.911" ry="33.911"/>
  <rect class="cls-2" x="57" y="109" width="264" height="64" rx="32.118" ry="32.118"/>
  <rect class="cls-3" x="59" y="113" width="260" height="56" rx="28" ry="28"/>
  <path class="cls-4" d="M373.379,65.772l-55.531,60.894-1.405,1.543-1.465-1.465-6.987-6.987-1.464-1.464,1.543-1.405,60.874-55.514A3.125,3.125,0,0,1,373.379,65.772Z"/>
  <path class="cls-4" d="M67.7,129.81l-7.072,7.072C57.283,133.534,7,83.248,6.892,83.143h0l7.072-7.072Z"/>
  <path id="Rounded_Rectangle_3" data-name="Rounded Rectangle 3" class="cls-5" d="M66.289,131.225l-4.243,4.243L8.306,81.728l4.243-4.243Z"/>
  <path class="cls-4" d="M47.988,101h0a5.088,5.088,0,0,1,5,5.172v19.655a5.088,5.088,0,0,1-5,5.172h0a5.088,5.088,0,0,1-5-5.172V106.174A5.088,5.088,0,0,1,47.988,101Z"/>
  <path id="Rounded_Rectangle_3-2" data-name="Rounded Rectangle 3" class="cls-5" d="M47.988,103h0a3,3,0,0,1,3,3v20a3,3,0,0,1-3,3h0a3,3,0,0,1-3-3V106A3,3,0,0,1,47.988,103Z"/>
  <path class="cls-4" d="M29.988,83h0a5.088,5.088,0,0,1,5,5.172v19.655a5.089,5.089,0,0,1-5,5.173h0a5.089,5.089,0,0,1-5-5.173V88.174A5.088,5.088,0,0,1,29.988,83Z"/>
  <path id="Rounded_Rectangle_3-3" data-name="Rounded Rectangle 3" class="cls-5" d="M29.988,85h0a3,3,0,0,1,3,3v20a3,3,0,0,1-3,3h0a3,3,0,0,1-3-3V88A3,3,0,0,1,29.988,85Z"/>
  <path class="cls-4" d="M16.972,90A5.073,5.073,0,0,1,11.988,95h0a5.089,5.089,0,0,1-5-5.173V89H7V77H7l0-1c-0.28-1.647-.5-2.52-1.24-2.843a1.947,1.947,0,0,0-1.712.239,2.633,2.633,0,0,1-3.081-.158,2.539,2.539,0,0,1-.719-2.912,7.194,7.194,0,0,1,1.614-2.391,7.732,7.732,0,0,1,6.043-2.287,10.249,10.249,0,0,1,7.5,4.582A11.092,11.092,0,0,1,17,76V90H16.972Z"/>
  <path class="cls-5" d="M14.988,90V90a3,3,0,0,1-3,3h0a3,3,0,0,1-3-3L9,76c-0.887-5.7-4.109-5.47-5.982-4.292a0.6,0.6,0,0,1-.911-0.693,5.17,5.17,0,0,1,1.15-1.686,5.7,5.7,0,0,1,4.457-1.682A8.416,8.416,0,0,1,13.747,71.4,11.067,11.067,0,0,1,15,76V90H14.988Z"/>
  <path class="cls-5" d="M371.9,62.841a1.111,1.111,0,0,1,.022,1.6l-55.531,60.893L309.4,118.35l60.893-55.531a1.111,1.111,0,0,1,1.6.022"/>
  <rect class="cls-1" x="53" y="111" width="272" height="68" rx="33.911" ry="33.911"/>
  <rect class="cls-2" x="55" y="113" width="268" height="64" rx="32.118" ry="32.118"/>
  <rect class="cls-3" x="57" y="117" width="264" height="56" rx="28" ry="28"/>
  <path class="cls-4" d="M267.066,94.2a3.609,3.609,0,0,1,2.575-1.071,3.742,3.742,0,0,1,2.241.715,4.518,4.518,0,0,0,2.695.887h0.086A4.51,4.51,0,0,0,279,90V69l-10.919.057a2.076,2.076,0,0,1-2.073-2.086c0.043-13.733,12.218-24.94,25.912-24.983h0.006A2.079,2.079,0,0,1,294,44.064v70.943A4.115,4.115,0,0,1,290,119H274a3.493,3.493,0,0,1-2.69-1.649c-1.594-1.9-5.3-6.981-5.3-13.087,0-2.381,0-.4,0-3.319l0-4.165A3.632,3.632,0,0,1,267.066,94.2ZM283,103h11v16H283V103Z"/>
  <path class="cls-4" d="M72.89,125.96a2.984,2.984,0,0,1-.005-4.227L193.249,1.841a3.018,3.018,0,0,1,4.251,0,2.971,2.971,0,0,1,.813,1.515c1.644,8.026,4.432,28.214-5.171,42.294-11,16.125-80.869,87.332-94.763,101.443a2.97,2.97,0,0,1-2.118.891,3,3,0,0,1-2.14-.881ZM196.793,2.548a1.964,1.964,0,0,1,.54,1.009c1.637,7.991,4.36,27.783-5.019,41.534-11.083,16.249-83.61,90.1-94.65,101.306a2,2,0,0,1-2.837,0L73.6,125.257a1.988,1.988,0,0,1,0-2.819L193.957,2.546a2.008,2.008,0,0,1,2.836,0m1.413-1.408h0a4.022,4.022,0,0,0-5.665-.005L72.177,121.028a3.979,3.979,0,0,0,.007,5.636l21.23,21.146a4,4,0,0,0,5.68-.014C113,133.675,182.922,62.413,193.97,46.214c9.817-14.394,6.993-34.9,5.323-43.051a3.969,3.969,0,0,0-1.087-2.023h0Z"/>
  <path class="cls-5" d="M196.793,2.548a1.964,1.964,0,0,1,.54,1.009c1.637,7.991,4.36,27.783-5.019,41.534-11.083,16.249-83.61,90.1-94.65,101.306a2,2,0,0,1-2.837,0L73.6,125.257a1.988,1.988,0,0,1,0-2.819L193.957,2.546a2.008,2.008,0,0,1,2.836,0"/>
  <path class="cls-4" d="M164.9,37.1h0a1,1,0,0,1,0,1.414L146.515,56.9a1,1,0,0,1-1.415,0h0a1,1,0,0,1,0-1.414L163.485,37.1A1,1,0,0,1,164.9,37.1Z"/>
  <path class="cls-5" d="M270.7,95.456A6.455,6.455,0,0,0,281,90V68a0.819,0.819,0,0,0-1-1h-8s-3.993.017-3.992-.023c0.04-12.677,11.278-22.944,23.918-22.985a0.075,0.075,0,0,1,.074.074V114.8a2.344,2.344,0,0,1-2,2.2H275a3.731,3.731,0,0,1-2.159-.944c-1.446-1.723-4.834-6.343-4.834-11.8,0-3.555,0-3.515-.007-7.486a1.644,1.644,0,0,1,1.641-1.646h0A1.773,1.773,0,0,1,270.7,95.456ZM281,101h11v16H281V101Z"/>
  <rect class="cls-1" x="287" y="54" width="2" height="15" rx="1" ry="1"/>
  <rect class="cls-1" x="51" y="117" width="276" height="68" rx="33.911" ry="33.911"/>
  <rect class="cls-2" x="53" y="119" width="272" height="64" rx="32.118" ry="32.118"/>
  <rect class="cls-3" x="57" y="123" width="264" height="56" rx="28" ry="28"/>
  <path class="cls-4" d="M326.275,158H311a2,2,0,0,1-2-2V146a2,2,0,0,1,2-2h15.275a34.133,34.133,0,0,1,.725,7h0A34.125,34.125,0,0,1,326.275,158Z"/>
  <path class="cls-5" d="M324.55,156H312a1,1,0,0,1-1-1v-8a1,1,0,0,1,1-1h12.55a30.053,30.053,0,0,1,.45,5v0A30.073,30.073,0,0,1,324.55,156Z"/>
  <path class="cls-4" d="M93,155H89v4a2,2,0,0,1-2,2H83a2,2,0,0,1-2-2v-4H77a2,2,0,0,1-2-2v-4a2,2,0,0,1,2-2h4v-4a2,2,0,0,1,2-2h4a2,2,0,0,1,2,2v4h4a2,2,0,0,1,2,2v4A2,2,0,0,1,93,155Z"/>
  <path class="cls-5" d="M93,153H87v6H83v-6H77v-4h6v-6h4v6h6v4Z"/>
</svg>
