<svg xmlns="http://www.w3.org/2000/svg" width="441" height="340" viewBox="0 0 441 340">
  <defs>
    <style>
      .cls-1 {
        fill: #f0f7f5;
        fill-rule: evenodd;
      }
    </style>
  </defs>
  <path class="cls-1" d="M431,180H359a10,10,0,0,0,0,20h32a10,10,0,1,1,0,20H319a10,10,0,0,0,0,20h92a10,10,0,1,1,0,20H254a10,10,0,0,0,0,20H361a10,10,0,0,1,0,20H313.981A10,10,0,0,0,314,320h76a10,10,0,1,1,0,20H53a10,10,0,1,1,0-20h47a10,10,0,0,0,.018-20H80a10,10,0,0,1,0-20h75a10,10,0,0,1,0,20H134.981A10,10,0,0,0,135,320H264a10,10,0,0,0,.018-20H195.166a10,10,0,1,1,0-20H214a10,10,0,0,0,0-20H35.166a10,10,0,1,1,0-20H174a10,10,0,0,0,0-20H55.166a10,10,0,1,1,0-20H84a10,10,0,0,0,0-20H10.166a10,10,0,1,1,0-20H134a10,10,0,1,0,0-20H62.166a10,10,0,1,1,0-20H82a10,10,0,0,0,0-20H27a10,10,0,1,1,0-20H127a10,10,0,1,1,0,20h-5a10,10,0,0,0,0,20H248a10,10,0,0,0,0-20H167.166a10,10,0,1,1,0-20H197a10,10,0,1,0,0-20H117.166a10,10,0,1,1,0-20H391a10,10,0,0,1,0,20H277a10,10,0,1,0,0,20h59a10,10,0,1,1,0,20H288a10,10,0,0,0,0,20H391a10,10,0,0,1,0,20H273a10,10,0,1,0,0,20H431A10,10,0,1,1,431,180Zm-31-80H376a10,10,0,1,1,0-20h24A10,10,0,1,1,400,100ZM367,20H277a10,10,0,1,1,0-20h90A10,10,0,1,1,367,20ZM237,20H73A10,10,0,1,1,73,0H237A10,10,0,1,1,237,20ZM87,50A10,10,0,0,1,77,60H13a10,10,0,0,1,0-20H77A10,10,0,0,1,87,50Z"/>
</svg>
