<svg 
 xmlns="http://www.w3.org/2000/svg"
 xmlns:xlink="http://www.w3.org/1999/xlink"
 width="20" height="40" viewBox="0 0 20 40">
<path fill-rule="evenodd"  fill="rgb(84, 96, 91)"
 d="M5.263,39.997 L5.263,21.050 L-0.000,21.050 L-0.000,14.735 L5.263,14.735 C5.263,14.735 5.263,11.421 5.263,8.419 C5.263,3.883 8.121,-0.003 15.070,-0.003 C17.884,-0.003 19.964,0.259 19.964,0.259 L19.800,6.570 C19.800,6.570 17.678,6.549 15.363,6.549 C12.857,6.549 12.456,7.672 12.456,9.534 C12.456,11.008 12.631,6.661 12.631,14.735 L20.000,14.735 L20.000,21.050 L12.631,21.050 L12.631,39.997 L5.263,39.997 Z"/>
</svg>