<svg 
 xmlns="http://www.w3.org/2000/svg"
 xmlns:xlink="http://www.w3.org/1999/xlink"
 width="40" height="36" viewBox="0 0 40 36">
<path fill-rule="evenodd"  fill="rgb(232, 239, 236)"
 d="M5.383,22.975 C2.338,23.634 -0.000,26.217 -0.000,29.459 C-0.000,33.085 2.882,35.998 6.470,35.998 C8.428,35.998 10.168,35.063 11.419,33.690 C12.995,31.931 17.346,30.887 19.847,30.887 C22.185,30.887 25.828,31.657 27.405,33.360 C28.764,34.789 30.450,35.943 32.571,35.943 C36.160,35.943 39.041,33.031 39.041,29.404 C39.041,26.162 36.649,23.689 33.604,22.920 C31.320,22.370 28.710,19.623 27.514,17.480 C26.263,15.282 25.013,10.995 25.719,8.688 C25.937,8.028 26.100,7.314 26.100,6.545 C26.046,2.918 23.164,0.006 19.575,0.006 C15.986,0.006 13.104,2.918 13.104,6.545 C13.104,7.259 13.267,7.973 13.431,8.633 C14.137,10.941 13.159,14.842 11.908,17.040 C10.657,19.183 7.667,22.480 5.383,22.975 ZM26.753,25.997 C24.904,27.206 21.913,27.975 19.847,27.975 C17.781,27.975 14.409,27.206 12.397,25.997 C12.343,23.634 13.322,20.337 14.409,18.524 C15.442,16.710 17.563,14.512 19.521,13.468 C21.587,14.567 23.925,17.150 24.958,18.963 C26.046,20.777 26.861,23.744 26.753,25.997 Z"/>
</svg>