<svg 
 xmlns="http://www.w3.org/2000/svg"
 xmlns:xlink="http://www.w3.org/1999/xlink" width="46" height="46" viewBox="0 0 46 46">
<path fill-rule="evenodd"  fill="rgb(232, 239, 236)"
 d="M23.000,-0.007 C21.287,-0.007 19.622,0.186 18.016,0.542 L18.016,23.013 C18.016,25.767 20.260,28.012 23.013,28.012 C25.765,28.012 28.009,25.767 28.009,23.013 C28.009,20.373 25.943,18.199 23.346,18.026 L23.346,14.023 C28.145,14.200 32.006,18.169 32.006,23.013 C32.006,27.968 27.965,32.010 23.013,32.010 C18.057,32.010 14.019,27.968 14.019,23.013 L14.019,1.815 C13.450,2.057 12.897,2.325 12.353,2.610 L12.353,23.013 C12.353,28.887 17.142,33.677 23.013,33.677 C28.885,33.677 33.673,28.887 33.673,23.013 C33.673,17.253 29.064,12.533 23.346,12.356 L23.346,8.356 C31.265,8.535 37.668,15.049 37.668,23.013 C37.668,31.089 31.085,37.675 23.013,37.675 C14.939,37.675 8.355,31.089 8.355,23.013 L8.355,5.262 C3.256,9.482 0.007,15.859 0.007,22.996 C0.007,35.700 10.301,45.999 23.000,45.999 C35.701,45.999 45.993,35.700 45.993,22.996 C45.993,10.292 35.701,-0.007 23.000,-0.007 Z"/>
</svg>