<svg 
 xmlns="http://www.w3.org/2000/svg"
 xmlns:xlink="http://www.w3.org/1999/xlink"
 width="125" height="46" viewBox="0 0 125 46">
<path fill-rule="evenodd"  fill="rgb(232, 239, 236)"
 d="M116.669,45.927 C113.936,45.927 111.764,44.453 110.012,42.627 C107.980,40.451 103.285,39.468 100.272,39.468 C97.049,39.468 91.443,40.802 89.411,43.049 C87.799,44.804 85.557,45.998 83.035,45.998 C78.410,45.998 74.696,42.276 74.696,37.642 C74.696,33.500 77.709,30.200 81.633,29.357 C84.576,28.725 88.430,24.512 90.112,21.704 C91.724,18.895 92.985,13.910 92.074,11.031 C91.864,10.189 91.653,9.276 91.653,8.363 C91.653,3.729 95.367,0.008 99.992,0.008 C104.617,0.008 108.331,3.729 108.331,8.363 C108.331,9.346 108.120,10.259 107.840,11.102 C106.929,14.051 108.541,19.527 110.152,22.336 C111.694,25.074 115.057,28.585 118.000,29.287 C121.924,30.270 125.008,33.429 125.008,37.572 C125.008,42.206 121.294,45.927 116.669,45.927 ZM106.859,24.231 C105.528,21.914 102.515,18.614 99.852,17.210 C97.329,18.544 94.596,21.353 93.265,23.670 C91.864,25.987 90.602,30.200 90.672,33.219 C93.265,34.763 97.610,35.746 100.272,35.746 C102.935,35.746 106.789,34.763 109.171,33.219 C109.311,30.340 108.260,26.548 106.859,24.231 ZM70.842,37.572 C70.842,42.206 67.128,45.927 62.504,45.927 C57.879,45.927 54.165,42.206 54.165,37.572 C54.165,35.114 55.216,32.868 56.968,31.323 C59.280,29.287 60.682,26.268 60.682,22.968 C60.682,19.668 59.210,16.648 56.968,14.612 C55.286,13.068 54.165,10.821 54.165,8.363 C54.165,3.729 57.879,0.008 62.504,0.008 C67.128,0.008 70.912,3.729 70.842,8.363 C70.842,10.821 69.721,13.068 68.039,14.612 C65.797,16.648 64.396,19.668 64.396,22.968 C64.396,26.268 65.797,29.287 68.039,31.323 C69.721,32.868 70.842,35.114 70.842,37.572 ZM41.973,45.927 C39.240,45.927 37.068,44.453 35.316,42.627 C33.284,40.451 28.589,39.468 25.576,39.468 C22.353,39.468 16.747,40.802 14.715,43.049 C13.103,44.804 10.861,45.998 8.338,45.998 C3.714,45.998 -0.000,42.276 -0.000,37.642 C-0.000,33.500 3.013,30.200 6.937,29.357 C9.880,28.725 13.734,24.512 15.345,21.774 C16.957,18.965 18.218,13.980 17.307,11.031 C17.097,10.189 16.887,9.276 16.887,8.363 C16.887,3.729 20.601,0.008 25.226,0.008 C29.850,0.008 33.564,3.729 33.634,8.363 C33.634,9.346 33.424,10.259 33.144,11.102 C32.233,14.051 33.844,19.527 35.456,22.336 C36.998,25.074 40.361,28.585 43.304,29.287 C47.228,30.270 50.311,33.429 50.311,37.572 C50.311,42.206 46.597,45.927 41.973,45.927 ZM32.163,24.231 C30.831,21.914 27.818,18.614 25.156,17.210 C22.633,18.544 19.900,21.353 18.569,23.670 C17.167,25.987 15.906,30.200 15.976,33.219 C18.569,34.763 22.913,35.746 25.576,35.746 C28.239,35.746 32.092,34.763 34.475,33.219 C34.615,30.340 33.564,26.548 32.163,24.231 Z"/>
</svg>