<svg 
 xmlns="http://www.w3.org/2000/svg"
 xmlns:xlink="http://www.w3.org/1999/xlink"
 width="140" height="37" viewBox="0 0 140 37">
<path fill-rule="evenodd"  fill="rgb(22, 209, 134)"
 d="M138.606,22.953 L138.606,16.031 C138.606,13.474 137.859,11.510 136.364,10.131 C135.018,8.887 133.291,8.261 131.185,8.261 C128.909,8.261 127.033,8.967 125.545,10.380 C124.071,11.786 123.329,13.454 123.329,15.379 C123.329,17.275 124.071,18.877 125.565,20.162 C127.059,21.453 128.936,22.099 131.185,22.099 C132.361,22.099 133.407,21.917 134.325,21.554 C135.243,21.198 136.180,20.612 137.131,19.805 L137.131,21.244 C136.350,21.883 135.480,22.375 134.528,22.737 C133.570,23.094 132.483,23.276 131.260,23.276 C128.786,23.276 126.645,22.577 124.831,21.177 C122.894,19.670 121.929,17.739 121.929,15.379 C121.929,13.192 122.751,11.301 124.389,9.707 C126.177,7.958 128.466,7.084 131.260,7.084 C133.686,7.084 135.691,7.770 137.281,9.149 C139.096,10.723 140.000,12.930 140.000,15.768 L140.000,22.953 L138.606,22.953 ZM118.477,16.273 L118.477,16.327 C118.477,18.816 117.669,20.666 116.057,21.870 C115.024,22.630 113.740,23.081 112.197,23.215 L112.197,29.270 C112.238,29.297 112.278,29.317 112.313,29.351 C112.842,29.828 113.624,30.736 113.393,31.712 C113.162,32.687 111.877,32.728 111.768,33.481 C111.776,32.613 111.877,31.537 111.463,32.546 C111.049,33.555 111.497,35.816 114.127,37.000 C114.127,37.000 111.783,36.723 110.681,35.304 C109.574,33.885 109.520,32.344 110.008,30.649 C110.185,30.023 110.478,29.620 110.803,29.377 L110.803,23.215 C108.771,23.215 107.215,22.603 106.141,21.379 C105.061,20.155 104.523,18.473 104.523,16.327 L104.523,16.138 C104.218,15.876 103.933,15.459 103.715,14.806 C103.057,12.815 102.954,10.938 103.933,9.089 C104.904,7.238 107.242,6.620 107.242,6.620 C104.708,8.369 104.484,11.167 105.000,12.338 L105.081,12.499 L105.333,12.499 C105.320,12.176 105.258,11.651 105.211,11.167 C105.394,12.069 106.699,11.961 107.032,13.118 C107.358,14.268 106.658,15.459 106.176,16.105 C106.107,16.199 106.019,16.273 105.924,16.334 C105.931,16.980 105.972,17.585 106.067,18.130 C106.161,18.721 106.400,19.314 106.780,19.919 C107.161,20.518 107.786,21.029 108.655,21.460 C109.520,21.883 110.470,22.099 111.504,22.099 C112.578,22.099 113.536,21.890 114.365,21.473 C115.201,21.056 115.833,20.491 116.275,19.771 C116.567,19.287 116.778,18.721 116.900,18.062 C117.022,17.410 117.083,16.791 117.083,16.205 C117.050,16.172 117.009,16.145 116.981,16.105 C116.499,15.459 115.799,14.268 116.125,13.118 C116.457,11.961 117.763,12.069 117.946,11.167 C117.906,11.651 117.838,12.176 117.831,12.499 L118.083,12.499 L118.163,12.338 C118.680,11.167 118.455,8.369 115.915,6.620 C115.915,6.620 118.259,7.238 119.231,9.089 C120.202,10.938 120.101,12.815 119.441,14.806 C119.190,15.573 118.843,16.031 118.477,16.273 ZM117.159,11.336 C117.159,11.336 116.050,12.075 115.961,12.217 C115.697,11.941 115.133,11.174 115.466,9.795 C115.799,8.415 116.159,8.147 116.159,8.147 C116.159,8.147 115.839,10.313 117.159,11.336 ZM105.999,11.336 C107.324,10.313 106.997,8.147 106.997,8.147 C106.997,8.147 107.365,8.415 107.698,9.795 C108.030,11.174 107.459,11.941 107.196,12.217 C107.113,12.075 105.999,11.336 105.999,11.336 ZM98.020,20.558 C97.334,21.326 96.518,21.937 95.560,22.395 C94.310,22.980 92.903,23.276 91.340,23.276 C88.546,23.276 86.257,22.415 84.469,20.686 C82.830,19.091 82.009,17.215 82.009,15.049 C82.009,13.495 82.416,12.089 83.218,10.817 C84.028,9.553 85.154,8.591 86.602,7.931 C87.234,7.649 87.949,7.441 88.731,7.292 C89.511,7.151 90.306,7.084 91.116,7.084 C92.216,7.084 93.283,7.231 94.310,7.541 C95.342,7.844 96.321,8.382 97.252,9.149 L97.252,10.589 C96.838,10.239 96.383,9.916 95.893,9.607 C95.207,9.190 94.486,8.867 93.745,8.624 C92.998,8.382 92.183,8.261 91.299,8.261 C90.443,8.261 89.709,8.308 89.097,8.409 C88.485,8.510 87.860,8.712 87.221,9.014 C86.025,9.559 85.087,10.367 84.414,11.423 C83.743,12.486 83.409,13.669 83.409,14.982 C83.409,16.865 84.102,18.493 85.495,19.872 C87.017,21.352 88.947,22.099 91.299,22.099 C92.577,22.099 93.739,21.850 94.792,21.345 C95.669,20.929 96.410,20.369 96.995,19.670 C97.701,18.816 98.191,17.780 98.461,16.555 C98.631,15.768 98.720,14.820 98.720,13.703 L98.720,-0.000 L100.114,-0.000 L100.114,13.703 C100.114,15.122 100.019,16.253 99.821,17.080 C99.502,18.439 98.904,19.596 98.020,20.558 ZM77.162,16.031 C77.162,13.474 76.416,11.510 74.921,10.131 C73.575,8.887 71.849,8.261 69.741,8.261 C67.464,8.261 65.589,8.967 64.107,10.380 C62.626,11.786 61.886,13.454 61.886,15.379 C61.886,17.275 62.633,18.877 64.121,20.162 C65.616,21.453 67.492,22.099 69.741,22.099 C70.917,22.099 71.964,21.917 72.882,21.554 C73.799,21.198 74.738,20.612 75.694,19.805 L75.694,21.244 C74.907,21.883 74.037,22.375 73.085,22.737 C72.126,23.094 71.039,23.276 69.817,23.276 C67.342,23.276 65.201,22.577 63.387,21.177 C61.457,19.670 60.486,17.739 60.486,15.379 C60.486,13.192 61.308,11.301 62.946,9.707 C64.733,7.958 67.023,7.084 69.817,7.084 C72.242,7.084 74.248,7.770 75.838,9.149 C77.652,10.723 78.556,12.930 78.556,15.768 L78.556,22.953 L77.162,22.953 L77.162,16.031 ZM54.940,20.558 C54.260,21.326 53.438,21.937 52.480,22.395 C51.236,22.980 49.822,23.276 48.259,23.276 C45.466,23.276 43.175,22.415 41.388,20.686 C39.750,19.091 38.928,17.215 38.928,15.049 C38.928,13.495 39.336,12.089 40.144,10.817 C40.946,9.553 42.075,8.591 43.522,7.931 C44.154,7.649 44.868,7.441 45.649,7.292 C46.431,7.151 47.233,7.084 48.035,7.084 C49.142,7.084 50.203,7.231 51.236,7.541 C52.262,7.844 53.241,8.382 54.171,9.149 L54.171,10.589 C53.757,10.239 53.301,9.916 52.813,9.607 C52.126,9.190 51.412,8.867 50.664,8.624 C49.918,8.382 49.102,8.261 48.225,8.261 C47.362,8.261 46.628,8.308 46.016,8.409 C45.405,8.510 44.779,8.712 44.147,9.014 C42.945,9.559 42.007,10.367 41.334,11.423 C40.661,12.486 40.328,13.669 40.328,14.982 C40.328,16.865 41.021,18.493 42.421,19.872 C43.937,21.352 45.874,22.099 48.225,22.099 C49.496,22.099 50.658,21.850 51.711,21.345 C52.588,20.929 53.330,20.369 53.913,19.670 C54.620,18.816 55.116,17.780 55.381,16.555 C55.551,15.768 55.639,14.820 55.639,13.703 L55.639,-0.000 L57.033,-0.000 L57.033,13.703 C57.033,15.122 56.937,16.253 56.741,17.080 C56.421,18.439 55.824,19.596 54.940,20.558 ZM34.082,16.031 C34.082,13.474 33.335,11.510 31.840,10.131 C30.494,8.887 28.768,8.261 26.661,8.261 C24.384,8.261 22.509,8.967 21.027,10.380 C19.546,11.786 18.804,13.454 18.804,15.379 C18.804,17.275 19.553,18.877 21.041,20.162 C22.536,21.453 24.411,22.099 26.661,22.099 C27.837,22.099 28.883,21.917 29.801,21.554 C30.725,21.198 31.656,20.612 32.615,19.805 L32.615,21.244 C31.826,21.883 30.963,22.375 30.005,22.737 C29.053,23.094 27.959,23.276 26.735,23.276 C24.262,23.276 22.121,22.577 20.307,21.177 C18.376,19.670 17.412,17.739 17.412,15.379 C17.412,13.192 18.227,11.301 19.872,9.707 C21.659,7.958 23.943,7.084 26.735,7.084 C29.162,7.084 31.167,7.770 32.757,9.149 C34.572,10.723 35.476,12.930 35.476,15.768 L35.476,22.953 L34.082,22.953 L34.082,16.031 ZM17.914,30.487 L17.942,30.487 C18.098,30.212 18.288,30.016 18.526,29.909 C18.757,29.801 19.049,29.748 19.389,29.748 L19.491,29.748 C19.532,29.748 19.566,29.748 19.593,29.754 L19.593,30.535 L19.410,30.514 L19.226,30.508 C18.811,30.508 18.492,30.609 18.261,30.804 C18.030,31.005 17.914,31.308 17.914,31.719 L17.914,35.123 L17.099,35.123 L17.099,29.822 L17.914,29.822 L17.914,30.487 ZM7.679,23.215 L7.679,29.839 C7.936,29.905 8.148,30.007 8.305,30.151 C8.597,30.413 8.740,30.777 8.740,31.241 L7.890,31.342 L7.890,31.328 C7.931,31.053 7.856,30.817 7.673,30.636 C7.489,30.454 7.238,30.360 6.918,30.360 C6.715,30.360 6.531,30.400 6.368,30.481 C6.198,30.555 6.076,30.682 5.987,30.864 C5.912,30.999 5.872,31.227 5.858,31.537 C5.845,31.853 5.837,32.223 5.824,32.654 L5.851,33.461 C5.858,33.717 5.885,33.905 5.933,34.040 C6.001,34.208 6.116,34.342 6.280,34.443 C6.436,34.544 6.646,34.591 6.905,34.591 C7.224,34.591 7.469,34.517 7.646,34.355 C7.822,34.201 7.903,33.958 7.890,33.636 L8.740,33.757 C8.712,34.719 8.087,35.197 6.857,35.197 C6.592,35.197 6.354,35.170 6.157,35.116 C5.953,35.062 5.783,34.988 5.648,34.894 C5.505,34.799 5.396,34.699 5.307,34.584 C5.226,34.471 5.165,34.349 5.131,34.215 C5.104,34.134 5.077,34.019 5.063,33.891 C5.043,33.757 5.029,33.616 5.029,33.454 L5.015,32.990 L5.009,32.539 L5.015,31.968 C5.015,31.773 5.029,31.591 5.050,31.416 C5.063,31.241 5.083,31.086 5.110,30.945 C5.131,30.804 5.165,30.696 5.206,30.609 C5.328,30.346 5.525,30.145 5.804,29.990 C5.939,29.916 6.100,29.862 6.280,29.823 L6.280,23.215 C4.248,23.215 2.691,22.603 1.617,21.379 C0.537,20.155 -0.000,18.473 -0.000,16.327 L-0.000,7.407 L1.393,7.407 L1.393,16.199 C1.393,16.899 1.441,17.538 1.543,18.130 C1.638,18.721 1.875,19.314 2.256,19.919 C2.637,20.518 3.262,21.029 4.132,21.460 C5.002,21.883 5.947,22.099 6.980,22.099 C8.053,22.099 9.011,21.890 9.841,21.473 C10.677,21.056 11.309,20.491 11.750,19.771 C12.049,19.287 12.253,18.721 12.375,18.062 C12.498,17.410 12.559,16.785 12.559,16.199 L12.559,7.407 L13.959,7.407 L13.959,16.327 C13.959,18.816 13.151,20.666 11.533,21.870 C10.507,22.630 9.216,23.081 7.679,23.215 ZM27.552,31.436 C27.571,31.268 27.592,31.107 27.612,30.972 C27.633,30.830 27.667,30.709 27.714,30.622 C27.837,30.353 28.041,30.145 28.319,29.990 C28.598,29.835 28.985,29.754 29.475,29.754 C30.018,29.754 30.433,29.862 30.739,30.077 C31.038,30.286 31.215,30.589 31.268,30.972 L31.289,31.208 L31.296,31.449 L31.296,32.633 L28.313,32.633 L28.326,32.835 L28.326,33.044 C28.326,33.232 28.340,33.421 28.353,33.616 C28.367,33.810 28.394,33.952 28.442,34.053 C28.585,34.417 28.903,34.591 29.413,34.591 C29.753,34.591 30.012,34.517 30.168,34.349 C30.331,34.187 30.426,33.978 30.440,33.710 L31.282,33.838 C31.235,34.282 31.059,34.618 30.739,34.846 C30.419,35.082 29.964,35.197 29.386,35.197 C29.108,35.197 28.863,35.170 28.659,35.109 C28.462,35.055 28.292,34.981 28.149,34.894 C28.014,34.799 27.898,34.699 27.816,34.577 C27.728,34.457 27.667,34.335 27.633,34.215 C27.606,34.134 27.585,34.019 27.565,33.891 C27.544,33.757 27.538,33.616 27.531,33.454 L27.518,32.990 L27.511,32.539 L27.518,31.974 C27.524,31.793 27.531,31.611 27.552,31.436 ZM30.460,32.095 L30.460,31.530 C30.460,31.382 30.453,31.234 30.426,31.093 C30.406,30.951 30.358,30.824 30.283,30.716 C30.202,30.609 30.100,30.521 29.964,30.460 C29.828,30.393 29.645,30.360 29.420,30.360 C29.223,30.360 29.040,30.393 28.870,30.467 C28.700,30.542 28.564,30.669 28.462,30.858 C28.408,30.972 28.374,31.133 28.367,31.342 C28.353,31.550 28.340,31.800 28.326,32.095 L30.460,32.095 ZM39.873,32.532 C40.015,32.371 40.199,32.237 40.430,32.136 C40.667,32.028 40.967,31.974 41.334,31.974 L42.503,31.974 L42.503,31.194 C42.503,30.945 42.428,30.736 42.285,30.589 C42.142,30.434 41.864,30.360 41.456,30.360 C41.259,30.360 41.056,30.407 40.844,30.494 C40.634,30.582 40.498,30.736 40.430,30.938 L39.655,30.750 C39.771,30.440 39.988,30.199 40.301,30.023 C40.613,29.848 41.008,29.754 41.490,29.754 C42.075,29.754 42.523,29.862 42.842,30.077 C43.161,30.286 43.318,30.656 43.318,31.187 L43.318,35.123 L42.489,35.123 L42.489,34.652 L42.476,34.652 C42.278,34.874 42.054,35.015 41.810,35.082 C41.565,35.156 41.300,35.190 41.021,35.190 C40.736,35.190 40.498,35.143 40.308,35.055 C40.111,34.968 39.954,34.860 39.839,34.719 C39.716,34.577 39.628,34.417 39.574,34.241 C39.519,34.059 39.492,33.872 39.492,33.676 C39.492,33.474 39.519,33.279 39.574,33.077 C39.628,32.875 39.730,32.694 39.873,32.532 ZM40.546,34.308 C40.702,34.477 40.967,34.564 41.341,34.564 C41.694,34.564 41.979,34.483 42.183,34.322 C42.394,34.168 42.503,33.939 42.503,33.636 L42.503,32.559 L41.524,32.559 C41.191,32.559 40.899,32.640 40.667,32.802 C40.430,32.963 40.314,33.246 40.314,33.649 C40.314,33.918 40.389,34.140 40.546,34.308 ZM52.187,28.456 L52.996,28.456 L52.996,29.822 L53.933,29.822 L53.933,30.346 L52.996,30.346 L52.996,33.784 C52.996,34.053 53.057,34.241 53.186,34.349 C53.308,34.463 53.513,34.517 53.785,34.517 L53.961,34.517 L53.961,35.123 L53.560,35.123 C53.051,35.123 52.689,35.008 52.487,34.779 C52.275,34.551 52.173,34.269 52.173,33.939 L52.173,30.346 L51.453,30.346 L51.453,29.822 L52.187,29.822 L52.187,28.456 ZM63.149,28.530 L62.320,28.530 L62.320,27.837 L63.149,27.837 L63.149,28.530 ZM63.136,35.123 L62.320,35.123 L62.320,29.822 L63.136,29.822 L63.136,35.123 ZM71.712,31.429 C71.732,31.255 71.754,31.100 71.773,30.958 C71.795,30.817 71.828,30.703 71.876,30.622 C71.991,30.360 72.196,30.151 72.487,29.996 C72.780,29.835 73.167,29.754 73.649,29.754 C74.152,29.754 74.539,29.835 74.818,29.996 C75.090,30.151 75.280,30.346 75.389,30.589 C75.470,30.770 75.525,31.012 75.546,31.295 C75.566,31.584 75.579,31.873 75.579,32.162 L75.579,32.687 C75.579,32.882 75.572,33.071 75.566,33.266 C75.559,33.454 75.539,33.656 75.511,33.872 C75.478,34.140 75.389,34.355 75.261,34.530 C75.130,34.699 74.975,34.833 74.790,34.934 C74.607,35.028 74.404,35.096 74.193,35.136 C73.976,35.176 73.765,35.197 73.555,35.197 C73.010,35.197 72.603,35.103 72.331,34.914 C72.065,34.719 71.882,34.490 71.795,34.215 C71.767,34.134 71.747,34.019 71.725,33.891 C71.706,33.757 71.699,33.616 71.686,33.454 C71.679,33.306 71.671,33.145 71.671,32.990 L71.671,32.539 L71.679,31.968 C71.686,31.779 71.699,31.598 71.712,31.429 ZM72.494,32.735 C72.494,33.030 72.494,33.293 72.501,33.522 C72.514,33.750 72.548,33.925 72.603,34.046 C72.732,34.409 73.078,34.591 73.629,34.591 C73.895,34.591 74.111,34.530 74.295,34.409 C74.478,34.289 74.601,34.127 74.662,33.918 C74.690,33.791 74.716,33.595 74.729,33.346 C74.751,33.098 74.757,32.835 74.757,32.566 L74.751,32.089 L74.738,31.618 C74.738,31.463 74.723,31.328 74.703,31.208 C74.690,31.086 74.662,30.992 74.642,30.931 C74.567,30.744 74.444,30.602 74.261,30.508 C74.084,30.407 73.873,30.360 73.629,30.360 C73.425,30.360 73.235,30.393 73.058,30.467 C72.875,30.542 72.738,30.669 72.636,30.850 C72.575,30.985 72.535,31.180 72.521,31.443 C72.501,31.712 72.494,32.028 72.494,32.391 L72.494,32.735 ZM84.727,30.380 L84.754,30.380 C84.910,30.178 85.108,30.023 85.353,29.915 C85.597,29.808 85.869,29.754 86.167,29.754 C86.440,29.754 86.677,29.795 86.868,29.862 C87.065,29.936 87.221,30.030 87.344,30.158 C87.472,30.279 87.561,30.427 87.622,30.595 C87.677,30.770 87.711,30.958 87.711,31.160 L87.711,35.123 L86.861,35.123 L86.861,31.349 C86.861,31.080 86.793,30.858 86.650,30.682 C86.507,30.508 86.250,30.427 85.869,30.427 C85.502,30.427 85.224,30.521 85.019,30.723 C84.815,30.918 84.714,31.160 84.714,31.436 L84.714,35.123 L83.898,35.123 L83.898,29.822 L84.727,29.822 L84.727,30.380 ZM97.102,34.355 C97.280,34.524 97.531,34.605 97.844,34.591 C98.237,34.591 98.509,34.517 98.653,34.369 C98.801,34.215 98.876,33.992 98.876,33.696 C98.876,33.562 98.864,33.441 98.836,33.340 C98.809,33.239 98.755,33.151 98.673,33.071 C98.591,32.990 98.483,32.923 98.339,32.855 C98.191,32.789 98.006,32.722 97.775,32.654 C97.422,32.546 97.143,32.431 96.919,32.324 C96.701,32.209 96.531,32.095 96.410,31.968 C96.287,31.846 96.207,31.719 96.165,31.584 C96.117,31.443 96.097,31.302 96.097,31.147 C96.097,30.736 96.239,30.400 96.538,30.137 C96.831,29.876 97.287,29.748 97.905,29.748 C98.524,29.748 98.979,29.869 99.278,30.111 C99.570,30.353 99.720,30.703 99.720,31.147 L98.864,31.241 C98.876,30.938 98.795,30.716 98.611,30.568 C98.428,30.421 98.191,30.346 97.897,30.346 C97.707,30.346 97.544,30.373 97.415,30.421 C97.287,30.467 97.184,30.528 97.117,30.602 C97.041,30.676 96.995,30.763 96.960,30.858 C96.926,30.951 96.912,31.046 96.912,31.140 C96.912,31.241 96.926,31.328 96.960,31.416 C96.995,31.496 97.056,31.577 97.150,31.651 C97.239,31.725 97.368,31.800 97.538,31.873 C97.701,31.947 97.919,32.014 98.184,32.089 C98.509,32.190 98.775,32.291 98.979,32.398 C99.175,32.512 99.332,32.627 99.434,32.761 C99.535,32.889 99.604,33.024 99.631,33.178 C99.666,33.333 99.679,33.495 99.679,33.676 C99.679,34.121 99.543,34.490 99.264,34.773 C98.986,35.055 98.524,35.197 97.871,35.197 C96.647,35.197 96.028,34.732 96.002,33.810 L96.845,33.704 C96.838,33.972 96.919,34.195 97.102,34.355 Z"/>
</svg>