<svg 
 xmlns="http://www.w3.org/2000/svg"
 xmlns:xlink="http://www.w3.org/1999/xlink"
 viewBox="0 0 42 42">
<path fill-rule="evenodd"  fill="rgb(22, 209, 134)"
 d="M38.352,0.296 C37.872,-0.135 37.136,-0.093 36.706,0.387 C36.276,0.866 36.317,1.601 36.797,2.031 C36.821,2.056 39.650,4.668 39.675,7.537 C39.683,8.651 39.278,9.668 38.426,10.627 C38.120,10.429 37.764,10.107 37.582,9.635 C37.243,8.725 37.582,7.403 38.567,5.808 C38.906,5.263 38.732,4.543 38.186,4.205 C37.640,3.866 36.921,4.039 36.582,4.585 C35.167,6.866 34.779,8.858 35.416,10.502 C35.821,11.528 36.573,12.231 37.276,12.661 C37.119,12.983 36.855,13.380 36.400,13.776 C35.258,14.777 32.843,15.866 27.782,15.586 L27.782,14.520 C27.782,11.975 26.367,9.751 24.275,8.594 L24.275,6.594 C24.275,5.950 23.754,5.428 23.109,5.428 C22.464,5.428 21.943,5.950 21.943,6.594 L21.943,7.817 C21.637,7.776 20.363,7.776 20.049,7.817 L20.049,6.594 C20.049,5.950 19.528,5.428 18.883,5.428 C18.237,5.428 17.716,5.950 17.716,6.594 L17.716,8.594 C15.632,9.751 14.218,11.975 14.218,14.520 L14.218,15.586 C9.156,15.866 6.741,14.777 5.600,13.776 C5.145,13.380 4.889,12.983 4.723,12.661 C5.426,12.231 6.187,11.528 6.584,10.502 C7.221,8.858 6.832,6.875 5.418,4.585 C5.079,4.039 4.359,3.866 3.814,4.205 C3.268,4.543 3.094,5.263 3.433,5.808 C4.417,7.403 4.756,8.725 4.417,9.635 C4.235,10.107 3.888,10.429 3.574,10.627 C2.738,9.668 2.325,8.651 2.333,7.537 C2.350,4.668 5.178,2.056 5.211,2.031 C5.691,1.601 5.732,0.866 5.302,0.387 C4.872,-0.093 4.136,-0.135 3.648,0.296 C3.508,0.427 0.026,3.584 0.001,7.519 C-0.016,9.388 0.745,11.090 2.234,12.585 C2.375,13.247 2.805,14.421 4.053,15.529 C5.898,17.148 8.792,17.966 12.671,17.966 C13.168,17.966 13.689,17.950 14.218,17.917 L14.218,20.281 L10.744,20.281 L7.775,18.463 C7.229,18.123 6.510,18.297 6.171,18.851 C5.832,19.397 6.005,20.116 6.559,20.456 L9.810,22.447 C9.992,22.562 10.207,22.620 10.422,22.620 L14.226,22.620 L14.226,25.157 L10.753,25.157 L7.784,23.339 C7.238,23.000 6.518,23.175 6.179,23.728 C5.840,24.273 6.014,24.993 6.568,25.331 L9.818,27.323 C10.000,27.439 10.215,27.497 10.430,27.497 L14.251,27.497 C14.417,30.645 16.732,33.225 19.759,33.795 L19.759,34.754 C19.759,36.985 18.692,39.416 16.906,39.622 C14.028,39.944 11.869,38.638 10.298,35.630 C10.000,35.060 9.297,34.837 8.726,35.135 C8.156,35.432 7.932,36.134 8.230,36.704 C11.489,42.871 16.823,41.970 17.171,41.928 C20.371,41.574 22.100,37.962 22.100,34.747 L22.100,33.820 C25.210,33.324 27.625,30.704 27.790,27.497 L31.545,27.497 C31.760,27.497 31.975,27.439 32.157,27.323 L35.407,25.331 C35.953,24.993 36.127,24.273 35.796,23.728 C35.457,23.182 34.746,23.008 34.191,23.339 L31.222,25.157 L27.782,25.157 L27.782,22.620 L31.520,22.620 C31.735,22.620 31.950,22.562 32.132,22.447 L35.382,20.456 C35.928,20.116 36.102,19.397 35.771,18.851 C35.432,18.306 34.721,18.131 34.167,18.463 L31.198,20.281 L27.782,20.281 L27.782,17.917 C28.311,17.943 28.832,17.966 29.328,17.966 C33.207,17.966 36.102,17.148 37.946,15.529 C39.203,14.429 39.625,13.247 39.766,12.585 C41.254,11.090 42.015,9.396 41.999,7.519 C41.974,3.584 38.492,0.427 38.352,0.296 ZM25.449,27.126 C25.449,29.579 23.456,31.572 21.000,31.572 C18.544,31.572 16.550,29.579 16.550,27.126 L16.550,14.520 C16.550,12.065 18.544,10.073 21.000,10.073 C23.456,10.073 25.449,12.065 25.449,14.520 L25.449,27.126 Z"/>
</svg>