<svg 
 xmlns="http://www.w3.org/2000/svg"
 xmlns:xlink="http://www.w3.org/1999/xlink"
 width="0.529cm" height="1.094cm">
<path fill-rule="evenodd"  fill="rgb(22, 209, 134)"
 d="M12.394,16.132 C11.290,16.980 9.903,17.483 8.252,17.632 L8.252,25.022 C8.528,25.095 8.756,25.209 8.924,25.370 C9.239,25.662 9.392,26.068 9.392,26.586 L8.479,26.698 L8.479,26.683 C8.522,26.375 8.442,26.113 8.245,25.910 C8.048,25.707 7.777,25.603 7.434,25.603 C7.215,25.603 7.018,25.647 6.843,25.737 C6.660,25.820 6.529,25.962 6.434,26.165 C6.354,26.315 6.310,26.571 6.295,26.915 C6.281,27.268 6.273,27.681 6.259,28.161 L6.288,29.062 C6.295,29.347 6.324,29.557 6.375,29.707 C6.449,29.895 6.573,30.045 6.748,30.158 C6.916,30.270 7.142,30.323 7.420,30.323 C7.763,30.323 8.026,30.240 8.216,30.059 C8.405,29.887 8.493,29.617 8.479,29.257 L9.392,29.392 C9.362,30.465 8.690,30.998 7.369,30.998 C7.084,30.998 6.828,30.968 6.617,30.908 C6.397,30.848 6.215,30.765 6.069,30.660 C5.916,30.555 5.798,30.443 5.703,30.315 C5.616,30.188 5.551,30.052 5.514,29.903 C5.484,29.812 5.456,29.685 5.441,29.542 C5.419,29.392 5.404,29.235 5.404,29.054 L5.390,28.536 L5.382,28.034 L5.390,27.396 C5.390,27.179 5.404,26.975 5.426,26.780 C5.441,26.586 5.463,26.413 5.492,26.255 C5.514,26.098 5.551,25.978 5.594,25.880 C5.725,25.587 5.937,25.363 6.237,25.189 C6.383,25.108 6.555,25.047 6.748,25.003 L6.748,17.632 C4.564,17.632 2.892,16.950 1.738,15.584 C0.577,14.218 -0.000,12.342 -0.000,9.949 L-0.000,-0.002 L1.497,-0.002 L1.497,9.806 C1.497,10.586 1.548,11.299 1.658,11.960 C1.760,12.620 2.015,13.280 2.424,13.955 C2.834,14.623 3.505,15.194 4.441,15.674 C5.375,16.147 6.390,16.387 7.500,16.387 C8.654,16.387 9.684,16.154 10.575,15.689 C11.473,15.223 12.152,14.594 12.627,13.790 C12.948,13.250 13.167,12.620 13.298,11.884 C13.430,11.157 13.496,10.459 13.496,9.806 L13.496,-0.002 L15.000,-0.002 L15.000,9.949 C15.000,12.725 14.132,14.789 12.394,16.132 Z"/>
</svg>