<svg 
 xmlns="http://www.w3.org/2000/svg"
 xmlns:xlink="http://www.w3.org/1999/xlink"
 width="1.411cm" height="0.847cm">
<path fill-rule="evenodd"  fill="rgb(84, 96, 91)"
 d="M40.000,3.062 L40.000,3.879 L21.403,13.019 C20.519,13.427 19.480,13.427 18.597,13.019 L-0.000,3.879 L-0.000,3.062 C-0.000,1.376 1.403,-0.002 3.117,-0.002 L36.883,-0.002 C38.597,-0.002 40.000,1.376 40.000,3.062 ZM20.000,15.714 C19.273,15.714 18.545,15.561 17.922,15.255 L-0.000,6.420 L-0.000,20.934 C-0.000,22.618 1.403,23.997 3.117,23.997 L36.883,23.997 C38.597,23.997 40.000,22.618 40.000,20.934 L40.000,6.420 L22.078,15.255 C21.454,15.561 20.727,15.714 20.000,15.714 Z"/>
</svg>