<?xml version="1.0" encoding="utf-8"?>
<!-- Generator: Adobe Illustrator 21.1.0, SVG Export Plug-In . SVG Version: 6.00 Build 0)  -->
<svg version="1.1" id="Layer_1" xmlns="http://www.w3.org/2000/svg" xmlns:xlink="http://www.w3.org/1999/xlink" x="0px" y="0px"
	 viewBox="0 0 128.7 355.7" style="enable-background:new 0 0 128.7 355.7;" xml:space="preserve" width="128.7" height="355.7">
<style type="text/css">
	.st0{fill:#1AD58A;}
	.st1{fill:#F7F7F7;}
</style>
<title>Asset 1</title>
<g id="Layer_2">
	<g id="Layer_1-2">
		<ellipse transform="matrix(0.7071 -0.7071 0.7071 0.7071 7.5393 35.7869)" class="st0" cx="47" cy="8.8" rx="1" ry="1"/>
		<ellipse transform="matrix(0.7071 -0.7071 0.7071 0.7071 5.2284 39.9561)" class="st0" cx="50.8" cy="13.7" rx="1" ry="1"/>
		<ellipse transform="matrix(0.7071 -0.7071 0.7071 0.7071 2.1231 43.3781)" class="st0" cx="53.4" cy="19.1" rx="1" ry="1"/>
		<ellipse transform="matrix(0.7071 -0.7071 0.7071 0.7071 -1.5945 45.987)" class="st0" cx="54.7" cy="24.9" rx="1" ry="1"/>
		<ellipse transform="matrix(0.7071 -0.7071 0.7071 0.7071 -5.7731 47.717)" class="st0" cx="54.7" cy="30.8" rx="1" ry="1"/>
		<ellipse transform="matrix(0.7071 -0.7071 0.7071 0.7071 -10.2619 48.501)" class="st0" cx="53.4" cy="36.6" rx="1" ry="1"/>
		<ellipse transform="matrix(0.7071 -0.7071 0.7071 0.7071 -14.873 48.279)" class="st0" cx="50.8" cy="42.1" rx="1" ry="1"/>
		<ellipse transform="matrix(0.7071 -0.7071 0.7071 0.7071 -19.4569 46.9669)" class="st0" cx="47" cy="47" rx="1" ry="1"/>
		<ellipse transform="matrix(0.7071 -0.7071 0.7071 0.7071 -23.619 44.653)" class="st0" cx="42.1" cy="50.8" rx="1" ry="1"/>
		<ellipse transform="matrix(0.7071 -0.7071 0.7071 0.7071 -27.0481 41.5448)" class="st0" cx="36.6" cy="53.4" rx="1" ry="1"/>
		<ellipse transform="matrix(0.7071 -0.7071 0.7071 0.7071 -29.6641 37.8301)" class="st0" cx="30.8" cy="54.7" rx="1" ry="1"/>
		<ellipse transform="matrix(0.7071 -0.7071 0.7071 0.7071 -31.3941 33.6516)" class="st0" cx="24.9" cy="54.7" rx="1" ry="1"/>
		<ellipse transform="matrix(0.7071 -0.7071 0.7071 0.7071 -32.1781 29.1628)" class="st0" cx="19.1" cy="53.4" rx="1" ry="1"/>
		<ellipse transform="matrix(0.7071 -0.7071 0.7071 0.7071 -31.949 24.5546)" class="st0" cx="13.7" cy="50.8" rx="1" ry="1"/>
		<ellipse transform="matrix(0.7071 -0.7071 0.7071 0.7071 -30.6369 19.9707)" class="st0" cx="8.8" cy="47" rx="1" ry="1"/>
		<ellipse transform="matrix(0.7071 -0.7071 0.7071 0.7071 -28.323 15.8027)" class="st0" cx="4.9" cy="42.1" rx="1" ry="1"/>
		<ellipse transform="matrix(0.7071 -0.7071 0.7071 0.7071 -25.2219 12.3765)" class="st0" cx="2.3" cy="36.6" rx="1" ry="1"/>
		<ellipse transform="matrix(0.7071 -0.7071 0.7071 0.7071 -21.5001 9.7635)" class="st0" cx="1" cy="30.8" rx="1" ry="1"/>
		<ellipse transform="matrix(0.7071 -0.7071 0.7071 0.7071 -17.3145 8.0306)" class="st0" cx="1" cy="24.9" rx="1" ry="1"/>
		<ellipse transform="matrix(0.7071 -0.7071 0.7071 0.7071 -12.8398 7.2465)" class="st0" cx="2.3" cy="19.1" rx="1" ry="1"/>
		<ellipse transform="matrix(0.7071 -0.7071 0.7071 0.7071 -8.2316 7.4756)" class="st0" cx="4.9" cy="13.7" rx="1" ry="1"/>
		<ellipse transform="matrix(0.7071 -0.7071 0.7071 0.7071 -3.6407 8.7907)" class="st0" cx="8.8" cy="8.8" rx="1" ry="1"/>
		<ellipse transform="matrix(0.7071 -0.7071 0.7071 0.7071 0.5344 11.1016)" class="st0" cx="13.7" cy="4.9" rx="1" ry="1"/>
		<ellipse transform="matrix(0.7071 -0.7071 0.7071 0.7071 3.9535 14.1998)" class="st0" cx="19.1" cy="2.3" rx="1" ry="1"/>
		<ellipse transform="matrix(0.7071 -0.7071 0.7071 0.7071 6.5594 17.9245)" class="st0" cx="24.9" cy="1" rx="1" ry="1"/>
		<ellipse transform="matrix(0.7071 -0.7071 0.7071 0.7071 8.2924 22.1101)" class="st0" cx="30.8" cy="1" rx="1" ry="1"/>
		<ellipse transform="matrix(0.7071 -0.7071 0.7071 0.7071 9.0764 26.5848)" class="st0" cx="36.6" cy="2.3" rx="1" ry="1"/>
		<ellipse transform="matrix(0.7071 -0.7071 0.7071 0.7071 8.8544 31.1959)" class="st0" cx="42.1" cy="4.9" rx="1" ry="1"/>
		<ellipse transform="matrix(0.7071 -0.7071 0.7071 0.7071 7.5393 35.7869)" class="st0" cx="47" cy="8.8" rx="1" ry="1"/>
		<ellipse transform="matrix(0.7071 -0.7071 0.7071 0.7071 -133.5522 94.234)" class="st0" cx="47" cy="208.3" rx="1" ry="1"/>
		<ellipse transform="matrix(0.7071 -0.7071 0.7071 0.7071 -135.8732 98.399)" class="st0" cx="50.8" cy="213.2" rx="1" ry="1"/>
		<ellipse transform="matrix(0.7071 -0.7071 0.7071 0.7071 -138.9714 101.8181)" class="st0" cx="53.4" cy="218.7" rx="1" ry="1"/>
		<ellipse transform="matrix(0.7071 -0.7071 0.7071 0.7071 -142.686 104.4341)" class="st0" cx="54.7" cy="224.5" rx="1" ry="1"/>
		<ellipse transform="matrix(0.7071 -0.7071 0.7071 0.7071 -146.8646 106.1641)" class="st0" cx="54.7" cy="230.4" rx="1" ry="1"/>
		<ellipse transform="matrix(0.7071 -0.7071 0.7071 0.7071 -151.3534 106.9481)" class="st0" cx="53.4" cy="236.2" rx="1" ry="1"/>
		<ellipse transform="matrix(0.7071 -0.7071 0.7071 0.7071 -155.9675 106.719)" class="st0" cx="50.8" cy="241.6" rx="1" ry="1"/>
		<ellipse transform="matrix(0.7071 -0.7071 0.7071 0.7071 -160.5484 105.414)" class="st0" cx="47" cy="246.5" rx="1" ry="1"/>
		<ellipse transform="matrix(0.7071 -0.7071 0.7071 0.7071 -164.7206 103.0959)" class="st0" cx="42.1" cy="250.4" rx="1" ry="1"/>
		<ellipse transform="matrix(0.7071 -0.7071 0.7071 0.7071 -168.1396 99.9919)" class="st0" cx="36.6" cy="253" rx="1" ry="1"/>
		<ellipse transform="matrix(0.7071 -0.7071 0.7071 0.7071 -170.7585 96.2701)" class="st0" cx="30.8" cy="254.3" rx="1" ry="1"/>
		<ellipse transform="matrix(0.7071 -0.7071 0.7071 0.7071 -172.4885 92.0915)" class="st0" cx="24.9" cy="254.3" rx="1" ry="1"/>
		<ellipse transform="matrix(0.7071 -0.7071 0.7071 0.7071 -173.2696 87.6098)" class="st0" cx="19.1" cy="253" rx="1" ry="1"/>
		<ellipse transform="matrix(0.7071 -0.7071 0.7071 0.7071 -173.0406 83.0016)" class="st0" cx="13.7" cy="250.4" rx="1" ry="1"/>
		<ellipse transform="matrix(0.7071 -0.7071 0.7071 0.7071 -171.7314 78.4107)" class="st0" cx="8.8" cy="246.5" rx="1" ry="1"/>
		<ellipse transform="matrix(0.7071 -0.7071 0.7071 0.7071 -169.4175 74.2427)" class="st0" cx="4.9" cy="241.6" rx="1" ry="1"/>
		<ellipse transform="matrix(0.7071 -0.7071 0.7071 0.7071 -166.3163 70.8165)" class="st0" cx="2.3" cy="236.2" rx="1" ry="1"/>
		<ellipse transform="matrix(0.7071 -0.7071 0.7071 0.7071 -162.5917 68.2105)" class="st0" cx="1" cy="230.4" rx="1" ry="1"/>
		<ellipse transform="matrix(0.7071 -0.7071 0.7071 0.7071 -158.4131 66.4806)" class="st0" cx="1" cy="224.5" rx="1" ry="1"/>
		<ellipse transform="matrix(0.7071 -0.7071 0.7071 0.7071 -153.9343 65.6865)" class="st0" cx="2.3" cy="218.7" rx="1" ry="1"/>
		<ellipse transform="matrix(0.7071 -0.7071 0.7071 0.7071 -149.3232 65.9227)" class="st0" cx="4.9" cy="213.2" rx="1" ry="1"/>
		<ellipse transform="matrix(0.7071 -0.7071 0.7071 0.7071 -144.7351 67.2307)" class="st0" cx="8.8" cy="208.3" rx="1" ry="1"/>
		<ellipse transform="matrix(0.7071 -0.7071 0.7071 0.7071 -140.5672 69.5445)" class="st0" cx="13.7" cy="204.5" rx="1" ry="1"/>
		<ellipse transform="matrix(0.7071 -0.7071 0.7071 0.7071 -137.1452 72.6498)" class="st0" cx="19.1" cy="201.9" rx="1" ry="1"/>
		<ellipse transform="matrix(0.7071 -0.7071 0.7071 0.7071 -134.5321 76.3716)" class="st0" cx="24.9" cy="200.6" rx="1" ry="1"/>
		<ellipse transform="matrix(0.7071 -0.7071 0.7071 0.7071 -132.8021 80.5501)" class="st0" cx="30.8" cy="200.6" rx="1" ry="1"/>
		<ellipse transform="matrix(0.7071 -0.7071 0.7071 0.7071 -132.0152 85.0319)" class="st0" cx="36.6" cy="201.9" rx="1" ry="1"/>
		<ellipse transform="matrix(0.7071 -0.7071 0.7071 0.7071 -132.2372 89.643)" class="st0" cx="42.1" cy="204.4" rx="1" ry="1"/>
		<ellipse transform="matrix(0.7071 -0.7071 0.7071 0.7071 -133.5522 94.234)" class="st0" cx="47" cy="208.3" rx="1" ry="1"/>
		<circle class="st0" cx="27.5" cy="71.8" r="1"/>
		<circle class="st0" cx="27.5" cy="65.9" r="1"/>
		<circle class="st0" cx="28" cy="78" r="1"/>
		<circle class="st0" cx="29.4" cy="83.8" r="1"/>
		<circle class="st0" cx="31.7" cy="89.3" r="1"/>
		<circle class="st0" cx="34.8" cy="94.2" r="1"/>
		<circle class="st0" cx="38.6" cy="98.7" r="1"/>
		<circle class="st0" cx="43" cy="102.5" r="1"/>
		<circle class="st0" cx="48" cy="105.6" r="1"/>
		<circle class="st0" cx="56.8" cy="110.3" r="3"/>
		<circle class="st0" cx="28" cy="265.5" r="1"/>
		<circle class="st0" cx="29.4" cy="271.3" r="1"/>
		<circle class="st0" cx="31.7" cy="276.8" r="1"/>
		<circle class="st0" cx="34.8" cy="281.7" r="1"/>
		<circle class="st0" cx="38.6" cy="286.2" r="1"/>
		<circle class="st0" cx="43" cy="290" r="1"/>
		<circle class="st0" cx="48" cy="293" r="1"/>
		<circle class="st0" cx="56.8" cy="297.8" r="3"/>
		<circle class="st0" cx="58.6" cy="153.1" r="1"/>
		<circle class="st0" cx="52.8" cy="154.5" r="1"/>
		<circle class="st0" cx="47.3" cy="156.8" r="1"/>
		<circle class="st0" cx="42.3" cy="159.9" r="1"/>
		<circle class="st0" cx="37.9" cy="163.7" r="1"/>
		<circle class="st0" cx="34.1" cy="168.2" r="1"/>
		<circle class="st0" cx="31" cy="173.1" r="1"/>
		<circle class="st0" cx="28.7" cy="178.6" r="1"/>
		<circle class="st0" cx="28" cy="190" r="3"/>
		<ellipse class="st0" cx="93.8" cy="98.8" rx="1" ry="1"/>
		<ellipse class="st0" cx="101.1" cy="99.5" rx="1" ry="1"/>
		<ellipse class="st0" cx="107.9" cy="101.7" rx="1" ry="1"/>
		<ellipse class="st0" cx="113.9" cy="105.2" rx="1" ry="1"/>
		<ellipse class="st0" cx="119.1" cy="109.8" rx="1" ry="1"/>
		<ellipse class="st0" cx="123.2" cy="115.3" rx="1" ry="1"/>
		<ellipse class="st0" cx="126.1" cy="121.7" rx="1" ry="1"/>
		<ellipse class="st0" cx="127.6" cy="128.6" rx="1" ry="1"/>
		<ellipse class="st0" cx="127.6" cy="135.9" rx="1" ry="1"/>
		<ellipse class="st0" cx="126.1" cy="142.8" rx="1" ry="1"/>
		<ellipse class="st0" cx="123.2" cy="149.1" rx="1" ry="1"/>
		<ellipse class="st0" cx="119.1" cy="154.7" rx="1" ry="1"/>
		<ellipse class="st0" cx="113.9" cy="159.3" rx="1" ry="1"/>
		<ellipse class="st0" cx="107.9" cy="162.8" rx="1" ry="1"/>
		<ellipse class="st0" cx="101.1" cy="165" rx="1" ry="1"/>
		<ellipse class="st0" cx="93.8" cy="165.7" rx="1" ry="1"/>
		<ellipse class="st0" cx="86.5" cy="165" rx="1" ry="1"/>
		<ellipse class="st0" cx="79.8" cy="162.8" rx="1" ry="1"/>
		<ellipse class="st0" cx="73.8" cy="159.3" rx="1" ry="1"/>
		<ellipse class="st0" cx="68.6" cy="154.7" rx="1" ry="1"/>
		<ellipse class="st0" cx="64.5" cy="149.1" rx="1" ry="1"/>
		<ellipse class="st0" cx="61.6" cy="142.8" rx="1" ry="1"/>
		<ellipse class="st0" cx="60" cy="135.9" rx="1" ry="1"/>
		<ellipse class="st0" cx="60" cy="128.6" rx="1" ry="1"/>
		<ellipse class="st0" cx="61.6" cy="121.7" rx="1" ry="1"/>
		<ellipse class="st0" cx="64.5" cy="115.3" rx="1" ry="1"/>
		<ellipse class="st0" cx="68.6" cy="109.8" rx="1" ry="1"/>
		<ellipse class="st0" cx="73.8" cy="105.2" rx="1" ry="1"/>
		<ellipse class="st0" cx="79.8" cy="101.7" rx="1" ry="1"/>
		<ellipse class="st0" cx="86.5" cy="99.5" rx="1" ry="1"/>
		<ellipse class="st0" cx="93.8" cy="98.8" rx="1" ry="1"/>
		<ellipse class="st0" cx="93.8" cy="287.7" rx="1" ry="1"/>
		<ellipse class="st0" cx="101.1" cy="288.5" rx="1" ry="1"/>
		<ellipse class="st0" cx="107.9" cy="290.7" rx="1" ry="1"/>
		<ellipse class="st0" cx="113.9" cy="294.2" rx="1" ry="1"/>
		<ellipse class="st0" cx="119.1" cy="298.8" rx="1" ry="1"/>
		<ellipse class="st0" cx="123.2" cy="304.3" rx="1" ry="1"/>
		<ellipse class="st0" cx="126.1" cy="310.6" rx="1" ry="1"/>
		<ellipse class="st0" cx="127.6" cy="317.5" rx="1" ry="1"/>
		<ellipse class="st0" cx="127.6" cy="324.8" rx="1" ry="1"/>
		<ellipse class="st0" cx="126.1" cy="331.8" rx="1" ry="1"/>
		<ellipse class="st0" cx="123.2" cy="338.1" rx="1" ry="1"/>
		<ellipse class="st0" cx="119.1" cy="343.6" rx="1" ry="1"/>
		<ellipse class="st0" cx="113.9" cy="348.2" rx="1" ry="1"/>
		<ellipse class="st0" cx="107.9" cy="351.7" rx="1" ry="1"/>
		<ellipse class="st0" cx="101.1" cy="353.9" rx="1" ry="1"/>
		<ellipse class="st0" cx="93.8" cy="354.7" rx="1" ry="1"/>
		<ellipse class="st0" cx="86.5" cy="353.9" rx="1" ry="1"/>
		<ellipse class="st0" cx="79.8" cy="351.7" rx="1" ry="1"/>
		<ellipse class="st0" cx="73.8" cy="348.2" rx="1" ry="1"/>
		<ellipse class="st0" cx="68.6" cy="343.6" rx="1" ry="1"/>
		<ellipse class="st0" cx="64.5" cy="338.1" rx="1" ry="1"/>
		<ellipse class="st0" cx="61.6" cy="331.8" rx="1" ry="1"/>
		<ellipse class="st0" cx="60" cy="324.8" rx="1" ry="1"/>
		<ellipse class="st0" cx="60" cy="317.5" rx="1" ry="1"/>
		<ellipse class="st0" cx="61.6" cy="310.6" rx="1" ry="1"/>
		<ellipse class="st0" cx="64.5" cy="304.3" rx="1" ry="1"/>
		<ellipse class="st0" cx="68.6" cy="298.8" rx="1" ry="1"/>
		<ellipse class="st0" cx="73.8" cy="294.2" rx="1" ry="1"/>
		<ellipse class="st0" cx="79.8" cy="290.7" rx="1" ry="1"/>
		<ellipse class="st0" cx="86.5" cy="288.5" rx="1" ry="1"/>
		<ellipse class="st0" cx="93.8" cy="287.7" rx="1" ry="1"/>
	</g>
</g>
<circle class="st1" cx="30.7" cy="25.1" r="15"/>
<circle class="st1" cx="32.7" cy="226.6" r="15"/>
<circle class="st1" cx="82.6" cy="128.4" r="18"/>
<circle class="st1" cx="87.8" cy="326.3" r="18"/>
</svg>
