<svg 
 xmlns="http://www.w3.org/2000/svg"
 xmlns:xlink="http://www.w3.org/1999/xlink"
 width="125" height="90">
<path fill-rule="evenodd"  fill="rgb(240, 247, 245)"
 d="M9.000,39.997 L19.000,39.997 C21.761,39.997 24.000,42.236 24.000,44.998 C24.000,47.759 21.761,49.998 19.000,49.998 L9.000,49.998 C6.238,49.998 4.000,47.759 4.000,44.998 C4.000,42.236 6.238,39.997 9.000,39.997 ZM120.000,29.998 L68.000,29.998 C65.192,29.998 63.000,32.236 63.000,34.998 C63.000,37.759 65.192,39.998 68.000,39.998 L114.000,39.998 C116.789,39.998 119.000,42.236 119.000,44.998 C119.000,47.759 116.789,49.998 114.000,49.998 L97.000,49.998 C94.192,49.998 92.000,52.236 92.000,54.997 C92.000,57.759 94.192,59.998 97.000,59.998 L104.000,59.998 C106.789,59.998 109.000,62.237 109.000,64.997 C109.000,67.758 106.789,69.998 104.000,69.998 L49.000,69.998 C46.192,69.998 44.000,72.236 44.000,74.998 C44.000,77.759 46.192,79.999 49.000,79.999 L85.000,79.999 C87.789,79.999 90.000,82.236 90.000,84.998 C90.000,87.759 87.789,89.998 85.000,89.998 L7.000,89.998 C4.211,89.998 2.000,87.759 2.000,84.998 C2.000,82.236 4.211,79.999 7.000,79.999 L29.000,79.999 C31.808,79.999 34.000,77.759 34.000,74.998 C34.000,72.236 31.808,69.998 29.000,69.998 L22.000,69.998 C19.211,69.998 17.000,67.758 17.000,64.997 C17.000,62.237 19.211,59.998 22.000,59.998 L54.000,59.998 C56.808,59.998 59.000,57.759 59.000,54.997 C59.000,52.236 56.808,49.998 54.000,49.998 L39.000,49.998 C36.211,49.998 34.000,47.759 34.000,44.998 C34.000,42.236 36.211,39.998 39.000,39.998 L43.000,39.998 C45.808,39.998 48.000,37.759 48.000,34.998 C48.000,32.236 45.808,29.998 43.000,29.998 L5.000,29.998 C2.211,29.998 -0.000,27.759 -0.000,24.998 C-0.000,22.237 2.211,19.997 5.000,19.997 L83.000,19.997 C85.808,19.997 88.000,17.759 88.000,14.998 C88.000,12.236 85.808,9.997 83.000,9.997 L55.000,9.997 C52.211,9.997 50.000,7.759 50.000,4.997 C50.000,2.237 52.211,-0.002 55.000,-0.002 L113.000,-0.002 C115.789,-0.002 118.000,2.237 118.000,4.997 C118.000,7.759 115.789,9.997 113.000,9.997 L105.000,9.997 C102.192,9.997 100.000,12.236 100.000,14.998 C100.000,17.759 102.192,19.997 105.000,19.997 L120.000,19.997 C122.789,19.997 125.000,22.237 125.000,24.998 C125.000,27.759 122.789,29.998 120.000,29.998 ZM35.000,9.998 L15.000,9.998 C12.238,9.998 10.000,7.758 10.000,4.997 C10.000,2.237 12.238,-0.003 15.000,-0.003 L35.000,-0.003 C37.761,-0.003 40.000,2.237 40.000,4.997 C40.000,7.758 37.761,9.998 35.000,9.998 ZM105.000,79.997 L115.000,79.997 C117.761,79.997 120.000,82.236 120.000,84.998 C120.000,87.759 117.761,89.998 115.000,89.998 L105.000,89.998 C102.238,89.998 100.000,87.759 100.000,84.998 C100.000,82.236 102.238,79.997 105.000,79.997 Z"/>
</svg>