<svg xmlns="http://www.w3.org/2000/svg" width="73" height="73" viewBox="0 0 73 73">
  <metadata><?xpacket begin="﻿" id="W5M0MpCehiHzreSzNTczkc9d"?>
<x:xmpmeta xmlns:x="adobe:ns:meta/" x:xmptk="Adobe XMP Core 5.6-c138 79.159824, 2016/09/14-01:09:01        ">
   <rdf:RDF xmlns:rdf="http://www.w3.org/1999/02/22-rdf-syntax-ns#">
      <rdf:Description rdf:about=""/>
   </rdf:RDF>
</x:xmpmeta>
                                                                                                    
                                                                                                    
                                                                                                    
                                                                                                    
                                                                                                    
                                                                                                    
                                                                                                    
                                                                                                    
                                                                                                    
                                                                                                    
                                                                                                    
                                                                                                    
                                                                                                    
                                                                                                    
                                                                                                    
                                                                                                    
                                                                                                    
                                                                                                    
                                                                                                    
                                                                                                    
                           
<?xpacket end="w"?></metadata>
<defs>
    <style>
      .cls-1 {
        fill: #226d4f;
      }

      .cls-1, .cls-2, .cls-3 {
        fill-rule: evenodd;
      }

      .cls-2 {
        fill: #16d488;
      }

      .cls-3 {
        fill: #c1ecdb;
      }
    </style>
  </defs>
  <path class="cls-1" d="M28.264,0A11.162,11.162,0,0,0,17.13,11.172a11.153,11.153,0,0,0,1.236,5.073H9.1A9.133,9.133,0,0,0,0,25.382V36.713A4.835,4.835,0,0,0,4.82,41.549h0.4a4.947,4.947,0,0,0,2.956-1.028,4.981,4.981,0,0,1,3-.985,4.86,4.86,0,0,1,1.091.123,5.093,5.093,0,0,1,3.787,6.105L16.04,45.8l-0.007.037-0.014.071a5.028,5.028,0,0,1-4.158,3.734,5.111,5.111,0,0,1-.706.049,4.923,4.923,0,0,1-2.99-1.005,4.931,4.931,0,0,0-2.938-1.02H4.82A4.856,4.856,0,0,0,0,52.452V63.859A9.134,9.134,0,0,0,9.1,73H47.413a9.135,9.135,0,0,0,9.109-9.139V54.572a10.823,10.823,0,0,0,5.046,1.238,10.934,10.934,0,0,0,2.8-.364,11.186,11.186,0,0,0,5.076-18.93,10.934,10.934,0,0,0-7.59-3.1c-0.107,0-.214,0-0.322,0a11.037,11.037,0,0,0-5.014,1.236v-9.3a9.134,9.134,0,0,0-9.109-9.139H38.157a11.014,11.014,0,0,0,.872-7.911A11.155,11.155,0,0,0,28.264,0h0Z"/>
  <path class="cls-2" d="M47.489,71H9.122A7.139,7.139,0,0,1,2,63.859V52.479A2.849,2.849,0,0,1,4.83,49.666H5.211a2.937,2.937,0,0,1,1.765.616A7.018,7.018,0,0,0,18,46.34l0.024-.127A7.037,7.037,0,0,0,6.965,38.94a2.932,2.932,0,0,1-1.736.609H4.83A2.837,2.837,0,0,1,2,36.713V25.382a7.138,7.138,0,0,1,7.125-7.136H20.441a0.738,0.738,0,0,0,.734-0.74V17.124A0.819,0.819,0,0,0,21,16.646,9.149,9.149,0,1,1,37.16,8.818a9.017,9.017,0,0,1-1.543,7.793,0.815,0.815,0,0,0-.18.5v0.369a0.736,0.736,0,0,0,.734.737H47.489a7.141,7.141,0,0,1,7.125,7.14V36.7a0.737,0.737,0,0,0,.734.739h0.382a0.8,0.8,0,0,0,.472-0.173,9.092,9.092,0,0,1,5.467-1.848,8.93,8.93,0,0,1,6.509,2.541A9.115,9.115,0,0,1,71,44.382a9.218,9.218,0,0,1-7.036,9.129,8.965,8.965,0,0,1-7.755-1.555,0.829,0.829,0,0,0-.5-0.179H55.349a0.739,0.739,0,0,0-.734.74V63.859A7.139,7.139,0,0,1,47.489,71Z"/>
  <path class="cls-3" d="M63.175,50.6l0.035-.009a6.2,6.2,0,0,0,4.726-6.145,6.135,6.135,0,0,0-1.9-4.321A5.9,5.9,0,0,0,61.9,38.415l-0.192,0-0.048,0H61.61a6.062,6.062,0,0,0-3.639,1.23,3.791,3.791,0,0,1-2.264.791H55.3a3.738,3.738,0,0,1-3.73-3.739V25.359a4.134,4.134,0,0,0-4.12-4.138H36.138a3.738,3.738,0,0,1-3.73-3.738V17.113a3.829,3.829,0,0,1,.8-2.327,6.043,6.043,0,0,0,1.022-5.2A6.157,6.157,0,0,0,28.286,5a6.144,6.144,0,0,0-4.91,9.838,3.793,3.793,0,0,1,.78,2.24v0.43a3.739,3.739,0,0,1-3.73,3.74H9.118A4.133,4.133,0,0,0,5,25.382V36.55H5.155a10.032,10.032,0,0,1,6.03-2.014,9.834,9.834,0,0,1,2.216.251,10.1,10.1,0,0,1,7.544,12.042L20.93,46.9l-0.015.077-0.019.075a10.017,10.017,0,0,1-9.728,7.636,9.873,9.873,0,0,1-6-2.015L5,52.673V63.859A4.134,4.134,0,0,0,9.118,68H47.445a4.134,4.134,0,0,0,4.12-4.139V52.517a3.74,3.74,0,0,1,3.73-3.74H55.66A3.87,3.87,0,0,1,58,49.592a5.932,5.932,0,0,0,3.607,1.22,6.005,6.005,0,0,0,1.532-.2Z"/>
</svg>
