<?xml version="1.0" encoding="utf-8"?>
<!-- Generator: Adobe Illustrator 21.1.0, SVG Export Plug-In . SVG Version: 6.00 Build 0)  -->
<svg version="1.1" id="Layer_1" xmlns="http://www.w3.org/2000/svg" xmlns:xlink="http://www.w3.org/1999/xlink" x="0px" y="0px"
	 viewBox="0 0 48 91" style="enable-background:new 0 0 48 91;" xml:space="preserve">
<style type="text/css">
	.st0{fill:#226D4F;}
	.st1{fill:#16D488;}
	.st2{fill:#C1ECDB;}
</style>
<path class="st0" d="M42,71H29l1,13.9v0.1V85c0,3.3-2.7,6-6,6s-6-2.7-6-6v-0.1l0-0.1L19,71H6c-3.3,0-6-2.7-6-6V24
	C0,10.7,10.7,0,24,0l0,0c13.3,0,24,10.7,24,24v41C48,68.3,45.3,71,42,71z"/>
<path id="Rounded_Rectangle_2" class="st1" d="M2,65V24C2,11.8,11.8,2,24,2l0,0c12.2,0,22,9.8,22,22v41c0,2.2-1.8,4-4,4H6
	C3.8,69,2,67.2,2,65z"/>
<path class="st2" d="M38.8,26.8c-1.6-0.1-2.9-1.5-2.8-3.2V10.7c0-0.9-0.4-1.8-1.2-2.4l-0.1,0c-1.3-1-3.2-0.7-4.2,0.6
	C30.2,9.4,30,10,30,10.7v2.9c0,1.6-1.2,3-2.8,3.2c-1.7,0.1-3.1-1.2-3.2-2.8c0-0.1,0-0.1,0-0.2V8.2c0-1.6-1.3-3-3-3
	c-0.2,0-0.3,0-0.5,0l-0.1,0C19,5.5,18,6.8,18,8.2v25.4c0,1.6-1.2,3-2.8,3.2c-1.7,0.1-3.1-1.2-3.2-2.8c0-0.1,0-0.1,0-0.2V19.5
	c0-3.8-5.6-4.1-5.9-0.3c0,0.5-0.1,1-0.1,1.5v42.2c0,1.1,0.9,2,2,2.1h32c1.1,0,2-0.9,2-2.1V29.8c0-1.7-1.4-3-3-3c0,0,0,0,0,0
	L38.8,26.8z"/>
<path id="Rounded_Rectangle_3" class="st1" d="M28,85c0,2.2-1.8,4-4,4l0,0c-2.2,0-4-1.8-4-4l1-14h6L28,85z"/>
</svg>
