<svg xmlns="http://www.w3.org/2000/svg" width="84" height="54" viewBox="0 0 84 54">
  <metadata><?xpacket begin="﻿" id="W5M0MpCehiHzreSzNTczkc9d"?>
<x:xmpmeta xmlns:x="adobe:ns:meta/" x:xmptk="Adobe XMP Core 5.6-c138 79.159824, 2016/09/14-01:09:01        ">
   <rdf:RDF xmlns:rdf="http://www.w3.org/1999/02/22-rdf-syntax-ns#">
      <rdf:Description rdf:about=""/>
   </rdf:RDF>
</x:xmpmeta>
                                                                                                    
                                                                                                    
                                                                                                    
                                                                                                    
                                                                                                    
                                                                                                    
                                                                                                    
                                                                                                    
                                                                                                    
                                                                                                    
                                                                                                    
                                                                                                    
                                                                                                    
                                                                                                    
                                                                                                    
                                                                                                    
                                                                                                    
                                                                                                    
                                                                                                    
                                                                                                    
                           
<?xpacket end="w"?></metadata>
<defs>
    <style>
      .cls-1 {
        fill: #226d4f;
      }

      .cls-1, .cls-2, .cls-3 {
        fill-rule: evenodd;
      }

      .cls-2 {
        fill: #17ca82;
      }

      .cls-3 {
        fill: #c1ecdb;
      }
    </style>
  </defs>
  <path class="cls-1" d="M78,36.87A11.233,11.233,0,0,1,66.666,48L17.459,48a11.253,11.253,0,1,1,0-22.5c0.066,0,.132,0,0.2.005a13.839,13.839,0,0,1,13.821-12.02,14.052,14.052,0,0,1,6.8,1.743A16.384,16.384,0,0,1,53.084,6,16.214,16.214,0,0,1,69.445,22.063a15.811,15.811,0,0,1-.49,3.906A11.185,11.185,0,0,1,78,36.87ZM73.407,23.281q0.038-.607.038-1.218A20.237,20.237,0,0,0,53.084,2,20.571,20.571,0,0,0,36.646,10.23a18.207,18.207,0,0,0-5.169-.751A17.915,17.915,0,0,0,14.394,21.795,15.235,15.235,0,0,0,17.459,52l49.207,0A15.1,15.1,0,0,0,73.407,23.281ZM75.445,22.1V22.063A22.239,22.239,0,0,0,53.084,0,22.6,22.6,0,0,0,35.891,7.968a20.232,20.232,0,0,0-4.413-.489A19.941,19.941,0,0,0,12.875,20.1,17.23,17.23,0,0,0,17.459,54l49.206,0A17.091,17.091,0,0,0,75.445,22.1Z"/>
  <path class="cls-2" d="M78,36.87A11.233,11.233,0,0,1,66.666,48L17.459,48a11.253,11.253,0,1,1,0-22.5c0.066,0,.132,0,0.2.005a13.839,13.839,0,0,1,13.821-12.02,14.052,14.052,0,0,1,6.8,1.743A16.384,16.384,0,0,1,53.084,6,16.214,16.214,0,0,1,69.445,22.063a15.811,15.811,0,0,1-.49,3.906A11.185,11.185,0,0,1,78,36.87ZM73.407,23.281q0.038-.607.038-1.218A20.237,20.237,0,0,0,53.084,2,20.571,20.571,0,0,0,36.646,10.23a18.207,18.207,0,0,0-5.169-.751A17.915,17.915,0,0,0,14.394,21.795,15.235,15.235,0,0,0,17.459,52l49.207,0A15.1,15.1,0,0,0,73.407,23.281Z"/>
  <path class="cls-3" d="M78,36.87A11.233,11.233,0,0,1,66.666,48L17.459,48a11.253,11.253,0,1,1,0-22.5c0.066,0,.132,0,0.2.005a13.839,13.839,0,0,1,13.821-12.02,14.052,14.052,0,0,1,6.8,1.743A16.384,16.384,0,0,1,53.084,6,16.214,16.214,0,0,1,69.445,22.063a15.811,15.811,0,0,1-.49,3.906A11.185,11.185,0,0,1,78,36.87Z"/>
  <path class="cls-1" d="M12,31.627h4.878l-0.383,1.265H13.539v1.572h0.507a4.39,4.39,0,0,1,2.062.4,1.98,1.98,0,0,1,1.048,1.914c0,1.345-.8,2.358-3.076,2.358H12V31.627Zm2.118,6.232c1.059,0,1.5-.342,1.5-1.059a0.936,0.936,0,0,0-.417-0.854,2.284,2.284,0,0,0-1.149-.217H13.539v2.13h0.575ZM17.9,33.746h1.476V35.9c0,0.445-.011.877-0.045,1.184h0.034c0.124-.216.383-0.672,0.687-1.116l1.521-2.221h1.488v5.387H21.571V36.981a11.623,11.623,0,0,1,.056-1.185H21.594c-0.124.216-.394,0.673-0.687,1.117l-1.521,2.22H17.9V33.746Zm7.266,1.276H23.577V33.746H28.6l-0.394,1.276H26.686v4.112H25.165V35.022Zm3.808-1.059a6.416,6.416,0,0,1,2.107-.353,2.821,2.821,0,1,1,.18,5.638,2.906,2.906,0,0,1-.766-0.1v2.688H28.973V33.963Zm2.175,4.021a1.328,1.328,0,0,0,1.363-1.549,1.376,1.376,0,0,0-1.5-1.56,1.538,1.538,0,0,0-.518.068V37.87A1.946,1.946,0,0,0,31.147,37.983ZM34.7,33.746h1.476V35.9c0,0.445-.011.877-0.045,1.184H36.16c0.124-.216.383-0.672,0.687-1.116l1.521-2.221h1.487v5.387H38.368V36.981a11.626,11.626,0,0,1,.056-1.185H38.391c-0.124.216-.394,0.673-0.687,1.117l-1.521,2.22H34.7V33.746Zm6.05,0h1.521v2.062H42.83c0.642,0,.62-1.093,1.093-1.731a1.142,1.142,0,0,1,1-.468,2.28,2.28,0,0,1,.608.08V35a0.891,0.891,0,0,0-.315-0.057,0.435,0.435,0,0,0-.372.171,4.756,4.756,0,0,1-.71,1.287v0.022a1.128,1.128,0,0,1,.608.639L45.7,39.133H44.058l-0.631-1.685a0.6,0.6,0,0,0-.417-0.479H42.266v2.164H40.746V33.746Zm5.115,2.723a2.8,2.8,0,0,1,2.873-2.86A2.662,2.662,0,0,1,50.209,34v1.287a2.03,2.03,0,0,0-1.307-.456,1.487,1.487,0,0,0-1.487,1.629,1.372,1.372,0,0,0,1.42,1.561,2.316,2.316,0,0,0,1.228-.365L50.49,38.7a3.289,3.289,0,0,1-1.87.546A2.6,2.6,0,0,1,45.86,36.469Zm9.622-3.162a1,1,0,0,0-1.188-.953,4.985,4.985,0,0,0-2.118.557l-0.428-1.3a6.7,6.7,0,0,1,2.816-.681c1.8,0,2.669.917,2.669,2.2,0,2.253-3.061,2.884-3.575,4.6h3.685v1.436H51.478C51.809,35.151,55.482,34.916,55.482,33.307ZM57.2,36.154l4.04-5.2h1.2v4.914h1.2v1.362h-1.2v1.944H60.807V37.231H57.2V36.154Zm2.877-.285h0.735V34.99c0-.631.049-1.361,0.073-1.522l-1.824,2.438C59.2,35.895,59.791,35.869,60.073,35.869ZM65.4,24.853A2.63,2.63,0,1,0,68,27.482,2.615,2.615,0,0,0,65.4,24.853ZM67.015,27.8a0.268,0.268,0,0,1-.267.27H65.391c-0.008,0-.016,0-0.024,0H65.325a0.268,0.268,0,0,1-.267-0.269V26.615a0.268,0.268,0,0,1,.267-0.27h0.041a0.268,0.268,0,0,1,.267.27v0.875h1.115a0.268,0.268,0,0,1,.267.269V27.8Z"/>
</svg>
