<svg 
 xmlns="http://www.w3.org/2000/svg"
 xmlns:xlink="http://www.w3.org/1999/xlink"
 width="123" height="90">
<path fill-rule="evenodd"  fill="rgb(240, 247, 245)"
 d="M117.000,49.998 L111.000,49.998 C108.192,49.998 106.000,52.237 106.000,54.998 C106.000,57.759 108.192,59.998 111.000,59.998 L118.000,59.998 C120.789,59.998 123.000,62.237 123.000,64.998 C123.000,67.759 120.789,69.998 118.000,69.998 L83.000,69.998 C80.192,69.998 78.000,72.235 78.000,74.998 C78.000,77.759 80.192,79.998 83.000,79.998 L98.000,79.998 C100.789,79.998 103.000,82.236 103.000,84.997 C103.000,87.759 100.789,89.998 98.000,89.998 L34.000,89.998 C31.211,89.998 29.000,87.759 29.000,84.997 C29.000,82.236 31.211,79.998 34.000,79.998 L53.000,79.998 C55.808,79.998 58.000,77.759 58.000,74.998 C58.000,72.235 55.808,69.998 53.000,69.998 L8.000,69.998 C5.211,69.998 3.000,67.759 3.000,64.998 C3.000,62.237 5.211,59.998 8.000,59.998 L33.000,59.998 C35.808,59.998 38.000,57.759 38.000,54.998 C38.000,52.237 35.808,49.998 33.000,49.998 L17.000,49.998 C14.211,49.998 12.000,47.759 12.000,44.998 C12.000,42.236 14.211,39.998 17.000,39.998 L20.000,39.998 C22.808,39.998 25.000,37.759 25.000,34.998 C25.000,32.236 22.808,29.998 20.000,29.998 L5.000,29.998 C2.211,29.998 -0.000,27.760 -0.000,24.997 C-0.000,22.236 2.211,19.997 5.000,19.997 L43.000,19.997 C45.808,19.997 48.000,17.760 48.000,14.998 C48.000,12.236 45.808,9.997 43.000,9.997 L29.000,9.997 C26.211,9.997 24.000,7.759 24.000,4.997 C24.000,2.236 26.211,-0.003 29.000,-0.003 L98.000,-0.003 C100.789,-0.003 103.000,2.236 103.000,4.997 C103.000,7.759 100.789,9.997 98.000,9.997 L83.000,9.997 C80.192,9.997 78.000,12.236 78.000,14.998 C78.000,17.760 80.192,19.997 83.000,19.997 L108.000,19.997 C110.789,19.997 113.000,22.236 113.000,24.997 C113.000,27.760 110.789,29.998 108.000,29.998 L91.000,29.998 C88.192,29.998 86.000,32.236 86.000,34.998 C86.000,37.759 88.192,39.998 91.000,39.998 L117.000,39.998 C119.789,39.998 122.000,42.236 122.000,44.998 C122.000,47.759 119.789,49.998 117.000,49.998 Z"/>
</svg>