<svg xmlns="http://www.w3.org/2000/svg" width="76" height="60" viewBox="0 0 76 60">
  <metadata><?xpacket begin="﻿" id="W5M0MpCehiHzreSzNTczkc9d"?>
<x:xmpmeta xmlns:x="adobe:ns:meta/" x:xmptk="Adobe XMP Core 5.6-c138 79.159824, 2016/09/14-01:09:01        ">
   <rdf:RDF xmlns:rdf="http://www.w3.org/1999/02/22-rdf-syntax-ns#">
      <rdf:Description rdf:about=""/>
   </rdf:RDF>
</x:xmpmeta>
                                                                                                    
                                                                                                    
                                                                                                    
                                                                                                    
                                                                                                    
                                                                                                    
                                                                                                    
                                                                                                    
                                                                                                    
                                                                                                    
                                                                                                    
                                                                                                    
                                                                                                    
                                                                                                    
                                                                                                    
                                                                                                    
                                                                                                    
                                                                                                    
                                                                                                    
                                                                                                    
                           
<?xpacket end="w"?></metadata>
<defs>
    <style>
      .cls-1, .cls-4 {
        fill: #226d4f;
      }

      .cls-1, .cls-2, .cls-5 {
        fill-rule: evenodd;
      }

      .cls-2, .cls-6 {
        fill: #16d488;
      }

      .cls-3, .cls-5 {
        fill: #c1ecdb;
      }
    </style>
  </defs>
  <path id="Rounded_Rectangle_12" data-name="Rounded Rectangle 12" class="cls-1" d="M13,13H63m0,0a2,2,0,0,1,2-2h9a2,2,0,0,1,2,2V31h0V49a6,6,0,0,1-6,6H6a6,6,0,0,1-6-6V19s0,0,0-.006V13a2,2,0,0,1,2-2h9a2,2,0,0,1,2,2"/>
  <path id="Rounded_Rectangle_14" data-name="Rounded Rectangle 14" class="cls-2" d="M74,20V49a4,4,0,0,1-4,4H6a4,4,0,0,1-4-4V19a3.972,3.972,0,0,1,.067-0.666A0.985,0.985,0,0,1,2,18V14a1,1,0,0,1,1-1h7a1,1,0,0,1,1,1v1H65V14a1,1,0,0,1,1-1h7a1,1,0,0,1,1,1v6h0Z"/>
  <rect class="cls-3" x="6" y="19" width="64" height="30" rx="2" ry="2"/>
  <circle class="cls-4" cx="64" cy="25" r="2"/>
  <path class="cls-1" d="M22,0H54a6,6,0,0,1,6,6v7H16V6A6,6,0,0,1,22,0Z"/>
  <path id="Rounded_Rectangle_2" data-name="Rounded Rectangle 2" class="cls-2" d="M22,2H54a4,4,0,0,1,4,4v7H18V6A4,4,0,0,1,22,2Z"/>
  <path class="cls-5" d="M24,6H52a2,2,0,0,1,2,2v5H22V8A2,2,0,0,1,24,6Z"/>
  <rect class="cls-4" x="14" y="46" width="48" height="14" rx="2" ry="2"/>
  <rect class="cls-6" x="16" y="48" width="44" height="10" rx="1" ry="1"/>
  <rect class="cls-4" x="18" y="53" width="40" height="2" rx="1" ry="1"/>
</svg>
