<svg xmlns="http://www.w3.org/2000/svg" width="75" height="71" viewBox="0 0 75 71">
  <metadata><?xpacket begin="﻿" id="W5M0MpCehiHzreSzNTczkc9d"?>
<x:xmpmeta xmlns:x="adobe:ns:meta/" x:xmptk="Adobe XMP Core 5.6-c138 79.159824, 2016/09/14-01:09:01        ">
   <rdf:RDF xmlns:rdf="http://www.w3.org/1999/02/22-rdf-syntax-ns#">
      <rdf:Description rdf:about=""/>
   </rdf:RDF>
</x:xmpmeta>
                                                                                                    
                                                                                                    
                                                                                                    
                                                                                                    
                                                                                                    
                                                                                                    
                                                                                                    
                                                                                                    
                                                                                                    
                                                                                                    
                                                                                                    
                                                                                                    
                                                                                                    
                                                                                                    
                                                                                                    
                                                                                                    
                                                                                                    
                                                                                                    
                                                                                                    
                                                                                                    
                           
<?xpacket end="w"?></metadata>
<defs>
    <style>
      .cls-1, .cls-3 {
        fill: #226d4f;
      }

      .cls-2, .cls-5 {
        fill: #16d488;
      }

      .cls-2, .cls-3, .cls-4 {
        fill-rule: evenodd;
      }

      .cls-4, .cls-6 {
        fill: #c1ecdb;
      }
    </style>
  </defs>
  <rect class="cls-1" x="18" y="45" width="8" height="14"/>
  <path id="Rounded_Rectangle_3" data-name="Rounded Rectangle 3" class="cls-2" d="M20,59V45h4V59H20Z"/>
  <path class="cls-3" d="M59,59v7H28V59H59Z"/>
  <path class="cls-3" d="M69,45H15a6,6,0,0,1-6-6V30.1H9V15H9V8H4A4,4,0,1,1,4,0h9a4,4,0,0,1,4,4v6H69a6,6,0,0,1,6,6V39A6,6,0,0,1,69,45Z"/>
  <path id="Rounded_Rectangle_2" data-name="Rounded Rectangle 2" class="cls-2" d="M11,12H69a4,4,0,0,1,4,4V39a4,4,0,0,1-4,4H15a4,4,0,0,1-4-4V12h0Z"/>
  <path class="cls-4" d="M15,16H67a2,2,0,0,1,2,2V37a2,2,0,0,1-2,2H17a2,2,0,0,1-2-2V16h0Z"/>
  <rect id="Rounded_Rectangle_3-2" data-name="Rounded Rectangle 3" class="cls-5" x="28" y="61" width="33" height="3"/>
  <path id="Rounded_Rectangle_3-3" data-name="Rounded Rectangle 3" class="cls-2" d="M13,15a2,2,0,0,1-2-2V6H4A2,2,0,0,1,4,2h9a2,2,0,0,1,2,2v9A2,2,0,0,1,13,15Z"/>
  <ellipse class="cls-1" cx="63.156" cy="61.984" rx="8.844" ry="9.016"/>
  <ellipse class="cls-5" cx="63.141" cy="61.984" rx="6.891" ry="7.016"/>
  <ellipse class="cls-6" cx="63.141" cy="61.984" rx="2.953" ry="3.016"/>
  <circle class="cls-1" cx="22" cy="62" r="9"/>
  <circle class="cls-5" cx="22" cy="62" r="7"/>
  <circle class="cls-6" cx="22" cy="62" r="3"/>
</svg>
