<svg 
 xmlns="http://www.w3.org/2000/svg"
 xmlns:xlink="http://www.w3.org/1999/xlink"
 width="138" height="90">
<path fill-rule="evenodd"  fill="rgb(240, 247, 245)"
 d="M128.000,9.997 L128.000,9.997 C125.192,9.997 123.000,12.236 123.000,14.998 C123.000,17.759 125.192,19.997 128.000,19.997 L133.000,19.997 C135.789,19.997 138.000,22.236 138.000,24.998 C138.000,27.759 135.789,29.998 133.000,29.998 L101.000,29.998 C98.192,29.998 96.000,32.236 96.000,34.998 C96.000,37.759 98.192,39.997 101.000,39.997 L117.000,39.997 C119.789,39.997 122.000,42.236 122.000,44.998 C122.000,47.759 119.789,49.998 117.000,49.998 L95.000,49.998 C92.192,49.998 90.000,52.236 90.000,54.997 C90.000,57.759 92.192,59.998 95.000,59.998 L127.000,59.998 C129.789,59.998 132.000,62.237 132.000,64.997 C132.000,67.759 129.789,69.998 127.000,69.998 L92.000,69.998 C89.192,69.998 87.000,72.236 87.000,74.998 C87.000,77.759 89.192,79.999 92.000,79.999 L118.000,79.999 C120.789,79.999 123.000,82.236 123.000,84.998 C123.000,87.759 120.789,89.997 118.000,89.997 L20.000,89.997 C17.211,89.997 15.000,87.759 15.000,84.998 C15.000,82.236 17.211,79.999 20.000,79.999 L62.000,79.999 C64.808,79.999 67.000,77.759 67.000,74.998 C67.000,72.236 64.808,69.998 62.000,69.998 L5.000,69.998 C2.211,69.998 -0.000,67.759 -0.000,64.997 C-0.000,62.237 2.211,59.998 5.000,59.998 L35.000,59.998 C37.808,59.998 40.000,57.759 40.000,54.997 C40.000,52.236 37.808,49.998 35.000,49.998 L15.000,49.998 C12.211,49.998 10.000,47.759 10.000,44.998 C10.000,42.236 12.211,39.997 15.000,39.997 L76.000,39.997 C78.808,39.997 81.000,37.759 81.000,34.998 C81.000,32.236 78.808,29.998 76.000,29.998 L18.000,29.998 C15.211,29.998 13.000,27.759 13.000,24.998 C13.000,22.236 15.211,19.997 18.000,19.997 L38.000,19.997 C40.808,19.997 43.000,17.759 43.000,14.998 C43.000,12.236 40.808,9.997 38.000,9.997 L16.000,9.997 C13.211,9.997 11.000,7.758 11.000,4.997 C11.000,2.237 13.211,-0.002 16.000,-0.002 L88.000,-0.002 C90.789,-0.002 93.000,2.237 93.000,4.997 C93.000,7.758 90.789,9.997 88.000,9.997 L58.000,9.997 C55.192,9.997 53.000,12.236 53.000,14.998 C53.000,17.759 55.192,19.997 58.000,19.997 L108.000,19.997 C110.808,19.997 113.000,17.759 113.000,14.998 C113.000,12.236 110.808,9.997 108.000,9.997 L108.000,9.997 C105.211,9.997 103.000,7.758 103.000,4.997 C103.000,2.237 105.211,-0.002 108.000,-0.002 L128.000,-0.002 C130.789,-0.002 133.000,2.237 133.000,4.997 C133.000,7.758 130.789,9.997 128.000,9.997 Z"/>
</svg>