<svg 
 xmlns="http://www.w3.org/2000/svg"
 xmlns:xlink="http://www.w3.org/1999/xlink"
 width="126" height="90">
<path fill-rule="evenodd"  fill="rgb(240, 247, 245)"
 d="M120.000,29.998 L102.000,29.998 C99.192,29.998 97.000,32.236 97.000,34.997 C97.000,37.758 99.192,39.998 102.000,39.998 L121.000,39.998 C123.789,39.998 126.000,42.236 126.000,44.997 C126.000,47.758 123.789,49.998 121.000,49.998 L105.000,49.998 C102.192,49.998 100.000,52.237 100.000,54.998 C100.000,57.759 102.192,59.998 105.000,59.998 L115.000,59.998 C117.789,59.998 120.000,62.237 120.000,64.998 C120.000,67.759 117.789,69.998 115.000,69.998 L95.000,69.998 C92.192,69.998 90.000,72.235 90.000,74.997 C90.000,77.759 92.192,79.998 95.000,79.998 L103.000,79.998 C105.789,79.998 108.000,82.236 108.000,84.997 C108.000,87.758 105.789,89.998 103.000,89.998 L33.000,89.998 C30.210,89.998 28.000,87.758 28.000,84.997 C28.000,82.236 30.210,79.998 33.000,79.998 L75.000,79.998 C77.808,79.998 80.000,77.759 80.000,74.997 C80.000,72.235 77.808,69.998 75.000,69.998 L32.000,69.998 C29.211,69.998 27.000,67.759 27.000,64.998 C27.000,62.237 29.211,59.998 32.000,59.998 L45.000,59.998 C47.808,59.998 50.000,57.759 50.000,54.998 C50.000,52.237 47.808,49.998 45.000,49.998 L19.000,49.998 C16.211,49.998 14.000,47.758 14.000,44.997 C14.000,42.236 16.211,39.998 19.000,39.998 L35.000,39.998 C37.808,39.998 40.000,37.758 40.000,34.997 C40.000,32.236 37.808,29.998 35.000,29.998 L16.000,29.998 C13.211,29.998 11.000,27.760 11.000,24.997 C11.000,22.236 13.211,19.997 16.000,19.997 L45.000,19.997 C47.808,19.997 50.000,17.760 50.000,14.998 C50.000,12.236 47.808,9.997 45.000,9.997 L35.000,9.997 C32.210,9.997 30.000,7.759 30.000,4.997 C30.000,2.236 32.210,-0.003 35.000,-0.003 L100.000,-0.003 C102.789,-0.003 105.000,2.236 105.000,4.997 C105.000,7.759 102.789,9.997 100.000,9.997 L85.000,9.997 C82.192,9.997 80.000,12.236 80.000,14.998 C80.000,17.760 82.192,19.997 85.000,19.997 L120.000,19.997 C122.789,19.997 125.000,22.236 125.000,24.997 C125.000,27.760 122.789,29.998 120.000,29.998 ZM17.000,64.998 C17.000,67.759 14.761,69.998 12.000,69.998 L5.000,69.998 C2.238,69.998 -0.000,67.759 -0.000,64.998 C-0.000,62.237 2.238,59.998 5.000,59.998 L12.000,59.998 C14.761,59.998 17.000,62.237 17.000,64.998 Z"/>
</svg>