<svg 
 xmlns="http://www.w3.org/2000/svg"
 xmlns:xlink="http://www.w3.org/1999/xlink"
 width="132" height="90">
<path fill-rule="evenodd"  fill="rgb(240, 247, 245)"
 d="M126.000,29.999 L114.000,29.999 C111.192,29.999 109.000,32.236 109.000,34.998 C109.000,37.759 111.192,39.998 114.000,39.998 L127.000,39.998 C129.789,39.998 132.000,42.236 132.000,44.998 C132.000,47.759 129.789,49.999 127.000,49.999 L103.000,49.999 C100.192,49.999 98.000,52.236 98.000,54.997 C98.000,57.759 100.192,59.998 103.000,59.998 L108.000,59.998 C110.789,59.998 113.000,62.237 113.000,64.997 C113.000,67.758 110.789,69.998 108.000,69.998 L85.000,69.998 C82.192,69.998 80.000,72.235 80.000,74.998 C80.000,77.759 82.192,79.998 85.000,79.998 L111.000,79.998 C113.789,79.998 116.000,82.235 116.000,84.997 C116.000,87.759 113.789,89.998 111.000,89.998 L43.000,89.998 C40.211,89.998 38.000,87.759 38.000,84.997 C38.000,82.235 40.211,79.998 43.000,79.998 L65.000,79.998 C67.808,79.998 70.000,77.759 70.000,74.998 C70.000,72.235 67.808,69.998 65.000,69.998 L35.000,69.998 C32.211,69.998 30.000,67.758 30.000,64.997 C30.000,62.237 32.211,59.998 35.000,59.998 L40.000,59.998 C42.808,59.998 45.000,57.759 45.000,54.997 C45.000,52.236 42.808,49.999 40.000,49.999 L15.000,49.999 C12.210,49.999 10.000,47.759 10.000,44.998 C10.000,42.236 12.210,39.998 15.000,39.998 L29.000,39.998 C31.808,39.998 34.000,37.759 34.000,34.998 C34.000,32.236 31.808,29.999 29.000,29.999 L21.000,29.999 C18.211,29.999 16.000,27.760 16.000,24.997 C16.000,22.236 18.211,19.997 21.000,19.997 L51.000,19.997 C53.808,19.997 56.000,17.760 56.000,14.998 C56.000,12.236 53.808,9.997 51.000,9.997 L16.000,9.997 C13.211,9.997 11.000,7.759 11.000,4.997 C11.000,2.237 13.211,-0.003 16.000,-0.003 L76.000,-0.003 C78.789,-0.003 81.000,2.237 81.000,4.997 C81.000,7.759 78.789,9.997 76.000,9.997 L71.000,9.997 C68.192,9.997 66.000,12.236 66.000,14.998 C66.000,17.760 68.192,19.997 71.000,19.997 L126.000,19.997 C128.789,19.997 131.000,22.236 131.000,24.997 C131.000,27.760 128.789,29.999 126.000,29.999 ZM123.000,9.997 L96.000,9.997 C93.238,9.997 91.000,7.759 91.000,4.997 C91.000,2.237 93.238,-0.003 96.000,-0.003 L123.000,-0.003 C125.761,-0.003 128.000,2.237 128.000,4.997 C128.000,7.759 125.761,9.997 123.000,9.997 ZM20.000,64.998 C20.000,67.759 17.761,69.998 15.000,69.998 L5.000,69.998 C2.238,69.998 -0.000,67.759 -0.000,64.998 C-0.000,62.237 2.238,59.997 5.000,59.997 L15.000,59.997 C17.761,59.997 20.000,62.237 20.000,64.998 Z"/>
</svg>