<svg 
 xmlns="http://www.w3.org/2000/svg"
 xmlns:xlink="http://www.w3.org/1999/xlink"
 width="123" height="90">
<path fill-rule="evenodd"  fill="rgb(240, 247, 245)"
 d="M7.000,59.999 L39.000,59.999 C41.808,59.999 44.000,57.761 44.000,54.999 C44.000,52.238 41.808,49.999 39.000,49.999 L20.000,49.999 C17.211,49.999 15.000,47.761 15.000,44.999 C15.000,42.238 17.211,39.999 20.000,39.999 L30.000,39.999 C32.808,39.999 35.000,37.761 35.000,35.000 C35.000,32.239 32.808,29.999 30.000,29.999 L5.000,29.999 C2.211,29.999 -0.000,27.761 -0.000,25.000 C-0.000,22.239 2.211,19.999 5.000,19.999 L35.000,19.999 C37.808,19.999 40.000,17.761 40.000,15.000 C40.000,12.238 37.808,9.999 35.000,9.999 L15.000,9.999 C12.211,9.999 10.000,7.761 10.000,4.999 C10.000,2.238 12.211,-0.000 15.000,-0.000 L100.000,-0.000 C102.789,-0.000 105.000,2.238 105.000,4.999 C105.000,7.761 102.789,9.999 100.000,9.999 L55.000,9.999 C52.192,9.999 50.000,12.238 50.000,15.000 C50.000,17.761 52.192,19.999 55.000,19.999 L118.000,19.999 C120.789,19.999 123.000,22.239 123.000,25.000 C123.000,27.761 120.789,29.999 118.000,29.999 L73.000,29.999 C70.192,29.999 68.000,32.239 68.000,35.000 C68.000,37.761 70.192,39.999 73.000,39.999 L103.000,39.999 C105.789,39.999 108.000,42.238 108.000,44.999 C108.000,47.761 105.789,49.999 103.000,49.999 L64.000,49.999 C61.192,49.999 59.000,52.238 59.000,54.999 C59.000,57.761 61.192,59.999 64.000,59.999 L112.000,59.999 C114.789,59.999 117.000,62.238 117.000,65.000 C117.000,67.761 114.789,70.000 112.000,70.000 L74.000,70.000 C71.192,70.000 69.000,72.238 69.000,74.999 C69.000,77.761 71.192,80.000 74.000,80.000 L102.000,80.000 C104.789,80.000 107.000,82.238 107.000,84.999 C107.000,87.760 104.789,90.000 102.000,90.000 L38.000,90.000 C35.211,90.000 33.000,87.760 33.000,84.999 C33.000,82.238 35.211,80.000 38.000,80.000 L52.000,80.000 C54.808,80.000 57.000,77.761 57.000,74.999 C57.000,72.238 54.808,70.000 52.000,70.000 L7.000,70.000 C4.211,70.000 2.000,67.761 2.000,65.000 C2.000,62.238 4.211,59.999 7.000,59.999 ZM10.000,80.000 L18.000,80.000 C20.761,80.000 23.000,82.238 23.000,84.999 C23.000,87.760 20.761,90.000 18.000,90.000 L10.000,90.000 C7.239,90.000 5.000,87.760 5.000,84.999 C5.000,82.238 7.239,80.000 10.000,80.000 Z"/>
</svg>