<svg 
 xmlns="http://www.w3.org/2000/svg"
 xmlns:xlink="http://www.w3.org/1999/xlink"
 width="139" height="90">
<path fill-rule="evenodd"  fill="rgb(240, 247, 245)"
 d="M132.000,29.998 L115.000,29.998 C112.192,29.998 110.000,32.236 110.000,34.998 C110.000,37.759 112.192,39.998 115.000,39.998 L126.000,39.998 C128.789,39.998 131.000,42.236 131.000,44.998 C131.000,47.759 128.789,49.998 126.000,49.998 L89.000,49.998 C86.192,49.998 84.000,52.236 84.000,54.997 C84.000,57.759 86.192,59.998 89.000,59.998 L134.000,59.998 C136.789,59.998 139.000,62.237 139.000,64.997 C139.000,67.758 136.789,69.998 134.000,69.998 L91.000,69.998 C88.192,69.998 86.000,72.236 86.000,74.998 C86.000,77.759 88.192,79.999 91.000,79.999 L97.000,79.999 C99.789,79.999 102.000,82.236 102.000,84.998 C102.000,87.759 99.789,89.998 97.000,89.998 L29.000,89.998 C26.211,89.998 24.000,87.759 24.000,84.998 C24.000,82.236 26.211,79.999 29.000,79.999 L61.000,79.999 C63.808,79.999 66.000,77.759 66.000,74.998 C66.000,72.236 63.808,69.998 61.000,69.998 L11.000,69.998 C8.211,69.998 6.000,67.758 6.000,64.997 C6.000,62.237 8.211,59.998 11.000,59.998 L46.000,59.998 C48.808,59.998 51.000,57.759 51.000,54.997 C51.000,52.236 48.808,49.998 46.000,49.998 L21.000,49.998 C18.210,49.998 16.000,47.759 16.000,44.998 C16.000,42.236 18.210,39.998 21.000,39.998 L35.000,39.998 C37.808,39.998 40.000,37.759 40.000,34.998 C40.000,32.236 37.808,29.998 35.000,29.998 L35.000,29.998 C32.211,29.998 30.000,27.759 30.000,24.998 C30.000,22.237 32.211,19.997 35.000,19.997 L85.000,19.997 C87.808,19.997 90.000,17.759 90.000,14.998 C90.000,12.236 87.808,9.997 85.000,9.997 L27.000,9.997 C24.211,9.997 22.000,7.759 22.000,4.997 C22.000,2.237 24.211,-0.002 27.000,-0.002 L112.000,-0.002 C114.789,-0.002 117.000,2.237 117.000,4.997 C117.000,7.759 114.789,9.997 112.000,9.997 L105.000,9.997 C102.192,9.997 100.000,12.236 100.000,14.998 C100.000,17.759 102.192,19.997 105.000,19.997 L132.000,19.997 C134.789,19.997 137.000,22.237 137.000,24.998 C137.000,27.759 134.789,29.998 132.000,29.998 ZM20.000,24.998 C20.000,27.759 17.761,29.998 15.000,29.998 L5.000,29.998 C2.238,29.998 -0.000,27.759 -0.000,24.998 C-0.000,22.237 2.238,19.997 5.000,19.997 L15.000,19.997 C17.761,19.997 20.000,22.237 20.000,24.998 Z"/>
</svg>