<svg xmlns="http://www.w3.org/2000/svg" width="70" height="64" viewBox="0 0 70 64">
  <defs>
    <style>
      .cls-1, .cls-5 {
        fill: #226d4f;
      }

      .cls-1, .cls-3 {
        fill-rule: evenodd;
      }

      .cls-2, .cls-3 {
        fill: #16d488;
      }

      .cls-4 {
        fill: #c1ecdb;
      }
    </style>
  </defs>
  <path class="cls-1" d="M64,52H39v6H50a2,2,0,0,1,2,2v2a2,2,0,0,1-2,2H20a2,2,0,0,1-2-2V60a2,2,0,0,1,2-2H31V52H6a6,6,0,0,1-6-6V6A6,6,0,0,1,6,0H64a6,6,0,0,1,6,6V46A6,6,0,0,1,64,52Z"/>
  <rect class="cls-2" x="2" y="2" width="66" height="48" rx="4" ry="4"/>
  <path class="cls-3" d="M49,62H21a1,1,0,0,1,0-2H33V50h4V60H49A1,1,0,0,1,49,62Z"/>
  <path class="cls-1" d="M30,50h9v2H30V50Zm1,8h8v2H31V58Z"/>
  <rect class="cls-4" x="6" y="6" width="58" height="37" rx="2" ry="2"/>
  <circle class="cls-5" cx="61.5" cy="46.5" r="1.5"/>
</svg>
