<svg 
 xmlns="http://www.w3.org/2000/svg"
 xmlns:xlink="http://www.w3.org/1999/xlink"
 width="135" height="90">
<path fill-rule="evenodd"  fill="rgb(240, 247, 245)"
 d="M123.000,49.998 L109.000,49.998 C106.192,49.998 104.000,52.237 104.000,54.998 C104.000,57.759 106.192,59.998 109.000,59.998 L130.000,59.998 C132.789,59.998 135.000,62.237 135.000,64.998 C135.000,67.759 132.789,69.998 130.000,69.998 L105.000,69.998 C102.192,69.998 100.000,72.235 100.000,74.997 C100.000,77.759 102.192,79.998 105.000,79.998 L108.000,79.998 C110.789,79.998 113.000,82.236 113.000,84.997 C113.000,87.758 110.789,89.998 108.000,89.998 L37.000,89.998 C34.211,89.998 32.000,87.758 32.000,84.997 C32.000,82.236 34.211,79.998 37.000,79.998 L39.000,79.998 C41.808,79.998 44.000,77.759 44.000,74.997 C44.000,72.235 41.808,69.998 39.000,69.998 L24.000,69.998 C21.211,69.998 19.000,67.759 19.000,64.998 C19.000,62.237 21.211,59.998 24.000,59.998 L46.000,59.998 C48.808,59.998 51.000,57.759 51.000,54.998 C51.000,52.237 48.808,49.998 46.000,49.998 L33.000,49.998 C30.211,49.998 28.000,47.758 28.000,44.997 C28.000,42.236 30.211,39.998 33.000,39.998 L58.000,39.998 C60.808,39.998 63.000,37.758 63.000,34.997 C63.000,32.236 60.808,29.998 58.000,29.998 L21.000,29.998 C18.211,29.998 16.000,27.760 16.000,24.997 C16.000,22.236 18.211,19.997 21.000,19.997 L49.000,19.997 C51.808,19.997 54.000,17.760 54.000,14.998 C54.000,12.236 51.808,9.997 49.000,9.997 L35.000,9.997 C32.210,9.997 30.000,7.759 30.000,4.997 C30.000,2.236 32.210,-0.003 35.000,-0.003 L114.000,-0.003 C116.789,-0.003 119.000,2.236 119.000,4.997 C119.000,7.759 116.789,9.997 114.000,9.997 L105.000,9.997 C102.192,9.997 100.000,12.236 100.000,14.998 C100.000,17.760 102.192,19.997 105.000,19.997 L108.000,19.997 C110.789,19.997 113.000,22.236 113.000,24.997 C113.000,27.760 110.789,29.998 108.000,29.998 L76.000,29.998 C73.192,29.998 71.000,32.236 71.000,34.997 C71.000,37.758 73.192,39.998 76.000,39.998 L123.000,39.998 C125.789,39.998 128.000,42.236 128.000,44.997 C128.000,47.758 125.789,49.998 123.000,49.998 ZM13.000,49.998 L5.000,49.998 C2.238,49.998 -0.000,47.758 -0.000,44.997 C-0.000,42.236 2.238,39.998 5.000,39.998 L13.000,39.998 C15.761,39.998 18.000,42.236 18.000,44.997 C18.000,47.758 15.761,49.998 13.000,49.998 Z"/>
</svg>