<svg xmlns="http://www.w3.org/2000/svg" width="76" height="64" viewBox="0 0 76 64">
  <metadata><?xpacket begin="﻿" id="W5M0MpCehiHzreSzNTczkc9d"?>
<x:xmpmeta xmlns:x="adobe:ns:meta/" x:xmptk="Adobe XMP Core 5.6-c138 79.159824, 2016/09/14-01:09:01        ">
   <rdf:RDF xmlns:rdf="http://www.w3.org/1999/02/22-rdf-syntax-ns#">
      <rdf:Description rdf:about=""/>
   </rdf:RDF>
</x:xmpmeta>
                                                                                                    
                                                                                                    
                                                                                                    
                                                                                                    
                                                                                                    
                                                                                                    
                                                                                                    
                                                                                                    
                                                                                                    
                                                                                                    
                                                                                                    
                                                                                                    
                                                                                                    
                                                                                                    
                                                                                                    
                                                                                                    
                                                                                                    
                                                                                                    
                                                                                                    
                                                                                                    
                           
<?xpacket end="w"?></metadata>
<defs>
    <style>
      .cls-1 {
        fill: #226d4f;
      }

      .cls-1, .cls-2, .cls-3 {
        fill-rule: evenodd;
      }

      .cls-2 {
        fill: #16d488;
      }

      .cls-3 {
        fill: #c1ecdb;
      }
    </style>
  </defs>
  <path class="cls-1" d="M52.687,0a22.952,22.952,0,0,0-14.7,5.3,23,23,0,0,0-23.8-3.412,23.42,23.42,0,0,0-12.2,30.6c4.06,9.581,25.92,25.692,32.524,30.4l1.037,0.741A12.437,12.437,0,0,0,38,64h1a2.431,2.431,0,0,0,1.385-.359l1.059-.741c6.62-4.723,28.486-20.841,32.54-30.412a23.422,23.422,0,0,0-12.2-30.6A22.883,22.883,0,0,0,52.687,0h0Z"/>
  <path class="cls-2" d="M72.379,31.705C68.4,41.032,44.978,57.96,40.323,61.259L39.257,62H36.706l-1.044-.74c-4.653-3.3-28.073-20.217-32.055-29.554A21.311,21.311,0,0,1,37.993,7.975,21.313,21.313,0,0,1,72.379,31.705Z"/>
  <path class="cls-3" d="M37.987,58l0.026-.01c10-7.083,27.724-20.934,30.672-27.848A17.358,17.358,0,0,0,59.575,7.4h0A17.158,17.158,0,0,0,52.788,6,17.53,17.53,0,0,0,39.53,12.191l-1.537,1.828-1.538-1.828A17.529,17.529,0,0,0,23.2,6a17.152,17.152,0,0,0-6.786,1.4A17.359,17.359,0,0,0,7.3,30.139C10.252,37.062,27.978,50.908,37.987,58h0Z"/>
</svg>
