<svg 
 xmlns="http://www.w3.org/2000/svg"
 xmlns:xlink="http://www.w3.org/1999/xlink"
 width="6.279cm" height="3.881cm">
<path fill-rule="evenodd"  fill="rgb(240, 247, 245)"
 d="M171.000,29.997 L155.000,29.997 C152.192,29.997 150.000,32.235 150.000,34.996 C150.000,37.758 152.192,39.997 155.000,39.997 L159.000,39.997 C161.789,39.997 164.000,42.235 164.000,44.997 C164.000,47.758 161.789,49.997 159.000,49.997 L140.000,49.997 C137.192,49.997 135.000,52.235 135.000,54.996 C135.000,57.758 137.192,59.997 140.000,59.997 L173.000,59.997 C175.789,59.997 178.000,62.235 178.000,64.996 C178.000,67.758 175.789,69.997 173.000,69.997 L158.000,69.997 C155.192,69.997 153.000,72.236 153.000,74.997 C153.000,77.759 155.192,79.997 158.000,79.997 L166.000,79.997 C168.789,79.997 171.000,82.236 171.000,84.997 C171.000,87.759 168.789,89.997 166.000,89.997 L122.000,89.997 C119.192,89.997 117.000,92.236 117.000,94.997 C117.000,97.759 119.192,99.997 122.000,99.997 L147.000,99.997 C149.789,99.997 152.000,102.235 152.000,104.997 C152.000,107.758 149.789,109.997 147.000,109.997 L42.000,109.997 C39.210,109.997 37.000,107.758 37.000,104.997 C37.000,102.235 39.210,99.997 42.000,99.997 L50.000,99.997 C52.808,99.997 55.000,97.759 55.000,94.997 C55.000,92.236 52.808,89.997 50.000,89.997 L34.000,89.997 C31.210,89.997 29.000,87.759 29.000,84.997 C29.000,82.236 31.210,79.997 34.000,79.997 L49.000,79.997 C51.808,79.997 54.000,77.759 54.000,74.997 C54.000,72.236 51.808,69.997 49.000,69.997 L22.000,69.997 C19.210,69.997 17.000,67.758 17.000,64.996 C17.000,62.235 19.210,59.997 22.000,59.997 L60.000,59.997 C62.808,59.997 65.000,57.758 65.000,54.996 C65.000,52.235 62.808,49.997 60.000,49.997 L36.000,49.997 C33.211,49.997 31.000,47.758 31.000,44.997 C31.000,42.235 33.211,39.997 36.000,39.997 L46.000,39.997 C48.808,39.997 51.000,37.758 51.000,34.996 C51.000,32.235 48.808,29.997 46.000,29.997 L22.000,29.997 C19.210,29.997 17.000,27.757 17.000,24.996 C17.000,22.235 19.210,19.996 22.000,19.996 L60.000,19.996 C62.808,19.996 65.000,17.758 65.000,14.996 C65.000,12.235 62.808,9.997 60.000,9.997 L41.000,9.997 C38.211,9.997 36.000,7.758 36.000,4.996 C36.000,2.235 38.211,-0.003 41.000,-0.003 L133.000,-0.003 C135.789,-0.003 138.000,2.235 138.000,4.996 C138.000,7.758 135.789,9.997 133.000,9.997 L122.000,9.997 C119.192,9.997 117.000,12.235 117.000,14.996 C117.000,17.758 119.192,19.996 122.000,19.996 L171.000,19.996 C173.789,19.996 176.000,22.235 176.000,24.996 C176.000,27.757 173.789,29.997 171.000,29.997 ZM164.000,9.997 L153.000,9.997 C150.238,9.997 148.000,7.758 148.000,4.996 C148.000,2.235 150.238,-0.003 153.000,-0.003 L164.000,-0.003 C166.761,-0.003 169.000,2.235 169.000,4.996 C169.000,7.758 166.761,9.997 164.000,9.997 ZM21.000,44.997 C21.000,47.758 18.761,49.997 16.000,49.997 L5.000,49.997 C2.238,49.997 -0.000,47.758 -0.000,44.997 C-0.000,42.236 2.238,39.997 5.000,39.997 L16.000,39.997 C18.761,39.997 21.000,42.236 21.000,44.997 Z"/>
</svg>