<svg 
 xmlns="http://www.w3.org/2000/svg"
 xmlns:xlink="http://www.w3.org/1999/xlink"
 width="6.385cm" height="3.881cm">
<path fill-rule="evenodd"  fill="rgb(240, 247, 245)"
 d="M176.000,69.996 L165.000,69.996 C162.239,69.996 160.000,67.757 160.000,64.996 C160.000,62.234 162.239,59.995 165.000,59.995 L176.000,59.995 C178.761,59.995 181.000,62.234 181.000,64.996 C181.000,67.757 178.761,69.996 176.000,69.996 ZM166.000,49.996 L122.000,49.996 C119.192,49.996 117.000,52.234 117.000,54.996 C117.000,57.757 119.192,59.995 122.000,59.995 L145.000,59.995 C147.789,59.995 150.000,62.235 150.000,64.996 C150.000,67.757 147.789,69.996 145.000,69.996 L113.000,69.996 C110.192,69.996 108.000,72.235 108.000,74.996 C108.000,77.758 110.192,79.996 113.000,79.996 L155.000,79.996 C157.789,79.996 160.000,82.234 160.000,84.997 C160.000,87.759 157.789,89.996 155.000,89.996 L128.000,89.996 C125.192,89.996 123.000,92.235 123.000,94.996 C123.000,97.757 125.192,99.996 128.000,99.996 L150.000,99.996 C152.789,99.996 155.000,102.235 155.000,104.996 C155.000,107.758 152.789,109.996 150.000,109.996 L35.000,109.996 C32.211,109.996 30.000,107.758 30.000,104.996 C30.000,102.235 32.211,99.996 35.000,99.996 L45.000,99.996 C47.808,99.996 50.000,97.757 50.000,94.996 C50.000,92.235 47.808,89.996 45.000,89.996 L20.000,89.996 C17.211,89.996 15.000,87.759 15.000,84.997 C15.000,82.234 17.211,79.996 20.000,79.996 L69.000,79.996 C71.808,79.996 74.000,77.758 74.000,74.996 C74.000,72.235 71.808,69.996 69.000,69.996 L33.000,69.996 C30.211,69.996 28.000,67.757 28.000,64.996 C28.000,62.235 30.211,59.995 33.000,59.995 L52.000,59.995 C54.808,59.995 57.000,57.757 57.000,54.996 C57.000,52.234 54.808,49.996 52.000,49.996 L17.000,49.996 C14.211,49.996 12.000,47.758 12.000,44.995 C12.000,42.234 14.211,39.996 17.000,39.996 L36.000,39.996 C38.808,39.996 41.000,37.757 41.000,34.995 C41.000,32.234 38.808,29.996 36.000,29.996 L5.000,29.996 C2.211,29.996 0.000,27.757 0.000,24.995 C0.000,22.234 2.211,19.996 5.000,19.996 L60.000,19.996 C62.808,19.996 65.000,17.757 65.000,14.996 C65.000,12.234 62.808,9.996 60.000,9.996 L39.000,9.996 C36.211,9.996 34.000,7.757 34.000,4.996 C34.000,2.234 36.211,-0.004 39.000,-0.004 L144.000,-0.004 C146.789,-0.004 149.000,2.234 149.000,4.996 C149.000,7.757 146.789,9.996 144.000,9.996 L134.000,9.996 C131.192,9.996 129.000,12.234 129.000,14.996 C129.000,17.757 131.192,19.996 134.000,19.996 L155.000,19.996 C157.789,19.996 160.000,22.234 160.000,24.995 C160.000,27.757 157.789,29.996 155.000,29.996 L106.000,29.996 C103.192,29.996 101.000,32.234 101.000,34.995 C101.000,37.757 103.192,39.996 106.000,39.996 L166.000,39.996 C168.789,39.996 171.000,42.234 171.000,44.995 C171.000,47.758 168.789,49.996 166.000,49.996 Z"/>
</svg>