<svg 
 xmlns="http://www.w3.org/2000/svg"
 xmlns:xlink="http://www.w3.org/1999/xlink"
 width="5.821cm" height="3.881cm">
<path fill-rule="evenodd"  fill="rgb(240, 247, 245)"
 d="M153.000,69.996 L111.000,69.996 C108.191,69.996 106.000,72.235 106.000,74.996 C106.000,77.757 108.191,79.996 111.000,79.996 L160.000,79.996 C162.789,79.996 165.000,82.234 165.000,84.996 C165.000,87.758 162.789,89.996 160.000,89.996 L115.000,89.996 C112.191,89.996 110.000,92.235 110.000,94.996 C110.000,97.758 112.191,99.996 115.000,99.996 L135.000,99.996 C137.789,99.996 140.000,102.235 140.000,104.997 C140.000,107.757 137.789,109.996 135.000,109.996 L43.000,109.996 C40.210,109.996 38.000,107.757 38.000,104.997 C38.000,102.235 40.210,99.996 43.000,99.996 L65.000,99.996 C67.808,99.996 70.000,97.758 70.000,94.996 C70.000,92.235 67.808,89.996 65.000,89.996 L25.000,89.996 C22.210,89.996 20.000,87.758 20.000,84.996 C20.000,82.234 22.210,79.996 25.000,79.996 L47.000,79.996 C49.808,79.996 52.000,77.757 52.000,74.996 C52.000,72.235 49.808,69.996 47.000,69.996 L10.000,69.996 C7.210,69.996 5.000,67.756 5.000,64.996 C5.000,62.235 7.210,59.995 10.000,59.995 L38.000,59.995 C40.808,59.995 43.000,57.757 43.000,54.996 C43.000,52.234 40.808,49.996 38.000,49.996 L24.000,49.996 C21.210,49.996 19.000,47.757 19.000,44.996 C19.000,42.234 21.210,39.996 24.000,39.996 L64.000,39.996 C66.808,39.996 69.000,37.757 69.000,34.996 C69.000,32.235 66.808,29.996 64.000,29.996 L5.000,29.996 C2.210,29.996 -0.000,27.757 -0.000,24.995 C-0.000,22.234 2.210,19.996 5.000,19.996 L58.000,19.996 C60.808,19.996 63.000,17.757 63.000,14.996 C63.000,12.235 60.808,9.996 58.000,9.996 L34.000,9.996 C31.211,9.996 29.000,7.757 29.000,4.996 C29.000,2.234 31.211,-0.004 34.000,-0.004 L131.000,-0.004 C133.789,-0.004 136.000,2.234 136.000,4.996 C136.000,7.757 133.789,9.996 131.000,9.996 L100.000,9.996 C97.191,9.996 95.000,12.235 95.000,14.996 C95.000,17.757 97.191,19.996 100.000,19.996 L119.000,19.996 C121.789,19.996 124.000,22.234 124.000,24.995 C124.000,27.757 121.789,29.996 119.000,29.996 L93.000,29.996 C90.191,29.996 88.000,32.235 88.000,34.996 C88.000,37.757 90.191,39.996 93.000,39.996 L100.000,39.996 L100.000,39.998 C102.761,39.998 105.000,42.237 105.000,44.998 C105.000,47.759 102.761,49.998 100.000,49.998 L84.000,49.998 C81.238,49.998 79.000,52.236 79.000,54.998 C79.000,57.759 81.238,59.998 84.000,59.998 L124.000,59.998 C126.761,59.998 129.000,57.759 129.000,54.998 C129.000,52.236 126.761,49.998 124.000,49.998 L120.000,49.998 C117.238,49.998 115.000,47.759 115.000,44.998 C115.000,42.237 117.238,39.998 120.000,39.998 L120.000,39.996 L159.000,39.996 C161.789,39.996 164.000,42.234 164.000,44.996 C164.000,47.757 161.789,49.996 159.000,49.996 L144.000,49.996 C141.191,49.996 139.000,52.234 139.000,54.996 C139.000,57.757 141.191,59.995 144.000,59.995 L153.000,59.995 C155.789,59.995 158.000,62.235 158.000,64.996 C158.000,67.756 155.789,69.996 153.000,69.996 ZM150.000,29.996 L139.000,29.996 C136.238,29.996 134.000,27.757 134.000,24.995 C134.000,22.234 136.238,19.996 139.000,19.996 L150.000,19.996 C152.761,19.996 155.000,22.234 155.000,24.995 C155.000,27.757 152.761,29.996 150.000,29.996 ZM12.000,99.996 L23.000,99.996 C25.761,99.996 28.000,102.235 28.000,104.996 C28.000,107.757 25.761,109.997 23.000,109.997 L12.000,109.997 C9.238,109.997 7.000,107.757 7.000,104.996 C7.000,102.235 9.238,99.996 12.000,99.996 Z"/>
</svg>