<svg 
 xmlns="http://www.w3.org/2000/svg"
 xmlns:xlink="http://www.w3.org/1999/xlink"
 width="6.174cm" height="3.881cm">
<path fill-rule="evenodd"  fill="rgb(240, 247, 245)"
 d="M18.000,39.997 L29.000,39.997 C31.761,39.997 34.000,42.235 34.000,44.997 C34.000,47.758 31.761,49.997 29.000,49.997 L18.000,49.997 C15.238,49.997 13.000,47.758 13.000,44.997 C13.000,42.235 15.238,39.997 18.000,39.997 ZM170.000,29.997 L139.000,29.997 C136.192,29.997 134.000,32.235 134.000,34.996 C134.000,37.758 136.192,39.997 139.000,39.997 L158.000,39.997 C160.789,39.997 163.000,42.235 163.000,44.997 C163.000,47.758 160.789,49.997 158.000,49.997 L123.000,49.997 C120.192,49.997 118.000,52.235 118.000,54.996 C118.000,57.758 120.192,59.997 123.000,59.997 L142.000,59.997 C144.789,59.997 147.000,62.235 147.000,64.996 C147.000,67.758 144.789,69.997 142.000,69.997 L106.000,69.997 C103.192,69.997 101.000,72.236 101.000,74.997 C101.000,77.759 103.192,79.997 106.000,79.997 L165.000,79.997 C167.789,79.997 170.000,82.236 170.000,84.997 C170.000,87.759 167.789,89.997 165.000,89.997 L110.000,89.997 C107.192,89.997 105.000,92.236 105.000,94.997 C105.000,97.759 107.192,99.997 110.000,99.997 L130.000,99.997 C132.789,99.997 135.000,102.235 135.000,104.997 C135.000,107.758 132.789,109.997 130.000,109.997 L55.000,109.997 C52.211,109.997 50.000,107.758 50.000,104.997 C50.000,102.235 52.211,99.997 55.000,99.997 L70.000,99.997 C72.808,99.997 75.000,97.759 75.000,94.997 C75.000,92.236 72.808,89.997 70.000,89.997 L20.000,89.997 C17.210,89.997 15.000,87.759 15.000,84.997 C15.000,82.236 17.210,79.997 20.000,79.997 L62.000,79.997 C64.808,79.997 67.000,77.759 67.000,74.997 C67.000,72.236 64.808,69.997 62.000,69.997 L5.000,69.997 C2.211,69.997 -0.000,67.758 -0.000,64.996 C-0.000,62.235 2.211,59.997 5.000,59.997 L53.000,59.997 C55.808,59.997 58.000,57.758 58.000,54.996 C58.000,52.235 55.808,49.997 53.000,49.997 L49.000,49.997 C46.210,49.997 44.000,47.758 44.000,44.997 C44.000,42.235 46.210,39.997 49.000,39.997 L69.000,39.997 C71.808,39.997 74.000,37.758 74.000,34.996 C74.000,32.235 71.808,29.997 69.000,29.997 L30.000,29.997 C27.211,29.997 25.000,27.757 25.000,24.996 C25.000,22.235 27.211,19.996 30.000,19.996 L63.000,19.996 C65.808,19.996 68.000,17.758 68.000,14.996 C68.000,12.235 65.808,9.997 63.000,9.997 L19.000,9.997 C16.211,9.997 14.000,7.758 14.000,4.996 C14.000,2.235 16.211,-0.003 19.000,-0.003 L136.000,-0.003 C138.789,-0.003 141.000,2.235 141.000,4.996 C141.000,7.758 138.789,9.997 136.000,9.997 L115.000,9.997 C112.192,9.997 110.000,12.235 110.000,14.996 C110.000,17.758 112.192,19.996 115.000,19.996 L170.000,19.996 C172.789,19.996 175.000,22.235 175.000,24.996 C175.000,27.757 172.789,29.997 170.000,29.997 Z"/>
</svg>