<svg xmlns="http://www.w3.org/2000/svg" width="84" height="77" viewBox="0 0 84 77">
  <metadata><?xpacket begin="﻿" id="W5M0MpCehiHzreSzNTczkc9d"?>
<x:xmpmeta xmlns:x="adobe:ns:meta/" x:xmptk="Adobe XMP Core 5.6-c138 79.159824, 2016/09/14-01:09:01        ">
   <rdf:RDF xmlns:rdf="http://www.w3.org/1999/02/22-rdf-syntax-ns#">
      <rdf:Description rdf:about=""/>
   </rdf:RDF>
</x:xmpmeta>
                                                                                                    
                                                                                                    
                                                                                                    
                                                                                                    
                                                                                                    
                                                                                                    
                                                                                                    
                                                                                                    
                                                                                                    
                                                                                                    
                                                                                                    
                                                                                                    
                                                                                                    
                                                                                                    
                                                                                                    
                                                                                                    
                                                                                                    
                                                                                                    
                                                                                                    
                                                                                                    
                           
<?xpacket end="w"?></metadata>
<defs>
    <style>
      .cls-1, .cls-3 {
        fill: #226d4f;
      }

      .cls-1, .cls-2 {
        fill-rule: evenodd;
      }

      .cls-2, .cls-4 {
        fill: #16d488;
      }

      .cls-5 {
        fill: #c1ecdb;
      }
    </style>
  </defs>
  <path class="cls-1" d="M68,77H21a4,4,0,0,1-4-4V66h6v5H66V66h6v7A4,4,0,0,1,68,77Z"/>
  <path id="Rounded_Rectangle_3" data-name="Rounded Rectangle 3" class="cls-2" d="M68,75H21a2,2,0,0,1-2-2V66h2v7H68V66h2v7A2,2,0,0,1,68,75Z"/>
  <rect class="cls-3" width="42" height="66" rx="6" ry="6"/>
  <rect id="Rounded_Rectangle_2" data-name="Rounded Rectangle 2" class="cls-4" x="2" y="2" width="38" height="62" rx="4" ry="4"/>
  <rect class="cls-5" x="6" y="6" width="30" height="54" rx="2" ry="2"/>
  <circle class="cls-3" cx="12" cy="12" r="2"/>
  <rect class="cls-3" x="52" y="16" width="32" height="50" rx="6" ry="6"/>
  <rect id="Rounded_Rectangle_2-2" data-name="Rounded Rectangle 2" class="cls-4" x="54" y="18" width="28" height="46" rx="4" ry="4"/>
  <rect class="cls-5" x="58" y="22" width="20" height="38" rx="2" ry="2"/>
  <circle class="cls-3" cx="64" cy="28" r="2"/>
  <path id="Rounded_Rectangle_5" data-name="Rounded Rectangle 5" class="cls-1" d="M63,42H73a1,1,0,0,1,1,1h0a1,1,0,0,1-1,1H63a1,1,0,0,1-1-1h0A1,1,0,0,1,63,42Zm0,6H73a1,1,0,0,1,1,1h0a1,1,0,0,1-1,1H63a1,1,0,0,1-1-1h0A1,1,0,0,1,63,48Zm0,6H73a1,1,0,0,1,1,1h0a1,1,0,0,1-1,1H63a1,1,0,0,1-1-1h0A1,1,0,0,1,63,54Z"/>
  <path id="Rounded_Rectangle_5-2" data-name="Rounded Rectangle 5" class="cls-1" d="M11,42H31a1,1,0,0,1,1,1h0a1,1,0,0,1-1,1H11a1,1,0,0,1-1-1h0A1,1,0,0,1,11,42Zm0,6H31a1,1,0,0,1,1,1h0a1,1,0,0,1-1,1H11a1,1,0,0,1-1-1h0A1,1,0,0,1,11,48Zm0,6H31a1,1,0,0,1,1,1h0a1,1,0,0,1-1,1H11a1,1,0,0,1-1-1h0A1,1,0,0,1,11,54Z"/>
</svg>
