<svg xmlns="http://www.w3.org/2000/svg" width="86" height="90" viewBox="0 0 86 90">
  <metadata><?xpacket begin="﻿" id="W5M0MpCehiHzreSzNTczkc9d"?>
<x:xmpmeta xmlns:x="adobe:ns:meta/" x:xmptk="Adobe XMP Core 5.6-c138 79.159824, 2016/09/14-01:09:01        ">
   <rdf:RDF xmlns:rdf="http://www.w3.org/1999/02/22-rdf-syntax-ns#">
      <rdf:Description rdf:about=""/>
   </rdf:RDF>
</x:xmpmeta>
                                                                                                    
                                                                                                    
                                                                                                    
                                                                                                    
                                                                                                    
                                                                                                    
                                                                                                    
                                                                                                    
                                                                                                    
                                                                                                    
                                                                                                    
                                                                                                    
                                                                                                    
                                                                                                    
                                                                                                    
                                                                                                    
                                                                                                    
                                                                                                    
                                                                                                    
                                                                                                    
                           
<?xpacket end="w"?></metadata>
<defs>
    <style>
      .cls-1, .cls-3 {
        fill: #226d4f;
      }

      .cls-2, .cls-5 {
        fill: #16d488;
      }

      .cls-3, .cls-4, .cls-5 {
        fill-rule: evenodd;
      }

      .cls-4, .cls-7 {
        fill: #236e50;
      }

      .cls-6 {
        fill: #c1ecdb;
      }

      .cls-8 {
        fill: #1ad58a;
      }
    </style>
  </defs>
  <circle class="cls-1" cx="43" cy="35" r="35"/>
  <rect class="cls-2" x="42" y="74" width="2" height="8"/>
  <path class="cls-3" d="M43,74A39.073,39.073,0,0,0,82,35h2A41,41,0,0,1,2,35H4A39.073,39.073,0,0,0,43,74Z"/>
  <rect class="cls-1" x="40" y="74" width="2" height="8"/>
  <rect class="cls-1" x="44" y="74" width="2" height="8"/>
  <rect id="Rounded_Rectangle_9" data-name="Rounded Rectangle 9" class="cls-1" y="35" width="6" height="2" rx="1" ry="1"/>
  <rect id="Rounded_Rectangle_9-2" data-name="Rounded Rectangle 9" class="cls-1" x="80" y="35" width="6" height="2" rx="1" ry="1"/>
  <path class="cls-3" d="M57.85,87.943A3,3,0,0,1,55,90H31.017a3,3,0,0,1-1.805-5.407,23.017,23.017,0,0,1,27.592,0A3,3,0,0,1,57.85,87.943Z"/>
  <path class="cls-4" d="M86,85h0C63.322,85,63,62.234,63,62V58h2v4c0,0.857.333,21,21,21h0v2h0Z"/>
  <path class="cls-5" d="M43.008,82A20.922,20.922,0,0,1,55.6,86.191,1,1,0,0,1,55,88H31.017a1,1,0,0,1-.6-1.808A20.922,20.922,0,0,1,43.008,82"/>
  <circle class="cls-2" cx="43" cy="35" r="33"/>
  <circle class="cls-6" cx="43" cy="35" r="29"/>
  <circle class="cls-7" cx="43" cy="35" r="18"/>
  <circle class="cls-6" cx="43" cy="35" r="16"/>
  <circle class="cls-1" cx="43" cy="35" r="10"/>
  <circle class="cls-8" cx="43" cy="35" r="8"/>
  <circle class="cls-7" cx="60" cy="17" r="2"/>
</svg>
