<svg xmlns="http://www.w3.org/2000/svg" width="88" height="72" viewBox="0 0 88 72">
  <metadata><?xpacket begin="﻿" id="W5M0MpCehiHzreSzNTczkc9d"?>
<x:xmpmeta xmlns:x="adobe:ns:meta/" x:xmptk="Adobe XMP Core 5.6-c138 79.159824, 2016/09/14-01:09:01        ">
   <rdf:RDF xmlns:rdf="http://www.w3.org/1999/02/22-rdf-syntax-ns#">
      <rdf:Description rdf:about=""/>
   </rdf:RDF>
</x:xmpmeta>
                                                                                                    
                                                                                                    
                                                                                                    
                                                                                                    
                                                                                                    
                                                                                                    
                                                                                                    
                                                                                                    
                                                                                                    
                                                                                                    
                                                                                                    
                                                                                                    
                                                                                                    
                                                                                                    
                                                                                                    
                                                                                                    
                                                                                                    
                                                                                                    
                                                                                                    
                                                                                                    
                           
<?xpacket end="w"?></metadata>
<defs>
    <style>
      .cls-1, .cls-4 {
        fill: #226d4f;
      }

      .cls-2, .cls-5 {
        fill: #16d488;
      }

      .cls-3 {
        fill: #c1ecdb;
      }

      .cls-4, .cls-5 {
        fill-rule: evenodd;
      }
    </style>
  </defs>
  <rect class="cls-1" x="2" y="10" width="84" height="62" rx="6" ry="6"/>
  <rect id="Rounded_Rectangle_2" data-name="Rounded Rectangle 2" class="cls-2" x="4" y="12" width="80" height="58" rx="4" ry="4"/>
  <rect class="cls-3" x="8" y="16" width="72" height="50" rx="2" ry="2"/>
  <rect class="cls-1" y="10" width="88" height="32" rx="6" ry="6"/>
  <rect id="Rounded_Rectangle_2-2" data-name="Rounded Rectangle 2" class="cls-2" x="2" y="12" width="84" height="28" rx="4" ry="4"/>
  <rect class="cls-3" x="6" y="16" width="76" height="20" rx="2" ry="2"/>
  <path class="cls-4" d="M52,35v8a2,2,0,0,1-2,2H38a2,2,0,0,1-2-2V35a2,2,0,0,1,2-2H50A2,2,0,0,1,52,35Z"/>
  <rect class="cls-2" x="38" y="35" width="12" height="8"/>
  <path class="cls-4" d="M58,11V6H57V6H33V6H31v5H25V4a4,4,0,0,1,4-4H60a4,4,0,0,1,4,4v7H58Z"/>
  <rect class="cls-1" x="40" y="37" width="8" height="2" rx="1" ry="1"/>
  <path id="Rounded_Rectangle_3" data-name="Rounded Rectangle 3" class="cls-5" d="M60,11V4H29v7H27V4a2,2,0,0,1,2-2H60a2,2,0,0,1,2,2v7H60Z"/>
</svg>
