<svg 
 xmlns="http://www.w3.org/2000/svg"
 xmlns:xlink="http://www.w3.org/1999/xlink"
 width="6.103cm" height="3.881cm">
<path fill-rule="evenodd"  fill="rgb(240, 247, 245)"
 d="M166.000,29.997 L135.000,29.997 C132.192,29.997 130.000,32.235 130.000,34.996 C130.000,37.758 132.192,39.997 135.000,39.997 L154.000,39.997 C156.789,39.997 159.000,42.235 159.000,44.997 C159.000,47.758 156.789,49.997 154.000,49.997 L119.000,49.997 C116.192,49.997 114.000,52.235 114.000,54.996 C114.000,57.758 116.192,59.997 119.000,59.997 L168.000,59.997 C170.789,59.997 173.000,62.235 173.000,64.996 C173.000,67.758 170.789,69.997 168.000,69.997 L102.000,69.997 C99.192,69.997 97.000,72.236 97.000,74.997 C97.000,77.759 99.192,79.997 102.000,79.997 L141.000,79.997 C143.789,79.997 146.000,82.236 146.000,84.997 C146.000,87.759 143.789,89.997 141.000,89.997 L91.000,89.997 C88.192,89.997 86.000,92.236 86.000,94.997 C86.000,97.759 88.192,99.997 91.000,99.997 L116.000,99.997 C118.789,99.997 121.000,102.235 121.000,104.997 C121.000,107.758 118.789,109.997 116.000,109.997 L31.000,109.997 C28.210,109.997 26.000,107.758 26.000,104.997 C26.000,102.235 28.210,99.997 31.000,99.997 L49.000,99.997 C51.808,99.997 54.000,97.759 54.000,94.997 C54.000,92.236 51.808,89.997 49.000,89.997 L23.000,89.997 C20.210,89.997 18.000,87.759 18.000,84.997 C18.000,82.236 20.210,79.997 23.000,79.997 L58.000,79.997 C60.808,79.997 63.000,77.759 63.000,74.997 C63.000,72.236 60.808,69.997 58.000,69.997 L11.000,69.997 C8.211,69.997 6.000,67.758 6.000,64.996 C6.000,62.235 8.211,59.997 11.000,59.997 L49.000,59.997 C51.808,59.997 54.000,57.758 54.000,54.996 C54.000,52.235 51.808,49.997 49.000,49.997 L5.000,49.997 C2.210,49.997 -0.000,47.758 -0.000,44.997 C-0.000,42.235 2.210,39.997 5.000,39.997 L45.000,39.997 C47.808,39.997 50.000,37.758 50.000,34.996 C50.000,32.235 47.808,29.997 45.000,29.997 L11.000,29.997 C8.211,29.997 6.000,27.757 6.000,24.996 C6.000,22.235 8.211,19.996 11.000,19.996 L59.000,19.996 C61.808,19.996 64.000,17.758 64.000,14.996 C64.000,12.235 61.808,9.997 59.000,9.997 L50.000,9.997 C47.210,9.997 45.000,7.758 45.000,4.996 C45.000,2.235 47.210,-0.003 50.000,-0.003 L132.000,-0.003 C134.789,-0.003 137.000,2.235 137.000,4.996 C137.000,7.758 134.789,9.997 132.000,9.997 L111.000,9.997 C108.192,9.997 106.000,12.235 106.000,14.996 C106.000,17.758 108.192,19.996 111.000,19.996 L166.000,19.996 C168.789,19.996 171.000,22.235 171.000,24.996 C171.000,27.757 168.789,29.997 166.000,29.997 ZM30.000,9.997 L19.000,9.997 C16.238,9.997 14.000,7.758 14.000,4.996 C14.000,2.235 16.238,-0.003 19.000,-0.003 L30.000,-0.003 C32.761,-0.003 35.000,2.235 35.000,4.996 C35.000,7.758 32.761,9.997 30.000,9.997 Z"/>
</svg>