<svg xmlns="http://www.w3.org/2000/svg" width="62" height="81" viewBox="0 0 62 81">
  <metadata><?xpacket begin="﻿" id="W5M0MpCehiHzreSzNTczkc9d"?>
<x:xmpmeta xmlns:x="adobe:ns:meta/" x:xmptk="Adobe XMP Core 5.6-c138 79.159824, 2016/09/14-01:09:01        ">
   <rdf:RDF xmlns:rdf="http://www.w3.org/1999/02/22-rdf-syntax-ns#">
      <rdf:Description rdf:about=""/>
   </rdf:RDF>
</x:xmpmeta>
                                                                                                    
                                                                                                    
                                                                                                    
                                                                                                    
                                                                                                    
                                                                                                    
                                                                                                    
                                                                                                    
                                                                                                    
                                                                                                    
                                                                                                    
                                                                                                    
                                                                                                    
                                                                                                    
                                                                                                    
                                                                                                    
                                                                                                    
                                                                                                    
                                                                                                    
                                                                                                    
                           
<?xpacket end="w"?></metadata>
<defs>
    <style>
      .cls-1 {
        fill: #226d4f;
      }

      .cls-1, .cls-2 {
        fill-rule: evenodd;
      }

      .cls-2 {
        fill: #16d488;
      }

      .cls-3 {
        fill: #c1ecdb;
      }
    </style>
  </defs>
  <path class="cls-1" d="M58,81H4a4,4,0,0,1-4-4V9A4,4,0,0,1,4,5h8v5a1,1,0,1,0,2,0V5H30v5a1,1,0,1,0,2,0V5H48v5a1,1,0,1,0,2,0V5h8a4,4,0,0,1,4,4V77A4,4,0,0,1,58,81Z"/>
  <path id="Rounded_Rectangle_2" data-name="Rounded Rectangle 2" class="cls-2" d="M58,79H4a2,2,0,0,1-2-2V9A2,2,0,0,1,4,7h8v3a1,1,0,1,0,2,0V7H30v3a1,1,0,1,0,2,0V7H48v3a1,1,0,1,0,2,0V7h8a2,2,0,0,1,2,2V77A2,2,0,0,1,58,79Z"/>
  <rect class="cls-3" x="6" y="15" width="50" height="60" rx="1" ry="1"/>
  <path id="Rounded_Rectangle_6" data-name="Rounded Rectangle 6" class="cls-1" d="M49,13a3,3,0,0,1-3-3V3a3,3,0,0,1,6,0v7A3,3,0,0,1,49,13ZM50,3a1,1,0,0,0-2,0v7a1,1,0,1,0,2,0V3ZM31,13a3,3,0,0,1-3-3V3a3,3,0,0,1,6,0v7A3,3,0,0,1,31,13ZM32,3a1,1,0,0,0-2,0v7a1,1,0,1,0,2,0V3ZM13,13a3,3,0,0,1-3-3V3a3,3,0,0,1,6,0v7A3,3,0,0,1,13,13ZM14,3a1,1,0,0,0-2,0v7a1,1,0,1,0,2,0V3Z"/>
  <path class="cls-1" d="M31.317,40a14.183,14.183,0,0,1,10.858,5.03,0.978,0.978,0,0,1-.081,1.324h0a1.01,1.01,0,0,1-1.477-.06,12.22,12.22,0,0,0-18.595-.008,1.01,1.01,0,0,1-1.476.059h0a0.978,0.978,0,0,1-.08-1.324A14.184,14.184,0,0,1,31.317,40Zm0,6a8.106,8.106,0,0,1,6.553,3.311,1,1,0,0,1-.1,1.311l0,0a1,1,0,0,1-1.513-.1,6.087,6.087,0,0,0-9.876-.006,1.006,1.006,0,0,1-1.512.094l0,0a1,1,0,0,1-.1-1.312A8.107,8.107,0,0,1,31.317,46Zm0,6a2,2,0,1,1-2.024,2A2.012,2.012,0,0,1,31.317,52ZM46.4,42.1l0,0a1.009,1.009,0,0,1-1.453-.026A18.319,18.319,0,0,0,17.7,42.067a1.01,1.01,0,0,1-1.453.026l0-.005a0.985,0.985,0,0,1-.057-1.357,20.377,20.377,0,0,1,30.276.008A0.986,0.986,0,0,1,46.4,42.1Z"/>
</svg>
