<svg 
 xmlns="http://www.w3.org/2000/svg"
 xmlns:xlink="http://www.w3.org/1999/xlink"
 width="6.138cm" height="3.881cm">
<path fill-rule="evenodd"  fill="rgb(240, 247, 245)"
 d="M169.000,69.996 L158.000,69.996 C155.238,69.996 153.000,67.757 153.000,64.996 C153.000,62.234 155.238,59.995 158.000,59.995 L169.000,59.995 C171.761,59.995 174.000,62.234 174.000,64.996 C174.000,67.757 171.761,69.996 169.000,69.996 ZM166.000,29.996 L145.000,29.996 C142.191,29.996 140.000,32.234 140.000,34.995 C140.000,37.757 142.191,39.996 145.000,39.996 L154.000,39.996 C156.789,39.996 159.000,42.234 159.000,44.995 C159.000,47.758 156.789,49.996 154.000,49.996 L119.000,49.996 C116.192,49.996 114.000,52.234 114.000,54.996 C114.000,57.757 116.192,59.995 119.000,59.995 L138.000,59.995 C140.789,59.995 143.000,62.235 143.000,64.996 C143.000,67.757 140.789,69.996 138.000,69.996 L122.000,69.996 C119.192,69.996 117.000,72.235 117.000,74.996 C117.000,77.758 119.192,79.996 122.000,79.996 L161.000,79.996 C163.789,79.996 166.000,82.234 166.000,84.997 C166.000,87.759 163.789,89.996 161.000,89.996 L126.000,89.996 C123.192,89.996 121.000,92.235 121.000,94.996 C121.000,97.757 123.192,99.996 126.000,99.996 L136.000,99.996 C138.789,99.996 141.000,102.235 141.000,104.996 C141.000,107.758 138.789,109.996 136.000,109.996 L41.000,109.996 C38.210,109.996 36.000,107.758 36.000,104.996 C36.000,102.235 38.210,99.996 41.000,99.996 L58.000,99.996 C60.808,99.996 63.000,97.757 63.000,94.996 C63.000,92.235 60.808,89.996 58.000,89.996 L6.000,89.996 C3.210,89.996 1.000,87.759 1.000,84.997 C1.000,82.234 3.210,79.996 6.000,79.996 L48.000,79.996 C50.808,79.996 53.000,77.758 53.000,74.996 C53.000,72.235 50.808,69.996 48.000,69.996 L28.000,69.996 C25.210,69.996 23.000,67.757 23.000,64.996 C23.000,62.235 25.210,59.995 28.000,59.995 L35.000,59.995 C37.808,59.995 40.000,57.757 40.000,54.996 C40.000,52.234 37.808,49.996 35.000,49.996 L5.000,49.996 C2.210,49.996 -0.000,47.758 -0.000,44.995 C-0.000,42.234 2.210,39.996 5.000,39.996 L55.000,39.996 C57.808,39.996 60.000,37.757 60.000,34.995 C60.000,32.234 57.808,29.996 55.000,29.996 L16.000,29.996 C13.210,29.996 11.000,27.757 11.000,24.995 C11.000,22.234 13.210,19.996 16.000,19.996 L39.000,19.996 C41.808,19.996 44.000,17.757 44.000,14.996 C44.000,12.234 41.808,9.996 39.000,9.996 L25.000,9.996 C22.210,9.996 20.000,7.757 20.000,4.996 C20.000,2.234 22.210,-0.004 25.000,-0.004 L152.000,-0.004 C154.789,-0.004 157.000,2.234 157.000,4.996 C157.000,7.757 154.789,9.996 152.000,9.996 L111.000,9.996 C108.192,9.996 106.000,12.234 106.000,14.996 C106.000,17.757 108.192,19.996 111.000,19.996 L166.000,19.996 C168.789,19.996 171.000,22.234 171.000,24.995 C171.000,27.757 168.789,29.996 166.000,29.996 Z"/>
</svg>