<svg xmlns="http://www.w3.org/2000/svg" width="155" height="75" viewBox="0 0 155 75">
  <metadata><?xpacket begin="﻿" id="W5M0MpCehiHzreSzNTczkc9d"?>
<x:xmpmeta xmlns:x="adobe:ns:meta/" x:xmptk="Adobe XMP Core 5.6-c138 79.159824, 2016/09/14-01:09:01        ">
   <rdf:RDF xmlns:rdf="http://www.w3.org/1999/02/22-rdf-syntax-ns#">
      <rdf:Description rdf:about=""/>
   </rdf:RDF>
</x:xmpmeta>
                                                                                                    
                                                                                                    
                                                                                                    
                                                                                                    
                                                                                                    
                                                                                                    
                                                                                                    
                                                                                                    
                                                                                                    
                                                                                                    
                                                                                                    
                                                                                                    
                                                                                                    
                                                                                                    
                                                                                                    
                                                                                                    
                                                                                                    
                                                                                                    
                                                                                                    
                                                                                                    
                           
<?xpacket end="w"?></metadata>
<defs>
    <style>
      .cls-1 {
        fill: #226d4f;
      }

      .cls-1, .cls-2, .cls-3 {
        fill-rule: evenodd;
      }

      .cls-2 {
        fill: #16d488;
      }

      .cls-3 {
        fill: #c1ecdb;
      }
    </style>
  </defs>
  <path class="cls-1" d="M78.425,17.331l2.644,6.431,6.957,0.512a1,1,0,0,1,.57,1.762l-5.322,4.474,1.661,6.739a1,1,0,0,1-1.5,1.091L77.5,34.682l-5.941,3.659a1,1,0,0,1-1.5-1.091l1.661-6.739L66.4,26.036a1,1,0,0,1,.57-1.762l6.957-.512,2.644-6.431A1,1,0,0,1,78.425,17.331ZM98.1,21.019l-7.33-.538-6.933-.51-2.63-6.4L78.425,6.8a1,1,0,0,0-1.85,0L73.79,13.573l-2.63,6.4-6.933.51-7.329.538a1,1,0,0,0-.57,1.762L61.933,27.5l5.308,4.463-1.655,6.713-1.75,7.1a1,1,0,0,0,1.5,1.091l6.258-3.853,5.911-3.64,5.911,3.64,6.258,3.853a1,1,0,0,0,1.5-1.091l-1.75-7.1L87.758,31.96,93.067,27.5l5.607-4.716A1,1,0,0,0,98.1,21.019Zm3.746,1.7,2.808-2.362a0.5,0.5,0,0,0-.286-0.876l-3.668-.27-9.782-.718-5.7-.419-2.16-5.255-3.71-9.025L77.964,0.409a0.5,0.5,0,0,0-.927,0L75.645,3.794l-3.71,9.025-2.16,5.256-5.7.419-9.781.718-3.668.27a0.5,0.5,0,0,0-.287.876l2.808,2.362,7.488,6.3L65,32.684,63.64,38.2,61.3,47.668,60.429,51.22a0.5,0.5,0,0,0,.75.541l3.127-1.925L72.645,44.7l4.855-2.99,4.855,2.99,8.338,5.133,3.127,1.925a0.5,0.5,0,0,0,.751-0.541L93.7,47.668,91.36,38.2,90,32.684l4.361-3.666Z"/>
  <path class="cls-2" d="M78.425,17.331l2.644,6.431,6.957,0.512a1,1,0,0,1,.57,1.762l-5.322,4.474,1.661,6.739a1,1,0,0,1-1.5,1.091L77.5,34.682l-5.941,3.659a1,1,0,0,1-1.5-1.091l1.661-6.739L66.4,26.036a1,1,0,0,1,.57-1.762l6.957-.512,2.644-6.431A1,1,0,0,1,78.425,17.331ZM98.1,21.019l-7.33-.538-6.933-.51-2.63-6.4L78.425,6.8a1,1,0,0,0-1.85,0L73.79,13.573l-2.63,6.4-6.933.51-7.329.538a1,1,0,0,0-.57,1.762L61.933,27.5l5.308,4.463-1.655,6.713-1.75,7.1a1,1,0,0,0,1.5,1.091l6.258-3.853,5.911-3.64,5.911,3.64,6.258,3.853a1,1,0,0,0,1.5-1.091l-1.75-7.1L87.758,31.96,93.067,27.5l5.607-4.716A1,1,0,0,0,98.1,21.019Z"/>
  <path class="cls-3" d="M78.425,17.331l2.644,6.431,6.957,0.512a1,1,0,0,1,.57,1.762l-5.322,4.474,1.661,6.739a1,1,0,0,1-1.5,1.091L77.5,34.682l-5.941,3.659a1,1,0,0,1-1.5-1.091l1.661-6.739L66.4,26.036a1,1,0,0,1,.57-1.762l6.957-.512,2.644-6.431A1,1,0,0,1,78.425,17.331Z"/>
  <path class="cls-1" d="M128.425,40.33l2.644,6.432,6.957,0.512a1,1,0,0,1,.571,1.763l-5.322,4.475,1.661,6.738a1,1,0,0,1-1.5,1.091L127.5,57.682l-5.941,3.658a1,1,0,0,1-1.5-1.091l1.662-6.738L116.4,49.037a1,1,0,0,1,.57-1.763l6.958-.512,2.644-6.432A1,1,0,0,1,128.425,40.33ZM148.1,44.019l-7.33-.538-6.933-.51-2.63-6.4L128.425,29.8a1,1,0,0,0-1.85,0l-2.785,6.775-2.63,6.4-6.934.51-7.329.538a1,1,0,0,0-.571,1.762l5.607,4.715,5.308,4.464-1.655,6.712-1.75,7.1a1,1,0,0,0,1.5,1.091l6.258-3.853,5.911-3.641,5.91,3.641,6.258,3.853a1,1,0,0,0,1.5-1.091l-1.75-7.1-1.656-6.712,5.309-4.464,5.606-4.715A1,1,0,0,0,148.1,44.019Zm3.746,1.7,2.808-2.362a0.5,0.5,0,0,0-.286-0.877l-3.668-.27-9.782-.718-5.695-.418-2.161-5.256-3.71-9.026-1.391-3.384a0.5,0.5,0,0,0-.928,0l-1.391,3.384-3.711,9.026-2.16,5.256-5.7.418-9.781.718-3.668.27a0.5,0.5,0,0,0-.287.877l2.809,2.362,7.488,6.3L115,55.684,113.64,61.2l-2.335,9.47-0.876,3.552a0.5,0.5,0,0,0,.75.541l3.127-1.925,8.338-5.134,4.856-2.989,4.855,2.989,8.338,5.134,3.127,1.925a0.5,0.5,0,0,0,.751-0.541L143.7,70.668,141.36,61.2,140,55.684l4.361-3.666Z"/>
  <path class="cls-1" d="M28.425,40.33l2.644,6.432,6.957,0.512a1,1,0,0,1,.57,1.763l-5.322,4.475,1.661,6.738a1,1,0,0,1-1.5,1.091L27.5,57.682l-5.941,3.658a1,1,0,0,1-1.5-1.091l1.662-6.738L16.4,49.037a1,1,0,0,1,.57-1.763l6.957-.512,2.644-6.432A1,1,0,0,1,28.425,40.33ZM48.1,44.019l-7.329-.538-6.933-.51-2.63-6.4L28.425,29.8a1,1,0,0,0-1.85,0L23.79,36.573l-2.63,6.4-6.933.51L6.9,44.019a1,1,0,0,0-.57,1.762L11.933,50.5l5.308,4.464-1.655,6.712-1.75,7.1a1,1,0,0,0,1.5,1.091l6.258-3.853L27.5,62.368l5.911,3.641,6.258,3.853a1,1,0,0,0,1.5-1.091l-1.75-7.1L37.758,54.96,43.067,50.5l5.607-4.715A1,1,0,0,0,48.1,44.019Zm3.746,1.7,2.808-2.362a0.5,0.5,0,0,0-.286-0.877l-3.668-.27-9.781-.718-5.7-.418-2.16-5.256-3.71-9.026L27.964,23.41a0.5,0.5,0,0,0-.927,0l-1.391,3.384-3.71,9.026-2.16,5.256-5.7.418L4.3,42.212l-3.668.27a0.5,0.5,0,0,0-.287.877l2.808,2.362,7.488,6.3L15,55.684,13.64,61.2,11.3,70.668,10.429,74.22a0.5,0.5,0,0,0,.75.541l3.127-1.925L22.645,67.7,27.5,64.713,32.355,67.7l8.338,5.134,3.127,1.925a0.5,0.5,0,0,0,.75-0.541L43.7,70.668,41.36,61.2,40,55.684l4.361-3.666Z"/>
  <path class="cls-2" d="M128.425,40.33l2.644,6.432,6.957,0.512a1,1,0,0,1,.571,1.763l-5.322,4.475,1.661,6.738a1,1,0,0,1-1.5,1.091L127.5,57.682l-5.941,3.658a1,1,0,0,1-1.5-1.091l1.662-6.738L116.4,49.037a1,1,0,0,1,.57-1.763l6.958-.512,2.644-6.432A1,1,0,0,1,128.425,40.33ZM148.1,44.019l-7.33-.538-6.933-.51-2.63-6.4L128.425,29.8a1,1,0,0,0-1.85,0l-2.785,6.775-2.63,6.4-6.934.51-7.329.538a1,1,0,0,0-.571,1.762l5.607,4.715,5.308,4.464-1.655,6.712-1.75,7.1a1,1,0,0,0,1.5,1.091l6.258-3.853,5.911-3.641,5.91,3.641,6.258,3.853a1,1,0,0,0,1.5-1.091l-1.75-7.1-1.656-6.712,5.309-4.464,5.606-4.715A1,1,0,0,0,148.1,44.019Z"/>
  <path class="cls-3" d="M128.425,40.33l2.644,6.432,6.957,0.512a1,1,0,0,1,.571,1.763l-5.322,4.475,1.661,6.738a1,1,0,0,1-1.5,1.091L127.5,57.682l-5.941,3.658a1,1,0,0,1-1.5-1.091l1.662-6.738L116.4,49.037a1,1,0,0,1,.57-1.763l6.958-.512,2.644-6.432A1,1,0,0,1,128.425,40.33Z"/>
  <path class="cls-2" d="M28.425,40.33l2.644,6.432,6.957,0.512a1,1,0,0,1,.57,1.763l-5.322,4.475,1.661,6.738a1,1,0,0,1-1.5,1.091L27.5,57.682l-5.941,3.658a1,1,0,0,1-1.5-1.091l1.662-6.738L16.4,49.037a1,1,0,0,1,.57-1.763l6.957-.512,2.644-6.432A1,1,0,0,1,28.425,40.33ZM48.1,44.019l-7.329-.538-6.933-.51-2.63-6.4L28.425,29.8a1,1,0,0,0-1.85,0L23.79,36.573l-2.63,6.4-6.933.51L6.9,44.019a1,1,0,0,0-.57,1.762L11.933,50.5l5.308,4.464-1.655,6.712-1.75,7.1a1,1,0,0,0,1.5,1.091l6.258-3.853L27.5,62.368l5.911,3.641,6.258,3.853a1,1,0,0,0,1.5-1.091l-1.75-7.1L37.758,54.96,43.067,50.5l5.607-4.715A1,1,0,0,0,48.1,44.019Z"/>
  <path class="cls-3" d="M28.425,40.33l2.644,6.432,6.957,0.512a1,1,0,0,1,.57,1.763l-5.322,4.475,1.661,6.738a1,1,0,0,1-1.5,1.091L27.5,57.682l-5.941,3.658a1,1,0,0,1-1.5-1.091l1.662-6.738L16.4,49.037a1,1,0,0,1,.57-1.763l6.957-.512,2.644-6.432A1,1,0,0,1,28.425,40.33Z"/>
</svg>
